G04 #@! TF.FileFunction,Copper,L1,Top,Signal*
%FSLAX46Y46*%
G04 Gerber Fmt 4.6, Leading zero omitted, Abs format (unit mm)*
G04 Created by KiCad (PCBNEW (2014-11-22 BZR 5299)-product) date Sun 01 Mar 2015 05:03:53 PM EST*
%MOMM*%
G01*
G04 APERTURE LIST*
%ADD10C,0.150000*%
%ADD11C,1.727200*%
%ADD12O,1.727200X2.032000*%
%ADD13C,6.200000*%
%ADD14C,1.397000*%
%ADD15R,1.397000X1.397000*%
%ADD16C,1.676400*%
%ADD17R,1.727200X1.727200*%
%ADD18O,1.727200X1.727200*%
%ADD19R,1.727200X2.032000*%
%ADD20R,2.032000X2.032000*%
%ADD21O,2.032000X2.032000*%
%ADD22R,1.399540X0.599440*%
%ADD23O,0.899160X1.501140*%
%ADD24C,1.016000*%
%ADD25C,0.381000*%
%ADD26C,0.254000*%
G04 APERTURE END LIST*
D10*
D11*
X67691000Y-102235000D03*
X70231000Y-102235000D03*
X72771000Y-102235000D03*
X75311000Y-102235000D03*
X77851000Y-102235000D03*
X80391000Y-102235000D03*
X82931000Y-102235000D03*
X85471000Y-102235000D03*
X88011000Y-102235000D03*
X90551000Y-102235000D03*
X93091000Y-102235000D03*
X95631000Y-102235000D03*
X98171000Y-102235000D03*
X98171000Y-81915000D03*
X95631000Y-81915000D03*
X93091000Y-81915000D03*
X90551000Y-81915000D03*
X88011000Y-81915000D03*
X85471000Y-81915000D03*
X82931000Y-81915000D03*
X80391000Y-81915000D03*
X77851000Y-81915000D03*
X75311000Y-81915000D03*
X72771000Y-81915000D03*
X70231000Y-81915000D03*
X67691000Y-81915000D03*
D12*
X107950000Y-82550000D03*
X110490000Y-82550000D03*
X113030000Y-82550000D03*
X115570000Y-82550000D03*
X115570000Y-74930000D03*
X113030000Y-74930000D03*
X110490000Y-74930000D03*
X107950000Y-74930000D03*
D13*
X62500000Y-67000000D03*
X62500000Y-116500000D03*
X120500000Y-116500000D03*
X120500000Y-67000000D03*
D14*
X104140000Y-72390000D03*
X101600000Y-72390000D03*
X69850000Y-111760000D03*
X69850000Y-109220000D03*
D15*
X120650000Y-73660000D03*
D14*
X120650000Y-76200000D03*
D15*
X65760600Y-77622400D03*
D14*
X63220600Y-77622400D03*
X66040000Y-109220000D03*
X66040000Y-111760000D03*
D15*
X104140000Y-97790000D03*
D14*
X104140000Y-95250000D03*
X112547400Y-86563200D03*
X115087400Y-86563200D03*
D16*
X104140000Y-86360000D03*
X104140000Y-83820000D03*
D17*
X67370000Y-68270000D03*
D18*
X67370000Y-65730000D03*
X69910000Y-68270000D03*
X69910000Y-65730000D03*
X72450000Y-68270000D03*
X72450000Y-65730000D03*
X74990000Y-68270000D03*
X74990000Y-65730000D03*
X77530000Y-68270000D03*
X77530000Y-65730000D03*
X80070000Y-68270000D03*
X80070000Y-65730000D03*
X82610000Y-68270000D03*
X82610000Y-65730000D03*
X85150000Y-68270000D03*
X85150000Y-65730000D03*
X87690000Y-68270000D03*
X87690000Y-65730000D03*
X90230000Y-68270000D03*
X90230000Y-65730000D03*
X92770000Y-68270000D03*
X92770000Y-65730000D03*
X95310000Y-68270000D03*
X95310000Y-65730000D03*
X97850000Y-68270000D03*
X97850000Y-65730000D03*
X100390000Y-68270000D03*
X100390000Y-65730000D03*
X102930000Y-68270000D03*
X102930000Y-65730000D03*
X105470000Y-68270000D03*
X105470000Y-65730000D03*
X108010000Y-68270000D03*
X108010000Y-65730000D03*
X110550000Y-68270000D03*
X110550000Y-65730000D03*
X113090000Y-68270000D03*
X113090000Y-65730000D03*
X115630000Y-68270000D03*
X115630000Y-65730000D03*
D19*
X78740000Y-78740000D03*
D12*
X76200000Y-78740000D03*
X73660000Y-78740000D03*
X71120000Y-78740000D03*
D19*
X91440000Y-78740000D03*
D12*
X88900000Y-78740000D03*
X86360000Y-78740000D03*
X83820000Y-78740000D03*
D20*
X88900000Y-73660000D03*
D21*
X91440000Y-73660000D03*
D19*
X91440000Y-76200000D03*
D12*
X88900000Y-76200000D03*
X86360000Y-76200000D03*
X83820000Y-76200000D03*
D19*
X82550000Y-72390000D03*
D12*
X80010000Y-72390000D03*
X77470000Y-72390000D03*
X74930000Y-72390000D03*
X72390000Y-72390000D03*
X69850000Y-72390000D03*
X67310000Y-72390000D03*
X64770000Y-72390000D03*
D20*
X101600000Y-80010000D03*
D21*
X104140000Y-80010000D03*
D14*
X113030000Y-72136000D03*
X115570000Y-72136000D03*
X107950000Y-72136000D03*
X110490000Y-72136000D03*
X101600000Y-76200000D03*
X104140000Y-76200000D03*
X106680000Y-91440000D03*
X106680000Y-88900000D03*
X101600000Y-91440000D03*
X101600000Y-88900000D03*
D22*
X109093000Y-80645000D03*
X114427000Y-80645000D03*
X109093000Y-79375000D03*
X109093000Y-78105000D03*
X109093000Y-76835000D03*
X114427000Y-79375000D03*
X114427000Y-78105000D03*
X114427000Y-76835000D03*
D23*
X113893600Y-90881200D03*
X112623600Y-90881200D03*
X115163600Y-90881200D03*
X69850000Y-115570000D03*
X68580000Y-115570000D03*
X71120000Y-115570000D03*
D17*
X74396600Y-105206800D03*
D18*
X76936600Y-105206800D03*
X74396600Y-107746800D03*
X76936600Y-107746800D03*
X74396600Y-110286800D03*
X76936600Y-110286800D03*
X74396600Y-112826800D03*
X76936600Y-112826800D03*
D24*
X116713000Y-80645000D03*
X116713000Y-79375000D03*
X116713000Y-78105000D03*
X80213200Y-87350600D03*
X61163200Y-75768200D03*
X81838800Y-86233000D03*
X79146400Y-85191600D03*
X93497400Y-72059800D03*
D25*
X87690000Y-68270000D02*
X87701000Y-68270000D01*
X87701000Y-68270000D02*
X90170002Y-70739002D01*
X90170002Y-70739002D02*
X102489002Y-70739002D01*
X102489002Y-70739002D02*
X104140000Y-72390000D01*
X104140000Y-72390000D02*
X107696000Y-72390000D01*
X107696000Y-72390000D02*
X107950000Y-72136000D01*
X107950000Y-74930000D02*
X107950000Y-75819000D01*
X107950000Y-75819000D02*
X107696000Y-76073000D01*
X107696000Y-79629000D02*
X108712000Y-80645000D01*
X107696000Y-76073000D02*
X107696000Y-79629000D01*
X108712000Y-80645000D02*
X109093000Y-80645000D01*
X101600000Y-76200000D02*
X101600000Y-74930000D01*
X101600000Y-74930000D02*
X104140000Y-72390000D01*
X107950000Y-74930000D02*
X107950000Y-72136000D01*
X113030000Y-72136000D02*
X113030000Y-72009000D01*
D26*
X90230000Y-65730000D02*
X90230000Y-65846000D01*
X90230000Y-65846000D02*
X91503500Y-67119500D01*
X96079500Y-70040500D02*
X97850000Y-68270000D01*
X92519500Y-70040500D02*
X96079500Y-70040500D01*
X91503500Y-69024500D02*
X92519500Y-70040500D01*
X91503500Y-67119500D02*
X91503500Y-69024500D01*
X77530000Y-68270000D02*
X77530000Y-68139000D01*
X77530000Y-68139000D02*
X78676500Y-66992500D01*
X81347500Y-66992500D02*
X82610000Y-65730000D01*
X78676500Y-66992500D02*
X81347500Y-66992500D01*
X82610000Y-65730000D02*
X82610000Y-65782500D01*
X82610000Y-65782500D02*
X83820000Y-66992500D01*
X83820000Y-66992500D02*
X88646000Y-66992500D01*
X88646000Y-66992500D02*
X89908500Y-65730000D01*
X89908500Y-65730000D02*
X90230000Y-65730000D01*
X72450000Y-65730000D02*
X72524500Y-65730000D01*
X72524500Y-65730000D02*
X73787000Y-66992500D01*
X76252500Y-66992500D02*
X77530000Y-68270000D01*
X73787000Y-66992500D02*
X76252500Y-66992500D01*
X97850000Y-68270000D02*
X97850000Y-67948500D01*
X97850000Y-67948500D02*
X99123500Y-66675000D01*
X99123500Y-66675000D02*
X99123500Y-65151000D01*
X99123500Y-65151000D02*
X99822000Y-64452500D01*
X99822000Y-64452500D02*
X101652500Y-64452500D01*
X101652500Y-64452500D02*
X102930000Y-65730000D01*
X114427000Y-80645000D02*
X116713000Y-80645000D01*
X114427000Y-79375000D02*
X116713000Y-79375000D01*
X114427000Y-78105000D02*
X116713000Y-78105000D01*
D25*
X114427000Y-76835000D02*
X120015000Y-76835000D01*
X120015000Y-76835000D02*
X120650000Y-76200000D01*
D26*
X66040000Y-77343000D02*
X65760600Y-77622400D01*
X67370000Y-65730000D02*
X66629400Y-65730000D01*
X66375400Y-65730000D02*
X66090800Y-66014600D01*
X66090800Y-66014600D02*
X66090800Y-68656200D01*
X66090800Y-68656200D02*
X62052200Y-72694800D01*
X62052200Y-72694800D02*
X62052200Y-73914000D01*
X62052200Y-73914000D02*
X65760600Y-77622400D01*
X67370000Y-65730000D02*
X66375400Y-65730000D01*
X68580000Y-74803000D02*
X65760600Y-77622400D01*
X68580000Y-70510400D02*
X68580000Y-74803000D01*
X68630800Y-70459600D02*
X68580000Y-70510400D01*
X68630800Y-67030600D02*
X68630800Y-70459600D01*
X69910000Y-65751400D02*
X68630800Y-67030600D01*
X69910000Y-65730000D02*
X69910000Y-65751400D01*
X69850000Y-114236500D02*
X67183000Y-111569500D01*
X67183000Y-111569500D02*
X67183000Y-110363000D01*
X67183000Y-110363000D02*
X66040000Y-109220000D01*
X69850000Y-115570000D02*
X69850000Y-114236500D01*
X80213200Y-87350600D02*
X66040000Y-101523800D01*
X66040000Y-101523800D02*
X66040000Y-109220000D01*
D25*
X104140000Y-97790000D02*
X106680000Y-95250000D01*
X106680000Y-95250000D02*
X106680000Y-91440000D01*
X73660000Y-81026000D02*
X72771000Y-81915000D01*
X73660000Y-78740000D02*
X73660000Y-81026000D01*
X86360000Y-76200000D02*
X86360000Y-78740000D01*
X73660000Y-76885800D02*
X75920600Y-74625200D01*
X75920600Y-74625200D02*
X84785200Y-74625200D01*
X84785200Y-74625200D02*
X86360000Y-76200000D01*
X73660000Y-78740000D02*
X73660000Y-76885800D01*
X86360000Y-80060800D02*
X86690200Y-80391000D01*
X86690200Y-80391000D02*
X98602800Y-80391000D01*
X98602800Y-80391000D02*
X99898200Y-81686400D01*
X99898200Y-81686400D02*
X99898200Y-93548200D01*
X99898200Y-93548200D02*
X104140000Y-97790000D01*
X86360000Y-78740000D02*
X86360000Y-80060800D01*
X82575400Y-97790000D02*
X104140000Y-97790000D01*
X79121000Y-101244400D02*
X82575400Y-97790000D01*
X79121000Y-103225600D02*
X79121000Y-101244400D01*
X77139800Y-105206800D02*
X79121000Y-103225600D01*
X76936600Y-105206800D02*
X77139800Y-105206800D01*
D26*
X76581000Y-104851200D02*
X76936600Y-105206800D01*
X68503800Y-111760000D02*
X67995800Y-111252000D01*
X67995800Y-111252000D02*
X67995800Y-104800400D01*
X67995800Y-104800400D02*
X68961000Y-103835200D01*
X68961000Y-103835200D02*
X68961000Y-101015800D01*
X68961000Y-101015800D02*
X69316600Y-100660200D01*
X69316600Y-100660200D02*
X75869800Y-100660200D01*
X75869800Y-100660200D02*
X76581000Y-101371400D01*
X76581000Y-101371400D02*
X76581000Y-104851200D01*
X69850000Y-111760000D02*
X68503800Y-111760000D01*
X69850000Y-113030000D02*
X71120000Y-114300000D01*
X71120000Y-114300000D02*
X71120000Y-115570000D01*
X69850000Y-111760000D02*
X69850000Y-113030000D01*
X101600000Y-88900000D02*
X104140000Y-86360000D01*
X67310000Y-72390000D02*
X67716400Y-72390000D01*
X86055200Y-83870800D02*
X64465200Y-83870800D01*
X64465200Y-83870800D02*
X61163200Y-80568800D01*
X61163200Y-80568800D02*
X61163200Y-75768200D01*
X88011000Y-81915000D02*
X86055200Y-83870800D01*
X69850000Y-72390000D02*
X70307200Y-72390000D01*
X69850000Y-79730600D02*
X69850000Y-72390000D01*
X71501000Y-81381600D02*
X69850000Y-79730600D01*
X71501000Y-82804000D02*
X71501000Y-81381600D01*
X72059798Y-83362798D02*
X71501000Y-82804000D01*
X84048602Y-83362798D02*
X72059798Y-83362798D01*
X85471000Y-81940400D02*
X84048602Y-83362798D01*
X85471000Y-81915000D02*
X85471000Y-81940400D01*
X85394800Y-70154800D02*
X88900000Y-73660000D01*
X71628000Y-70154800D02*
X85394800Y-70154800D01*
X71170800Y-69697600D02*
X71628000Y-70154800D01*
X71170800Y-64795400D02*
X71170800Y-69697600D01*
X71551800Y-64414400D02*
X71170800Y-64795400D01*
X73126600Y-64414400D02*
X71551800Y-64414400D01*
X74442200Y-65730000D02*
X73126600Y-64414400D01*
X74990000Y-65730000D02*
X74442200Y-65730000D01*
X100390000Y-68270000D02*
X100390000Y-70037000D01*
X108267500Y-70167500D02*
X110490000Y-72136000D01*
X100520500Y-70167500D02*
X108267500Y-70167500D01*
X100390000Y-70037000D02*
X100520500Y-70167500D01*
X110490000Y-72136000D02*
X110490000Y-72199500D01*
X110490000Y-72199500D02*
X111760000Y-73723500D01*
X111760000Y-73723500D02*
X111760000Y-75946000D01*
X111760000Y-75946000D02*
X110871000Y-76835000D01*
X110871000Y-76835000D02*
X109093000Y-76835000D01*
X100390000Y-65730000D02*
X100390000Y-65846000D01*
X100390000Y-65846000D02*
X101536500Y-66992500D01*
X113411000Y-70231000D02*
X115570000Y-72136000D01*
X109791500Y-70231000D02*
X113411000Y-70231000D01*
X109283500Y-69723000D02*
X109791500Y-70231000D01*
X109283500Y-67691000D02*
X109283500Y-69723000D01*
X108585000Y-66992500D02*
X109283500Y-67691000D01*
X101536500Y-66992500D02*
X108585000Y-66992500D01*
X113030000Y-74930000D02*
X113030000Y-76327000D01*
X111252000Y-78105000D02*
X109093000Y-78105000D01*
X113030000Y-76327000D02*
X111252000Y-78105000D01*
X115570000Y-72136000D02*
X113030000Y-74930000D01*
X98171000Y-83362800D02*
X95300800Y-86233000D01*
X95300800Y-86233000D02*
X81838800Y-86233000D01*
X98171000Y-81915000D02*
X98171000Y-83362800D01*
X92329000Y-85217000D02*
X95631000Y-81915000D01*
X79171800Y-85217000D02*
X92329000Y-85217000D01*
X79146400Y-85191600D02*
X79171800Y-85217000D01*
X93497400Y-72059800D02*
X94132400Y-72694800D01*
X94132400Y-72694800D02*
X94132400Y-73507600D01*
X94132400Y-73507600D02*
X91440000Y-76200000D01*
X104140000Y-80010000D02*
X104140000Y-80772000D01*
X104140000Y-80772000D02*
X107442000Y-84074000D01*
X110299500Y-79375000D02*
X109093000Y-79375000D01*
X111760000Y-80835500D02*
X110299500Y-79375000D01*
X111760000Y-83312000D02*
X111760000Y-80835500D01*
X110998000Y-84074000D02*
X111760000Y-83312000D01*
X107442000Y-84074000D02*
X110998000Y-84074000D01*
X75006200Y-102235000D02*
X75311000Y-102235000D01*
X72313800Y-107746800D02*
X71932800Y-107365800D01*
X71932800Y-107365800D02*
X71932800Y-105308400D01*
X71932800Y-105308400D02*
X75006200Y-102235000D01*
X74396600Y-107746800D02*
X72313800Y-107746800D01*
X88849200Y-111556800D02*
X98171000Y-102235000D01*
X75615800Y-111556800D02*
X88849200Y-111556800D01*
X74396600Y-110337600D02*
X75615800Y-111556800D01*
X74396600Y-110286800D02*
X74396600Y-110337600D01*
X85039200Y-110286800D02*
X93091000Y-102235000D01*
X76936600Y-110286800D02*
X85039200Y-110286800D01*
X74396600Y-112826800D02*
X74396600Y-112750600D01*
X72669400Y-110972600D02*
X72669400Y-109677200D01*
X72669400Y-109677200D02*
X73329800Y-109016800D01*
X73329800Y-109016800D02*
X78308200Y-109016800D01*
X78308200Y-109016800D02*
X82118200Y-105206800D01*
X82118200Y-105206800D02*
X85369400Y-105206800D01*
X85369400Y-105206800D02*
X86741000Y-103835200D01*
X86741000Y-103835200D02*
X86741000Y-101269800D01*
X86741000Y-101269800D02*
X87223600Y-100787200D01*
X87223600Y-100787200D02*
X94183200Y-100787200D01*
X94183200Y-100787200D02*
X95631000Y-102235000D01*
X74396600Y-112699800D02*
X72669400Y-110972600D01*
X74396600Y-112826800D02*
X74396600Y-112699800D01*
X76936600Y-114579400D02*
X76581000Y-114935000D01*
X76581000Y-114935000D02*
X73126600Y-114935000D01*
X73126600Y-114935000D02*
X71247000Y-113055400D01*
X71247000Y-113055400D02*
X71247000Y-103759000D01*
X71247000Y-103759000D02*
X72771000Y-102235000D01*
X76936600Y-112826800D02*
X76936600Y-114579400D01*
X106680000Y-88900000D02*
X107111800Y-88900000D01*
X113893600Y-89408000D02*
X113385600Y-88900000D01*
X113385600Y-88900000D02*
X106680000Y-88900000D01*
X113893600Y-90881200D02*
X113893600Y-89408000D01*
M02*
