M48
INCH,TZ
T1C0.020
T2C0.024
T3C0.032
T4C0.035
T5C0.036
T6C0.040
T7C0.108
%
G90
G05
T1
X24080Y-29830
X31160Y-33540
X31580Y-34390
X32220Y-33950
X36810Y-28370
X45950Y-30750
X45950Y-31250
X45950Y-31750
T2
X27000Y-45500
X27500Y-45500
X28000Y-45500
X44340Y-35780
X44840Y-35780
X45340Y-35780
T3
X24890Y-30560
X25890Y-30560
X26000Y-43000
X26000Y-44000
X27500Y-43000
X27500Y-44000
X40000Y-28500
X40000Y-30000
X40000Y-35000
X40000Y-36000
X41000Y-28500
X41000Y-30000
X41000Y-33000
X41000Y-34000
X41000Y-37500
X41000Y-38500
X42000Y-35000
X42000Y-36000
X42500Y-28400
X43500Y-28400
X44310Y-34080
X44500Y-28400
X45310Y-34080
X45500Y-28400
X47500Y-29000
X47500Y-30000
T4
X26650Y-32250
X26650Y-40250
X27650Y-32250
X27650Y-40250
X28650Y-32250
X28650Y-40250
X29650Y-32250
X29650Y-40250
X30650Y-32250
X30650Y-40250
X31650Y-32250
X31650Y-40250
X32650Y-32250
X33650Y-32250
X33650Y-40250
X34650Y-32250
X34650Y-40250
X35650Y-32250
X35650Y-40250
X36650Y-40250
X37650Y-32250
X37650Y-40250
X38650Y-32250
X38650Y-40250
T5
X32650Y-40250
X36650Y-32250
T6
X25500Y-28500
X26500Y-28500
X26524Y-25878
X26524Y-26878
X27500Y-28500
X27524Y-25878
X27524Y-26878
X28000Y-31000
X28500Y-28500
X28524Y-25878
X28524Y-26878
X29000Y-31000
X29290Y-41420
X29290Y-42420
X29290Y-43420
X29290Y-44420
X29500Y-28500
X29524Y-25878
X29524Y-26878
X30000Y-31000
X30290Y-41420
X30290Y-42420
X30290Y-43420
X30290Y-44420
X30500Y-28500
X30524Y-25878
X30524Y-26878
X31000Y-31000
X31500Y-28500
X31524Y-25878
X31524Y-26878
X32500Y-28500
X32524Y-25878
X32524Y-26878
X33000Y-30000
X33000Y-31000
X33524Y-25878
X33524Y-26878
X34000Y-30000
X34000Y-31000
X34524Y-25878
X34524Y-26878
X35000Y-29000
X35000Y-30000
X35000Y-31000
X35524Y-25878
X35524Y-26878
X36000Y-29000
X36000Y-30000
X36000Y-31000
X36524Y-25878
X36524Y-26878
X37524Y-25878
X37524Y-26878
X38524Y-25878
X38524Y-26878
X39524Y-25878
X39524Y-26878
X40000Y-31500
X40524Y-25878
X40524Y-26878
X41000Y-31500
X41524Y-25878
X41524Y-26878
X42500Y-29500
X42500Y-32500
X42524Y-25878
X42524Y-26878
X43500Y-29500
X43500Y-32500
X43524Y-25878
X43524Y-26878
X44500Y-29500
X44500Y-32500
X44524Y-25878
X44524Y-26878
X45500Y-29500
X45500Y-32500
X45524Y-25878
X45524Y-26878
T7
X24606Y-26378
X24606Y-45866
X47441Y-26378
X47441Y-45866
T0
M30
