G04 #@! TF.FileFunction,Copper,L2,Bot,Signal*
%FSLAX46Y46*%
G04 Gerber Fmt 4.6, Leading zero omitted, Abs format (unit mm)*
G04 Created by KiCad (PCBNEW (2014-11-22 BZR 5299)-product) date Sun 01 Mar 2015 05:03:53 PM EST*
%MOMM*%
G01*
G04 APERTURE LIST*
%ADD10C,0.150000*%
%ADD11C,1.727200*%
%ADD12O,1.727200X2.032000*%
%ADD13C,6.200000*%
%ADD14C,1.397000*%
%ADD15R,1.397000X1.397000*%
%ADD16C,1.676400*%
%ADD17R,1.727200X1.727200*%
%ADD18O,1.727200X1.727200*%
%ADD19R,1.727200X2.032000*%
%ADD20R,2.032000X2.032000*%
%ADD21O,2.032000X2.032000*%
%ADD22O,0.899160X1.501140*%
%ADD23C,1.016000*%
%ADD24C,0.381000*%
%ADD25C,0.254000*%
%ADD26C,0.203200*%
G04 APERTURE END LIST*
D10*
D11*
X67691000Y-102235000D03*
X70231000Y-102235000D03*
X72771000Y-102235000D03*
X75311000Y-102235000D03*
X77851000Y-102235000D03*
X80391000Y-102235000D03*
X82931000Y-102235000D03*
X85471000Y-102235000D03*
X88011000Y-102235000D03*
X90551000Y-102235000D03*
X93091000Y-102235000D03*
X95631000Y-102235000D03*
X98171000Y-102235000D03*
X98171000Y-81915000D03*
X95631000Y-81915000D03*
X93091000Y-81915000D03*
X90551000Y-81915000D03*
X88011000Y-81915000D03*
X85471000Y-81915000D03*
X82931000Y-81915000D03*
X80391000Y-81915000D03*
X77851000Y-81915000D03*
X75311000Y-81915000D03*
X72771000Y-81915000D03*
X70231000Y-81915000D03*
X67691000Y-81915000D03*
D12*
X107950000Y-82550000D03*
X110490000Y-82550000D03*
X113030000Y-82550000D03*
X115570000Y-82550000D03*
X115570000Y-74930000D03*
X113030000Y-74930000D03*
X110490000Y-74930000D03*
X107950000Y-74930000D03*
D13*
X62500000Y-67000000D03*
X62500000Y-116500000D03*
X120500000Y-116500000D03*
X120500000Y-67000000D03*
D14*
X104140000Y-72390000D03*
X101600000Y-72390000D03*
X69850000Y-111760000D03*
X69850000Y-109220000D03*
D15*
X120650000Y-73660000D03*
D14*
X120650000Y-76200000D03*
D15*
X65760600Y-77622400D03*
D14*
X63220600Y-77622400D03*
X66040000Y-109220000D03*
X66040000Y-111760000D03*
D15*
X104140000Y-97790000D03*
D14*
X104140000Y-95250000D03*
X112547400Y-86563200D03*
X115087400Y-86563200D03*
D16*
X104140000Y-86360000D03*
X104140000Y-83820000D03*
D17*
X67370000Y-68270000D03*
D18*
X67370000Y-65730000D03*
X69910000Y-68270000D03*
X69910000Y-65730000D03*
X72450000Y-68270000D03*
X72450000Y-65730000D03*
X74990000Y-68270000D03*
X74990000Y-65730000D03*
X77530000Y-68270000D03*
X77530000Y-65730000D03*
X80070000Y-68270000D03*
X80070000Y-65730000D03*
X82610000Y-68270000D03*
X82610000Y-65730000D03*
X85150000Y-68270000D03*
X85150000Y-65730000D03*
X87690000Y-68270000D03*
X87690000Y-65730000D03*
X90230000Y-68270000D03*
X90230000Y-65730000D03*
X92770000Y-68270000D03*
X92770000Y-65730000D03*
X95310000Y-68270000D03*
X95310000Y-65730000D03*
X97850000Y-68270000D03*
X97850000Y-65730000D03*
X100390000Y-68270000D03*
X100390000Y-65730000D03*
X102930000Y-68270000D03*
X102930000Y-65730000D03*
X105470000Y-68270000D03*
X105470000Y-65730000D03*
X108010000Y-68270000D03*
X108010000Y-65730000D03*
X110550000Y-68270000D03*
X110550000Y-65730000D03*
X113090000Y-68270000D03*
X113090000Y-65730000D03*
X115630000Y-68270000D03*
X115630000Y-65730000D03*
D19*
X78740000Y-78740000D03*
D12*
X76200000Y-78740000D03*
X73660000Y-78740000D03*
X71120000Y-78740000D03*
D19*
X91440000Y-78740000D03*
D12*
X88900000Y-78740000D03*
X86360000Y-78740000D03*
X83820000Y-78740000D03*
D20*
X88900000Y-73660000D03*
D21*
X91440000Y-73660000D03*
D19*
X91440000Y-76200000D03*
D12*
X88900000Y-76200000D03*
X86360000Y-76200000D03*
X83820000Y-76200000D03*
D19*
X82550000Y-72390000D03*
D12*
X80010000Y-72390000D03*
X77470000Y-72390000D03*
X74930000Y-72390000D03*
X72390000Y-72390000D03*
X69850000Y-72390000D03*
X67310000Y-72390000D03*
X64770000Y-72390000D03*
D20*
X101600000Y-80010000D03*
D21*
X104140000Y-80010000D03*
D14*
X113030000Y-72136000D03*
X115570000Y-72136000D03*
X107950000Y-72136000D03*
X110490000Y-72136000D03*
X101600000Y-76200000D03*
X104140000Y-76200000D03*
X106680000Y-91440000D03*
X106680000Y-88900000D03*
X101600000Y-91440000D03*
X101600000Y-88900000D03*
D22*
X113893600Y-90881200D03*
X112623600Y-90881200D03*
X115163600Y-90881200D03*
X69850000Y-115570000D03*
X68580000Y-115570000D03*
X71120000Y-115570000D03*
D17*
X74396600Y-105206800D03*
D18*
X76936600Y-105206800D03*
X74396600Y-107746800D03*
X76936600Y-107746800D03*
X74396600Y-110286800D03*
X76936600Y-110286800D03*
X74396600Y-112826800D03*
X76936600Y-112826800D03*
D23*
X116713000Y-80645000D03*
X116713000Y-79375000D03*
X116713000Y-78105000D03*
X80213200Y-87350600D03*
X61163200Y-75768200D03*
X81838800Y-86233000D03*
X79146400Y-85191600D03*
X93497400Y-72059800D03*
D24*
X107950000Y-72136000D02*
X109410500Y-70929500D01*
X111569500Y-70929500D02*
X113030000Y-72136000D01*
X109410500Y-70929500D02*
X111569500Y-70929500D01*
X113030000Y-72136000D02*
X114490500Y-70929500D01*
X117919500Y-70929500D02*
X120650000Y-73660000D01*
X114490500Y-70929500D02*
X117919500Y-70929500D01*
D25*
X64770000Y-72390000D02*
X65278000Y-72390000D01*
X65278000Y-72390000D02*
X67818000Y-69850000D01*
X67818000Y-69850000D02*
X68389500Y-69850000D01*
X68389500Y-69850000D02*
X68643500Y-69596000D01*
X68643500Y-69596000D02*
X68643500Y-67500500D01*
X68643500Y-67500500D02*
X69151500Y-66992500D01*
X69151500Y-66992500D02*
X71187500Y-66992500D01*
X71187500Y-66992500D02*
X72450000Y-65730000D01*
D24*
X65938400Y-77622400D02*
X70231000Y-81915000D01*
X65760600Y-77622400D02*
X65938400Y-77622400D01*
D25*
X66040000Y-109220000D02*
X66344800Y-109220000D01*
X80391000Y-87172800D02*
X80213200Y-87350600D01*
X80391000Y-81915000D02*
X80391000Y-87172800D01*
D24*
X107670600Y-91440000D02*
X112547400Y-86563200D01*
X106680000Y-91440000D02*
X107670600Y-91440000D01*
X112547400Y-90805000D02*
X112623600Y-90881200D01*
X112547400Y-86563200D02*
X112547400Y-90805000D01*
D25*
X69910000Y-68270000D02*
X69910000Y-69790000D01*
X69910000Y-69790000D02*
X67310000Y-72390000D01*
X61163200Y-75768200D02*
X62534800Y-74396600D01*
X62534800Y-74396600D02*
X65303400Y-74396600D01*
X65303400Y-74396600D02*
X67310000Y-72390000D01*
X69850000Y-72390000D02*
X69850000Y-70870000D01*
X69850000Y-70870000D02*
X72450000Y-68270000D01*
X91440000Y-73660000D02*
X93370400Y-73660000D01*
X79302800Y-63957200D02*
X77530000Y-65730000D01*
X97891600Y-63957200D02*
X79302800Y-63957200D01*
X99110800Y-65176400D02*
X97891600Y-63957200D01*
X99110800Y-68961000D02*
X99110800Y-65176400D01*
X97815400Y-70256400D02*
X99110800Y-68961000D01*
X96774000Y-70256400D02*
X97815400Y-70256400D01*
X93370400Y-73660000D02*
X96774000Y-70256400D01*
X110490000Y-72136000D02*
X111125000Y-72136000D01*
X111125000Y-72136000D02*
X112331500Y-73342500D01*
X113982500Y-73342500D02*
X115570000Y-74930000D01*
X112331500Y-73342500D02*
X113982500Y-73342500D01*
X100390000Y-68270000D02*
X101163000Y-68270000D01*
X100390000Y-65730000D02*
X100390000Y-65726000D01*
X81838800Y-86233000D02*
X81661000Y-86055200D01*
X81661000Y-86055200D02*
X81661000Y-80289400D01*
X81661000Y-80289400D02*
X80111600Y-78740000D01*
X80111600Y-78740000D02*
X78740000Y-78740000D01*
X79146400Y-81178400D02*
X79146400Y-85191600D01*
X78460600Y-80492600D02*
X79146400Y-81178400D01*
X77495400Y-80492600D02*
X78460600Y-80492600D01*
X76200000Y-79197200D02*
X77495400Y-80492600D01*
X76200000Y-78740000D02*
X76200000Y-79197200D01*
X91440000Y-80264000D02*
X93091000Y-81915000D01*
X91440000Y-78740000D02*
X91440000Y-80264000D01*
X88900000Y-80264000D02*
X90551000Y-81915000D01*
X88900000Y-78740000D02*
X88900000Y-80264000D01*
X74015600Y-80619600D02*
X72923400Y-80619600D01*
X72923400Y-80619600D02*
X72390000Y-80086200D01*
X72390000Y-80086200D02*
X72390000Y-77139800D01*
X72390000Y-77139800D02*
X75717400Y-73812400D01*
X75717400Y-73812400D02*
X84023200Y-73812400D01*
X84023200Y-73812400D02*
X84886800Y-72948800D01*
X84886800Y-72948800D02*
X85750400Y-72948800D01*
X85750400Y-72948800D02*
X86639400Y-72059800D01*
X86639400Y-72059800D02*
X93497400Y-72059800D01*
X75311000Y-81915000D02*
X74015600Y-80619600D01*
X88671400Y-76200000D02*
X88900000Y-76200000D01*
X86868000Y-74396600D02*
X88671400Y-76200000D01*
X76809600Y-74396600D02*
X86868000Y-74396600D01*
X74930000Y-76276200D02*
X76809600Y-74396600D01*
X74930000Y-79908400D02*
X74930000Y-76276200D01*
X75336400Y-80314800D02*
X74930000Y-79908400D01*
X75768200Y-80314800D02*
X75336400Y-80314800D01*
X77368400Y-81915000D02*
X75768200Y-80314800D01*
X77851000Y-81915000D02*
X77368400Y-81915000D01*
X104140000Y-76200000D02*
X104203500Y-76200000D01*
X104203500Y-76200000D02*
X106997500Y-73406000D01*
X108966000Y-73406000D02*
X110490000Y-74930000D01*
X106997500Y-73406000D02*
X108966000Y-73406000D01*
X104140000Y-76200000D02*
X104140000Y-80010000D01*
X78790800Y-107746800D02*
X79273400Y-107264200D01*
X79273400Y-107264200D02*
X79273400Y-103657400D01*
X79273400Y-103657400D02*
X77851000Y-102235000D01*
X76936600Y-107746800D02*
X78790800Y-107746800D01*
X104749600Y-88900000D02*
X103352600Y-90297000D01*
X103352600Y-90297000D02*
X92329000Y-90297000D01*
X92329000Y-90297000D02*
X80391000Y-102235000D01*
X106680000Y-88900000D02*
X104749600Y-88900000D01*
X82931000Y-100609400D02*
X92100400Y-91440000D01*
X92100400Y-91440000D02*
X101600000Y-91440000D01*
X82931000Y-102235000D02*
X82931000Y-100609400D01*
X77470000Y-72390000D02*
X78041500Y-72390000D01*
X78041500Y-72390000D02*
X80010002Y-70421498D01*
X80010002Y-70421498D02*
X89725500Y-70421498D01*
X89725500Y-70421498D02*
X90230000Y-69916998D01*
X90230000Y-69916998D02*
X90230000Y-68270000D01*
X92770000Y-68270000D02*
X92770000Y-69599500D01*
X81470500Y-70929500D02*
X80010000Y-72390000D01*
X91440000Y-70929500D02*
X81470500Y-70929500D01*
X92770000Y-69599500D02*
X91440000Y-70929500D01*
X82550000Y-72390000D02*
X84937600Y-72390000D01*
X92053600Y-71526400D02*
X95310000Y-68270000D01*
X85801200Y-71526400D02*
X92053600Y-71526400D01*
X84937600Y-72390000D02*
X85801200Y-71526400D01*
X95310000Y-68270000D02*
X95321000Y-68270000D01*
X82740500Y-72199500D02*
X82550000Y-72390000D01*
X95310000Y-65730000D02*
X95310000Y-65693602D01*
X95310000Y-65693602D02*
X94081600Y-64465202D01*
X94081600Y-64465202D02*
X81940398Y-64465202D01*
X81940398Y-64465202D02*
X81330800Y-65074800D01*
X81330800Y-65074800D02*
X81330800Y-66446400D01*
X81330800Y-66446400D02*
X80772000Y-67005200D01*
X80772000Y-67005200D02*
X76555600Y-67005200D01*
X76555600Y-67005200D02*
X76250800Y-67310000D01*
X76250800Y-67310000D02*
X76250800Y-69189600D01*
X76250800Y-69189600D02*
X74574400Y-70866000D01*
X74574400Y-70866000D02*
X73914000Y-70866000D01*
X73914000Y-70866000D02*
X72390000Y-72390000D01*
X97850000Y-65730000D02*
X97850000Y-65751400D01*
X97850000Y-65751400D02*
X96621600Y-66979800D01*
X96621600Y-66979800D02*
X89433400Y-66979800D01*
X89433400Y-66979800D02*
X88976200Y-67437000D01*
X88976200Y-67437000D02*
X88976200Y-68872096D01*
X88976200Y-68872096D02*
X87998296Y-69850000D01*
X87998296Y-69850000D02*
X77470000Y-69850000D01*
X77470000Y-69850000D02*
X74930000Y-72390000D01*
D26*
G36*
X79536153Y-69367400D02*
X78126550Y-69367400D01*
X78267749Y-69303753D01*
X78607191Y-68942739D01*
X78767381Y-68555990D01*
X78695013Y-68358900D01*
X77618900Y-68358900D01*
X77618900Y-68378900D01*
X77441100Y-68378900D01*
X77441100Y-68358900D01*
X77421100Y-68358900D01*
X77421100Y-68181100D01*
X77441100Y-68181100D01*
X77441100Y-68161100D01*
X77618900Y-68161100D01*
X77618900Y-68181100D01*
X78695013Y-68181100D01*
X78767381Y-67984010D01*
X78607191Y-67597261D01*
X78504270Y-67487800D01*
X79130618Y-67487800D01*
X78919720Y-67803432D01*
X78826914Y-68270000D01*
X78919720Y-68736568D01*
X79184009Y-69132105D01*
X79536153Y-69367400D01*
X79536153Y-69367400D01*
G37*
X79536153Y-69367400D02*
X78126550Y-69367400D01*
X78267749Y-69303753D01*
X78607191Y-68942739D01*
X78767381Y-68555990D01*
X78695013Y-68358900D01*
X77618900Y-68358900D01*
X77618900Y-68378900D01*
X77441100Y-68378900D01*
X77441100Y-68358900D01*
X77421100Y-68358900D01*
X77421100Y-68181100D01*
X77441100Y-68181100D01*
X77441100Y-68161100D01*
X77618900Y-68161100D01*
X77618900Y-68181100D01*
X78695013Y-68181100D01*
X78767381Y-67984010D01*
X78607191Y-67597261D01*
X78504270Y-67487800D01*
X79130618Y-67487800D01*
X78919720Y-67803432D01*
X78826914Y-68270000D01*
X78919720Y-68736568D01*
X79184009Y-69132105D01*
X79536153Y-69367400D01*
G36*
X91830616Y-64947802D02*
X91619720Y-65263432D01*
X91526914Y-65730000D01*
X91619720Y-66196568D01*
X91820595Y-66497200D01*
X91218374Y-66497200D01*
X91307191Y-66402739D01*
X91467381Y-66015990D01*
X91395013Y-65818900D01*
X90318900Y-65818900D01*
X90318900Y-65838900D01*
X90141100Y-65838900D01*
X90141100Y-65818900D01*
X89064987Y-65818900D01*
X88992619Y-66015990D01*
X89152809Y-66402739D01*
X89271841Y-66529336D01*
X89248717Y-66533936D01*
X89092150Y-66638550D01*
X89092147Y-66638553D01*
X88634950Y-67095750D01*
X88530336Y-67252317D01*
X88508376Y-67362716D01*
X88180454Y-67143606D01*
X87713886Y-67050800D01*
X87666114Y-67050800D01*
X87199546Y-67143606D01*
X86804009Y-67407895D01*
X86539720Y-67803432D01*
X86446914Y-68270000D01*
X86539720Y-68736568D01*
X86804009Y-69132105D01*
X87156153Y-69367400D01*
X85683846Y-69367400D01*
X86035991Y-69132105D01*
X86300280Y-68736568D01*
X86393086Y-68270000D01*
X86300280Y-67803432D01*
X86035991Y-67407895D01*
X85640454Y-67143606D01*
X85173886Y-67050800D01*
X85126114Y-67050800D01*
X84659546Y-67143606D01*
X84264009Y-67407895D01*
X83999720Y-67803432D01*
X83906914Y-68270000D01*
X83999720Y-68736568D01*
X84264009Y-69132105D01*
X84616153Y-69367400D01*
X83143846Y-69367400D01*
X83495991Y-69132105D01*
X83760280Y-68736568D01*
X83853086Y-68270000D01*
X83847381Y-68241318D01*
X83847381Y-66015990D01*
X83775013Y-65818900D01*
X82698900Y-65818900D01*
X82698900Y-66895293D01*
X82895991Y-66967388D01*
X83347749Y-66763753D01*
X83687191Y-66402739D01*
X83847381Y-66015990D01*
X83847381Y-68241318D01*
X83760280Y-67803432D01*
X83495991Y-67407895D01*
X83100454Y-67143606D01*
X82633886Y-67050800D01*
X82586114Y-67050800D01*
X82119546Y-67143606D01*
X81724009Y-67407895D01*
X81459720Y-67803432D01*
X81366914Y-68270000D01*
X81459720Y-68736568D01*
X81724009Y-69132105D01*
X82076153Y-69367400D01*
X80603846Y-69367400D01*
X80955991Y-69132105D01*
X81220280Y-68736568D01*
X81313086Y-68270000D01*
X81220280Y-67803432D01*
X80976146Y-67438059D01*
X81113250Y-67346450D01*
X81672046Y-66787652D01*
X81672050Y-66787650D01*
X81672050Y-66787649D01*
X81764552Y-66649209D01*
X81872251Y-66763753D01*
X82324009Y-66967388D01*
X82521100Y-66895293D01*
X82521100Y-65818900D01*
X82501100Y-65818900D01*
X82501100Y-65641100D01*
X82521100Y-65641100D01*
X82521100Y-65621100D01*
X82698900Y-65621100D01*
X82698900Y-65641100D01*
X83775013Y-65641100D01*
X83847381Y-65444010D01*
X83687191Y-65057261D01*
X83584272Y-64947802D01*
X84210616Y-64947802D01*
X83999720Y-65263432D01*
X83906914Y-65730000D01*
X83999720Y-66196568D01*
X84264009Y-66592105D01*
X84659546Y-66856394D01*
X85126114Y-66949200D01*
X85173886Y-66949200D01*
X85640454Y-66856394D01*
X86035991Y-66592105D01*
X86300280Y-66196568D01*
X86393086Y-65730000D01*
X86300280Y-65263432D01*
X86089383Y-64947802D01*
X86750616Y-64947802D01*
X86539720Y-65263432D01*
X86446914Y-65730000D01*
X86539720Y-66196568D01*
X86804009Y-66592105D01*
X87199546Y-66856394D01*
X87666114Y-66949200D01*
X87713886Y-66949200D01*
X88180454Y-66856394D01*
X88575991Y-66592105D01*
X88840280Y-66196568D01*
X88933086Y-65730000D01*
X88840280Y-65263432D01*
X88629383Y-64947802D01*
X89255727Y-64947802D01*
X89152809Y-65057261D01*
X88992619Y-65444010D01*
X89064987Y-65641100D01*
X90141100Y-65641100D01*
X90141100Y-65621100D01*
X90318900Y-65621100D01*
X90318900Y-65641100D01*
X91395013Y-65641100D01*
X91467381Y-65444010D01*
X91307191Y-65057261D01*
X91204272Y-64947802D01*
X91830616Y-64947802D01*
X91830616Y-64947802D01*
G37*
X91830616Y-64947802D02*
X91619720Y-65263432D01*
X91526914Y-65730000D01*
X91619720Y-66196568D01*
X91820595Y-66497200D01*
X91218374Y-66497200D01*
X91307191Y-66402739D01*
X91467381Y-66015990D01*
X91395013Y-65818900D01*
X90318900Y-65818900D01*
X90318900Y-65838900D01*
X90141100Y-65838900D01*
X90141100Y-65818900D01*
X89064987Y-65818900D01*
X88992619Y-66015990D01*
X89152809Y-66402739D01*
X89271841Y-66529336D01*
X89248717Y-66533936D01*
X89092150Y-66638550D01*
X89092147Y-66638553D01*
X88634950Y-67095750D01*
X88530336Y-67252317D01*
X88508376Y-67362716D01*
X88180454Y-67143606D01*
X87713886Y-67050800D01*
X87666114Y-67050800D01*
X87199546Y-67143606D01*
X86804009Y-67407895D01*
X86539720Y-67803432D01*
X86446914Y-68270000D01*
X86539720Y-68736568D01*
X86804009Y-69132105D01*
X87156153Y-69367400D01*
X85683846Y-69367400D01*
X86035991Y-69132105D01*
X86300280Y-68736568D01*
X86393086Y-68270000D01*
X86300280Y-67803432D01*
X86035991Y-67407895D01*
X85640454Y-67143606D01*
X85173886Y-67050800D01*
X85126114Y-67050800D01*
X84659546Y-67143606D01*
X84264009Y-67407895D01*
X83999720Y-67803432D01*
X83906914Y-68270000D01*
X83999720Y-68736568D01*
X84264009Y-69132105D01*
X84616153Y-69367400D01*
X83143846Y-69367400D01*
X83495991Y-69132105D01*
X83760280Y-68736568D01*
X83853086Y-68270000D01*
X83847381Y-68241318D01*
X83847381Y-66015990D01*
X83775013Y-65818900D01*
X82698900Y-65818900D01*
X82698900Y-66895293D01*
X82895991Y-66967388D01*
X83347749Y-66763753D01*
X83687191Y-66402739D01*
X83847381Y-66015990D01*
X83847381Y-68241318D01*
X83760280Y-67803432D01*
X83495991Y-67407895D01*
X83100454Y-67143606D01*
X82633886Y-67050800D01*
X82586114Y-67050800D01*
X82119546Y-67143606D01*
X81724009Y-67407895D01*
X81459720Y-67803432D01*
X81366914Y-68270000D01*
X81459720Y-68736568D01*
X81724009Y-69132105D01*
X82076153Y-69367400D01*
X80603846Y-69367400D01*
X80955991Y-69132105D01*
X81220280Y-68736568D01*
X81313086Y-68270000D01*
X81220280Y-67803432D01*
X80976146Y-67438059D01*
X81113250Y-67346450D01*
X81672046Y-66787652D01*
X81672050Y-66787650D01*
X81672050Y-66787649D01*
X81764552Y-66649209D01*
X81872251Y-66763753D01*
X82324009Y-66967388D01*
X82521100Y-66895293D01*
X82521100Y-65818900D01*
X82501100Y-65818900D01*
X82501100Y-65641100D01*
X82521100Y-65641100D01*
X82521100Y-65621100D01*
X82698900Y-65621100D01*
X82698900Y-65641100D01*
X83775013Y-65641100D01*
X83847381Y-65444010D01*
X83687191Y-65057261D01*
X83584272Y-64947802D01*
X84210616Y-64947802D01*
X83999720Y-65263432D01*
X83906914Y-65730000D01*
X83999720Y-66196568D01*
X84264009Y-66592105D01*
X84659546Y-66856394D01*
X85126114Y-66949200D01*
X85173886Y-66949200D01*
X85640454Y-66856394D01*
X86035991Y-66592105D01*
X86300280Y-66196568D01*
X86393086Y-65730000D01*
X86300280Y-65263432D01*
X86089383Y-64947802D01*
X86750616Y-64947802D01*
X86539720Y-65263432D01*
X86446914Y-65730000D01*
X86539720Y-66196568D01*
X86804009Y-66592105D01*
X87199546Y-66856394D01*
X87666114Y-66949200D01*
X87713886Y-66949200D01*
X88180454Y-66856394D01*
X88575991Y-66592105D01*
X88840280Y-66196568D01*
X88933086Y-65730000D01*
X88840280Y-65263432D01*
X88629383Y-64947802D01*
X89255727Y-64947802D01*
X89152809Y-65057261D01*
X88992619Y-65444010D01*
X89064987Y-65641100D01*
X90141100Y-65641100D01*
X90141100Y-65621100D01*
X90318900Y-65621100D01*
X90318900Y-65641100D01*
X91395013Y-65641100D01*
X91467381Y-65444010D01*
X91307191Y-65057261D01*
X91204272Y-64947802D01*
X91830616Y-64947802D01*
G36*
X98628200Y-67279268D02*
X98587749Y-67236247D01*
X98135991Y-67032612D01*
X97938900Y-67104707D01*
X97938900Y-68181100D01*
X97958900Y-68181100D01*
X97958900Y-68358900D01*
X97938900Y-68358900D01*
X97938900Y-68378900D01*
X97761100Y-68378900D01*
X97761100Y-68358900D01*
X97761100Y-68181100D01*
X97761100Y-67104707D01*
X97564009Y-67032612D01*
X97112251Y-67236247D01*
X96772809Y-67597261D01*
X96612619Y-67984010D01*
X96684987Y-68181100D01*
X97761100Y-68181100D01*
X97761100Y-68358900D01*
X96684987Y-68358900D01*
X96612619Y-68555990D01*
X96772809Y-68942739D01*
X97112251Y-69303753D01*
X97564009Y-69507388D01*
X97761098Y-69435293D01*
X97761098Y-69540000D01*
X97761100Y-69540000D01*
X97849299Y-69540000D01*
X97761100Y-69628199D01*
X97615500Y-69773800D01*
X96774000Y-69773800D01*
X96589317Y-69810536D01*
X96432750Y-69915150D01*
X94361064Y-71986835D01*
X94361150Y-71888773D01*
X94229951Y-71571249D01*
X93987229Y-71328102D01*
X93669934Y-71196350D01*
X93326373Y-71196050D01*
X93008849Y-71327249D01*
X92765702Y-71569971D01*
X92762700Y-71577200D01*
X92685300Y-71577200D01*
X94858381Y-69404118D01*
X95286114Y-69489200D01*
X95333886Y-69489200D01*
X95800454Y-69396394D01*
X96195991Y-69132105D01*
X96460280Y-68736568D01*
X96553086Y-68270000D01*
X96460280Y-67803432D01*
X96232410Y-67462400D01*
X96621600Y-67462400D01*
X96806283Y-67425664D01*
X96962850Y-67321050D01*
X97416230Y-66867669D01*
X97826114Y-66949200D01*
X97873886Y-66949200D01*
X98340454Y-66856394D01*
X98628200Y-66664128D01*
X98628200Y-67279268D01*
X98628200Y-67279268D01*
G37*
X98628200Y-67279268D02*
X98587749Y-67236247D01*
X98135991Y-67032612D01*
X97938900Y-67104707D01*
X97938900Y-68181100D01*
X97958900Y-68181100D01*
X97958900Y-68358900D01*
X97938900Y-68358900D01*
X97938900Y-68378900D01*
X97761100Y-68378900D01*
X97761100Y-68358900D01*
X97761100Y-68181100D01*
X97761100Y-67104707D01*
X97564009Y-67032612D01*
X97112251Y-67236247D01*
X96772809Y-67597261D01*
X96612619Y-67984010D01*
X96684987Y-68181100D01*
X97761100Y-68181100D01*
X97761100Y-68358900D01*
X96684987Y-68358900D01*
X96612619Y-68555990D01*
X96772809Y-68942739D01*
X97112251Y-69303753D01*
X97564009Y-69507388D01*
X97761098Y-69435293D01*
X97761098Y-69540000D01*
X97761100Y-69540000D01*
X97849299Y-69540000D01*
X97761100Y-69628199D01*
X97615500Y-69773800D01*
X96774000Y-69773800D01*
X96589317Y-69810536D01*
X96432750Y-69915150D01*
X94361064Y-71986835D01*
X94361150Y-71888773D01*
X94229951Y-71571249D01*
X93987229Y-71328102D01*
X93669934Y-71196350D01*
X93326373Y-71196050D01*
X93008849Y-71327249D01*
X92765702Y-71569971D01*
X92762700Y-71577200D01*
X92685300Y-71577200D01*
X94858381Y-69404118D01*
X95286114Y-69489200D01*
X95333886Y-69489200D01*
X95800454Y-69396394D01*
X96195991Y-69132105D01*
X96460280Y-68736568D01*
X96553086Y-68270000D01*
X96460280Y-67803432D01*
X96232410Y-67462400D01*
X96621600Y-67462400D01*
X96806283Y-67425664D01*
X96962850Y-67321050D01*
X97416230Y-66867669D01*
X97826114Y-66949200D01*
X97873886Y-66949200D01*
X98340454Y-66856394D01*
X98628200Y-66664128D01*
X98628200Y-67279268D01*
G36*
X123215400Y-114261095D02*
X123183348Y-114296809D01*
X122459996Y-113572193D01*
X121762757Y-113282674D01*
X121762757Y-76375723D01*
X121745300Y-75936514D01*
X121704100Y-75837047D01*
X121704100Y-74429233D01*
X121704100Y-74287767D01*
X121704100Y-72890767D01*
X121649963Y-72760069D01*
X121549931Y-72660037D01*
X121419233Y-72605900D01*
X121277767Y-72605900D01*
X120368202Y-72605900D01*
X118305651Y-70543349D01*
X118128484Y-70424969D01*
X117919500Y-70383400D01*
X116873086Y-70383400D01*
X116873086Y-65730000D01*
X116780280Y-65263432D01*
X116515991Y-64867895D01*
X116120454Y-64603606D01*
X115653886Y-64510800D01*
X115606114Y-64510800D01*
X115139546Y-64603606D01*
X114744009Y-64867895D01*
X114479720Y-65263432D01*
X114386914Y-65730000D01*
X114479720Y-66196568D01*
X114744009Y-66592105D01*
X115139546Y-66856394D01*
X115606114Y-66949200D01*
X115653886Y-66949200D01*
X116120454Y-66856394D01*
X116515991Y-66592105D01*
X116780280Y-66196568D01*
X116873086Y-65730000D01*
X116873086Y-70383400D01*
X116867381Y-70383400D01*
X116867381Y-68555990D01*
X116867381Y-67984010D01*
X116707191Y-67597261D01*
X116367749Y-67236247D01*
X115915991Y-67032612D01*
X115718900Y-67104707D01*
X115718900Y-68181100D01*
X116795013Y-68181100D01*
X116867381Y-67984010D01*
X116867381Y-68555990D01*
X116795013Y-68358900D01*
X115718900Y-68358900D01*
X115718900Y-69435293D01*
X115915991Y-69507388D01*
X116367749Y-69303753D01*
X116707191Y-68942739D01*
X116867381Y-68555990D01*
X116867381Y-70383400D01*
X115541100Y-70383400D01*
X115541100Y-69435293D01*
X115541100Y-68358900D01*
X115541100Y-68181100D01*
X115541100Y-67104707D01*
X115344009Y-67032612D01*
X114892251Y-67236247D01*
X114552809Y-67597261D01*
X114392619Y-67984010D01*
X114464987Y-68181100D01*
X115541100Y-68181100D01*
X115541100Y-68358900D01*
X114464987Y-68358900D01*
X114392619Y-68555990D01*
X114552809Y-68942739D01*
X114892251Y-69303753D01*
X115344009Y-69507388D01*
X115541100Y-69435293D01*
X115541100Y-70383400D01*
X114490500Y-70383400D01*
X114410963Y-70399220D01*
X114333086Y-70407144D01*
X114333086Y-68270000D01*
X114333086Y-65730000D01*
X114240280Y-65263432D01*
X113975991Y-64867895D01*
X113580454Y-64603606D01*
X113113886Y-64510800D01*
X113066114Y-64510800D01*
X112599546Y-64603606D01*
X112204009Y-64867895D01*
X111939720Y-65263432D01*
X111846914Y-65730000D01*
X111939720Y-66196568D01*
X112204009Y-66592105D01*
X112599546Y-66856394D01*
X113066114Y-66949200D01*
X113113886Y-66949200D01*
X113580454Y-66856394D01*
X113975991Y-66592105D01*
X114240280Y-66196568D01*
X114333086Y-65730000D01*
X114333086Y-68270000D01*
X114240280Y-67803432D01*
X113975991Y-67407895D01*
X113580454Y-67143606D01*
X113113886Y-67050800D01*
X113066114Y-67050800D01*
X112599546Y-67143606D01*
X112204009Y-67407895D01*
X111939720Y-67803432D01*
X111846914Y-68270000D01*
X111939720Y-68736568D01*
X112204009Y-69132105D01*
X112599546Y-69396394D01*
X113066114Y-69489200D01*
X113113886Y-69489200D01*
X113580454Y-69396394D01*
X113975991Y-69132105D01*
X114240280Y-68736568D01*
X114333086Y-68270000D01*
X114333086Y-70407144D01*
X114330291Y-70407429D01*
X114307220Y-70419856D01*
X114281517Y-70424969D01*
X114214090Y-70470021D01*
X114142699Y-70508478D01*
X113378842Y-71139489D01*
X113240593Y-71082083D01*
X112821246Y-71081717D01*
X112681246Y-71139563D01*
X111917301Y-70508478D01*
X111845909Y-70470021D01*
X111793086Y-70434726D01*
X111793086Y-68270000D01*
X111793086Y-65730000D01*
X111700280Y-65263432D01*
X111435991Y-64867895D01*
X111040454Y-64603606D01*
X110573886Y-64510800D01*
X110526114Y-64510800D01*
X110059546Y-64603606D01*
X109664009Y-64867895D01*
X109399720Y-65263432D01*
X109306914Y-65730000D01*
X109399720Y-66196568D01*
X109664009Y-66592105D01*
X110059546Y-66856394D01*
X110526114Y-66949200D01*
X110573886Y-66949200D01*
X111040454Y-66856394D01*
X111435991Y-66592105D01*
X111700280Y-66196568D01*
X111793086Y-65730000D01*
X111793086Y-68270000D01*
X111700280Y-67803432D01*
X111435991Y-67407895D01*
X111040454Y-67143606D01*
X110573886Y-67050800D01*
X110526114Y-67050800D01*
X110059546Y-67143606D01*
X109664009Y-67407895D01*
X109399720Y-67803432D01*
X109306914Y-68270000D01*
X109399720Y-68736568D01*
X109664009Y-69132105D01*
X110059546Y-69396394D01*
X110526114Y-69489200D01*
X110573886Y-69489200D01*
X111040454Y-69396394D01*
X111435991Y-69132105D01*
X111700280Y-68736568D01*
X111793086Y-68270000D01*
X111793086Y-70434726D01*
X111778483Y-70424969D01*
X111752779Y-70419856D01*
X111729709Y-70407429D01*
X111649036Y-70399220D01*
X111569500Y-70383400D01*
X109410500Y-70383400D01*
X109330963Y-70399220D01*
X109253086Y-70407144D01*
X109253086Y-68270000D01*
X109247381Y-68241318D01*
X109247381Y-66015990D01*
X109247381Y-65444010D01*
X109087191Y-65057261D01*
X108747749Y-64696247D01*
X108295991Y-64492612D01*
X108098900Y-64564707D01*
X108098900Y-65641100D01*
X109175013Y-65641100D01*
X109247381Y-65444010D01*
X109247381Y-66015990D01*
X109175013Y-65818900D01*
X108098900Y-65818900D01*
X108098900Y-66895293D01*
X108295991Y-66967388D01*
X108747749Y-66763753D01*
X109087191Y-66402739D01*
X109247381Y-66015990D01*
X109247381Y-68241318D01*
X109160280Y-67803432D01*
X108895991Y-67407895D01*
X108500454Y-67143606D01*
X108033886Y-67050800D01*
X107986114Y-67050800D01*
X107921100Y-67063732D01*
X107921100Y-66895293D01*
X107921100Y-65818900D01*
X107921100Y-65641100D01*
X107921100Y-64564707D01*
X107724009Y-64492612D01*
X107272251Y-64696247D01*
X106932809Y-65057261D01*
X106772619Y-65444010D01*
X106844987Y-65641100D01*
X107921100Y-65641100D01*
X107921100Y-65818900D01*
X106844987Y-65818900D01*
X106772619Y-66015990D01*
X106932809Y-66402739D01*
X107272251Y-66763753D01*
X107724009Y-66967388D01*
X107921100Y-66895293D01*
X107921100Y-67063732D01*
X107519546Y-67143606D01*
X107124009Y-67407895D01*
X106859720Y-67803432D01*
X106766914Y-68270000D01*
X106859720Y-68736568D01*
X107124009Y-69132105D01*
X107519546Y-69396394D01*
X107986114Y-69489200D01*
X108033886Y-69489200D01*
X108500454Y-69396394D01*
X108895991Y-69132105D01*
X109160280Y-68736568D01*
X109253086Y-68270000D01*
X109253086Y-70407144D01*
X109250291Y-70407429D01*
X109227220Y-70419856D01*
X109201517Y-70424969D01*
X109134090Y-70470021D01*
X109062699Y-70508478D01*
X108298842Y-71139489D01*
X108160593Y-71082083D01*
X107741246Y-71081717D01*
X107353680Y-71241856D01*
X107056899Y-71538121D01*
X106896083Y-71925407D01*
X106895717Y-72344754D01*
X107055856Y-72732320D01*
X107246603Y-72923400D01*
X106997505Y-72923400D01*
X106997500Y-72923399D01*
X106812817Y-72960136D01*
X106713086Y-73026773D01*
X106713086Y-68270000D01*
X106713086Y-65730000D01*
X106620280Y-65263432D01*
X106355991Y-64867895D01*
X105960454Y-64603606D01*
X105493886Y-64510800D01*
X105446114Y-64510800D01*
X104979546Y-64603606D01*
X104584009Y-64867895D01*
X104319720Y-65263432D01*
X104226914Y-65730000D01*
X104319720Y-66196568D01*
X104584009Y-66592105D01*
X104979546Y-66856394D01*
X105446114Y-66949200D01*
X105493886Y-66949200D01*
X105960454Y-66856394D01*
X106355991Y-66592105D01*
X106620280Y-66196568D01*
X106713086Y-65730000D01*
X106713086Y-68270000D01*
X106620280Y-67803432D01*
X106355991Y-67407895D01*
X105960454Y-67143606D01*
X105493886Y-67050800D01*
X105446114Y-67050800D01*
X104979546Y-67143606D01*
X104584009Y-67407895D01*
X104319720Y-67803432D01*
X104226914Y-68270000D01*
X104319720Y-68736568D01*
X104584009Y-69132105D01*
X104979546Y-69396394D01*
X105446114Y-69489200D01*
X105493886Y-69489200D01*
X105960454Y-69396394D01*
X106355991Y-69132105D01*
X106620280Y-68736568D01*
X106713086Y-68270000D01*
X106713086Y-73026773D01*
X106656250Y-73064750D01*
X105194283Y-74526716D01*
X105194283Y-72181246D01*
X105034144Y-71793680D01*
X104737879Y-71496899D01*
X104350593Y-71336083D01*
X104173086Y-71335928D01*
X104173086Y-68270000D01*
X104167381Y-68241318D01*
X104167381Y-66015990D01*
X104167381Y-65444010D01*
X104007191Y-65057261D01*
X103667749Y-64696247D01*
X103215991Y-64492612D01*
X103018900Y-64564707D01*
X103018900Y-65641100D01*
X104095013Y-65641100D01*
X104167381Y-65444010D01*
X104167381Y-66015990D01*
X104095013Y-65818900D01*
X103018900Y-65818900D01*
X103018900Y-66895293D01*
X103215991Y-66967388D01*
X103667749Y-66763753D01*
X104007191Y-66402739D01*
X104167381Y-66015990D01*
X104167381Y-68241318D01*
X104080280Y-67803432D01*
X103815991Y-67407895D01*
X103420454Y-67143606D01*
X102953886Y-67050800D01*
X102906114Y-67050800D01*
X102841100Y-67063732D01*
X102841100Y-66895293D01*
X102841100Y-65818900D01*
X102841100Y-65641100D01*
X102841100Y-64564707D01*
X102644009Y-64492612D01*
X102192251Y-64696247D01*
X101852809Y-65057261D01*
X101692619Y-65444010D01*
X101764987Y-65641100D01*
X102841100Y-65641100D01*
X102841100Y-65818900D01*
X101764987Y-65818900D01*
X101692619Y-66015990D01*
X101852809Y-66402739D01*
X102192251Y-66763753D01*
X102644009Y-66967388D01*
X102841100Y-66895293D01*
X102841100Y-67063732D01*
X102439546Y-67143606D01*
X102044009Y-67407895D01*
X101779720Y-67803432D01*
X101686914Y-68270000D01*
X101779720Y-68736568D01*
X102044009Y-69132105D01*
X102439546Y-69396394D01*
X102906114Y-69489200D01*
X102953886Y-69489200D01*
X103420454Y-69396394D01*
X103815991Y-69132105D01*
X104080280Y-68736568D01*
X104173086Y-68270000D01*
X104173086Y-71335928D01*
X103931246Y-71335717D01*
X103543680Y-71495856D01*
X103246899Y-71792121D01*
X103086083Y-72179407D01*
X103085717Y-72598754D01*
X103245856Y-72986320D01*
X103542121Y-73283101D01*
X103929407Y-73443917D01*
X104348754Y-73444283D01*
X104736320Y-73284144D01*
X105033101Y-72987879D01*
X105193917Y-72600593D01*
X105194283Y-72181246D01*
X105194283Y-74526716D01*
X104509099Y-75211900D01*
X104350593Y-75146083D01*
X103931246Y-75145717D01*
X103543680Y-75305856D01*
X103246899Y-75602121D01*
X103086083Y-75989407D01*
X103085717Y-76408754D01*
X103245856Y-76796320D01*
X103542121Y-77093101D01*
X103657400Y-77140969D01*
X103657400Y-78729050D01*
X103588240Y-78742807D01*
X103143261Y-79040132D01*
X103022400Y-79221013D01*
X103022400Y-79074838D01*
X103022400Y-78913162D01*
X102960529Y-78763793D01*
X102846207Y-78649471D01*
X102712757Y-78594193D01*
X102712757Y-72565723D01*
X102695300Y-72126514D01*
X102560808Y-71801819D01*
X102384877Y-71730847D01*
X102259153Y-71856571D01*
X102259153Y-71605123D01*
X102188181Y-71429192D01*
X101775723Y-71277243D01*
X101336514Y-71294700D01*
X101011819Y-71429192D01*
X100940847Y-71605123D01*
X101600000Y-72264276D01*
X102259153Y-71605123D01*
X102259153Y-71856571D01*
X101725724Y-72390000D01*
X102384877Y-73049153D01*
X102560808Y-72978181D01*
X102712757Y-72565723D01*
X102712757Y-78594193D01*
X102696838Y-78587600D01*
X102654283Y-78587600D01*
X102654283Y-75991246D01*
X102494144Y-75603680D01*
X102259153Y-75368279D01*
X102259153Y-73174877D01*
X101600000Y-72515724D01*
X101474276Y-72641448D01*
X101474276Y-72390000D01*
X100815123Y-71730847D01*
X100639192Y-71801819D01*
X100487243Y-72214277D01*
X100504700Y-72653486D01*
X100639192Y-72978181D01*
X100815123Y-73049153D01*
X101474276Y-72390000D01*
X101474276Y-72641448D01*
X100940847Y-73174877D01*
X101011819Y-73350808D01*
X101424277Y-73502757D01*
X101863486Y-73485300D01*
X102188181Y-73350808D01*
X102259153Y-73174877D01*
X102259153Y-75368279D01*
X102197879Y-75306899D01*
X101810593Y-75146083D01*
X101391246Y-75145717D01*
X101003680Y-75305856D01*
X100706899Y-75602121D01*
X100546083Y-75989407D01*
X100545717Y-76408754D01*
X100705856Y-76796320D01*
X101002121Y-77093101D01*
X101389407Y-77253917D01*
X101808754Y-77254283D01*
X102196320Y-77094144D01*
X102493101Y-76797879D01*
X102653917Y-76410593D01*
X102654283Y-75991246D01*
X102654283Y-78587600D01*
X101790500Y-78587600D01*
X101688900Y-78689200D01*
X101688900Y-79921100D01*
X101708900Y-79921100D01*
X101708900Y-80098900D01*
X101688900Y-80098900D01*
X101688900Y-81330800D01*
X101790500Y-81432400D01*
X102696838Y-81432400D01*
X102846207Y-81370529D01*
X102960529Y-81256207D01*
X103022400Y-81106838D01*
X103022400Y-80945162D01*
X103022400Y-80798986D01*
X103143261Y-80979868D01*
X103588240Y-81277193D01*
X104113129Y-81381600D01*
X104166871Y-81381600D01*
X104691760Y-81277193D01*
X105136739Y-80979868D01*
X105434064Y-80534889D01*
X105538471Y-80010000D01*
X105434064Y-79485111D01*
X105136739Y-79040132D01*
X104691760Y-78742807D01*
X104622600Y-78729050D01*
X104622600Y-77141132D01*
X104736320Y-77094144D01*
X105033101Y-76797879D01*
X105193917Y-76410593D01*
X105194283Y-75991246D01*
X105165182Y-75920817D01*
X106867437Y-74218562D01*
X106823606Y-74284161D01*
X106730800Y-74750729D01*
X106730800Y-75109271D01*
X106823606Y-75575839D01*
X107087895Y-75971376D01*
X107483432Y-76235665D01*
X107950000Y-76328471D01*
X108416568Y-76235665D01*
X108812105Y-75971376D01*
X109076394Y-75575839D01*
X109169200Y-75109271D01*
X109169200Y-74750729D01*
X109076394Y-74284161D01*
X108904694Y-74027194D01*
X109330101Y-74452600D01*
X109270800Y-74750729D01*
X109270800Y-75109271D01*
X109363606Y-75575839D01*
X109627895Y-75971376D01*
X110023432Y-76235665D01*
X110490000Y-76328471D01*
X110956568Y-76235665D01*
X111352105Y-75971376D01*
X111616394Y-75575839D01*
X111709200Y-75109271D01*
X111709200Y-74750729D01*
X111616394Y-74284161D01*
X111352105Y-73888624D01*
X110956568Y-73624335D01*
X110490000Y-73531529D01*
X110023432Y-73624335D01*
X109929558Y-73687059D01*
X109307250Y-73064750D01*
X109150683Y-72960136D01*
X108966000Y-72923400D01*
X108653249Y-72923400D01*
X108843101Y-72733879D01*
X109003917Y-72346593D01*
X109004242Y-71973439D01*
X109606890Y-71475600D01*
X109659528Y-71475600D01*
X109596899Y-71538121D01*
X109436083Y-71925407D01*
X109435717Y-72344754D01*
X109595856Y-72732320D01*
X109892121Y-73029101D01*
X110279407Y-73189917D01*
X110698754Y-73190283D01*
X111086320Y-73030144D01*
X111211591Y-72905090D01*
X111990247Y-73683746D01*
X111990250Y-73683750D01*
X111990251Y-73683750D01*
X112146817Y-73788364D01*
X112278686Y-73814595D01*
X112167895Y-73888624D01*
X111903606Y-74284161D01*
X111810800Y-74750729D01*
X111810800Y-75109271D01*
X111903606Y-75575839D01*
X112167895Y-75971376D01*
X112563432Y-76235665D01*
X113030000Y-76328471D01*
X113496568Y-76235665D01*
X113892105Y-75971376D01*
X114156394Y-75575839D01*
X114249200Y-75109271D01*
X114249200Y-74750729D01*
X114156394Y-74284161D01*
X113984695Y-74027195D01*
X114410101Y-74452601D01*
X114350800Y-74750729D01*
X114350800Y-75109271D01*
X114443606Y-75575839D01*
X114707895Y-75971376D01*
X115103432Y-76235665D01*
X115570000Y-76328471D01*
X116036568Y-76235665D01*
X116432105Y-75971376D01*
X116696394Y-75575839D01*
X116789200Y-75109271D01*
X116789200Y-74750729D01*
X116696394Y-74284161D01*
X116432105Y-73888624D01*
X116036568Y-73624335D01*
X115570000Y-73531529D01*
X115103432Y-73624335D01*
X115009558Y-73687058D01*
X114323750Y-73001250D01*
X114167183Y-72896636D01*
X113982500Y-72859900D01*
X113796860Y-72859900D01*
X113923101Y-72733879D01*
X114083917Y-72346593D01*
X114084242Y-71973439D01*
X114686890Y-71475600D01*
X114739528Y-71475600D01*
X114676899Y-71538121D01*
X114516083Y-71925407D01*
X114515717Y-72344754D01*
X114675856Y-72732320D01*
X114972121Y-73029101D01*
X115359407Y-73189917D01*
X115778754Y-73190283D01*
X116166320Y-73030144D01*
X116463101Y-72733879D01*
X116623917Y-72346593D01*
X116624283Y-71927246D01*
X116464144Y-71539680D01*
X116400175Y-71475600D01*
X117693297Y-71475600D01*
X119595900Y-73378202D01*
X119595900Y-74429233D01*
X119650037Y-74559931D01*
X119750069Y-74659963D01*
X119880767Y-74714100D01*
X120022233Y-74714100D01*
X121419233Y-74714100D01*
X121549931Y-74659963D01*
X121649963Y-74559931D01*
X121704100Y-74429233D01*
X121704100Y-75837047D01*
X121610808Y-75611819D01*
X121434877Y-75540847D01*
X121309153Y-75666571D01*
X121309153Y-75415123D01*
X121238181Y-75239192D01*
X120825723Y-75087243D01*
X120386514Y-75104700D01*
X120061819Y-75239192D01*
X119990847Y-75415123D01*
X120650000Y-76074276D01*
X121309153Y-75415123D01*
X121309153Y-75666571D01*
X120775724Y-76200000D01*
X121434877Y-76859153D01*
X121610808Y-76788181D01*
X121762757Y-76375723D01*
X121762757Y-113282674D01*
X121309153Y-113094321D01*
X121309153Y-76984877D01*
X120650000Y-76325724D01*
X120524276Y-76451448D01*
X120524276Y-76200000D01*
X119865123Y-75540847D01*
X119689192Y-75611819D01*
X119537243Y-76024277D01*
X119554700Y-76463486D01*
X119689192Y-76788181D01*
X119865123Y-76859153D01*
X120524276Y-76200000D01*
X120524276Y-76451448D01*
X119990847Y-76984877D01*
X120061819Y-77160808D01*
X120474277Y-77312757D01*
X120913486Y-77295300D01*
X121238181Y-77160808D01*
X121309153Y-76984877D01*
X121309153Y-113094321D01*
X121190377Y-113045001D01*
X119815654Y-113043802D01*
X118545117Y-113568777D01*
X117572193Y-114540004D01*
X117045001Y-115809623D01*
X117043802Y-117184346D01*
X117568777Y-118454883D01*
X118264079Y-119151400D01*
X116836486Y-119151400D01*
X116836486Y-82838700D01*
X116836486Y-82261300D01*
X116687921Y-81787012D01*
X116369162Y-81405680D01*
X115928738Y-81175359D01*
X115855990Y-81160219D01*
X115658900Y-81232587D01*
X115658900Y-82461100D01*
X116740615Y-82461100D01*
X116836486Y-82261300D01*
X116836486Y-82838700D01*
X116740615Y-82638900D01*
X115658900Y-82638900D01*
X115658900Y-83867413D01*
X115855990Y-83939781D01*
X115928738Y-83924641D01*
X116369162Y-83694320D01*
X116687921Y-83312988D01*
X116836486Y-82838700D01*
X116836486Y-119151400D01*
X116200157Y-119151400D01*
X116200157Y-86738923D01*
X116182700Y-86299714D01*
X116048208Y-85975019D01*
X115872277Y-85904047D01*
X115746553Y-86029771D01*
X115746553Y-85778323D01*
X115675581Y-85602392D01*
X115481100Y-85530745D01*
X115481100Y-83867413D01*
X115481100Y-82638900D01*
X115481100Y-82461100D01*
X115481100Y-81232587D01*
X115284010Y-81160219D01*
X115211262Y-81175359D01*
X114770838Y-81405680D01*
X114452079Y-81787012D01*
X114303514Y-82261300D01*
X114399385Y-82461100D01*
X115481100Y-82461100D01*
X115481100Y-82638900D01*
X114399385Y-82638900D01*
X114303514Y-82838700D01*
X114452079Y-83312988D01*
X114770838Y-83694320D01*
X115211262Y-83924641D01*
X115284010Y-83939781D01*
X115481100Y-83867413D01*
X115481100Y-85530745D01*
X115263123Y-85450443D01*
X114823914Y-85467900D01*
X114499219Y-85602392D01*
X114428247Y-85778323D01*
X115087400Y-86437476D01*
X115746553Y-85778323D01*
X115746553Y-86029771D01*
X115213124Y-86563200D01*
X115872277Y-87222353D01*
X116048208Y-87151381D01*
X116200157Y-86738923D01*
X116200157Y-119151400D01*
X116019580Y-119151400D01*
X116019580Y-91271090D01*
X116019580Y-90970100D01*
X116019580Y-90792300D01*
X116019580Y-90491310D01*
X115920402Y-90170508D01*
X115746553Y-89960951D01*
X115746553Y-87348077D01*
X115087400Y-86688924D01*
X114961676Y-86814648D01*
X114961676Y-86563200D01*
X114302523Y-85904047D01*
X114296486Y-85906482D01*
X114296486Y-82838700D01*
X114296486Y-82261300D01*
X114147921Y-81787012D01*
X113829162Y-81405680D01*
X113388738Y-81175359D01*
X113315990Y-81160219D01*
X113118900Y-81232587D01*
X113118900Y-82461100D01*
X114200615Y-82461100D01*
X114296486Y-82261300D01*
X114296486Y-82838700D01*
X114200615Y-82638900D01*
X113118900Y-82638900D01*
X113118900Y-83867413D01*
X113315990Y-83939781D01*
X113388738Y-83924641D01*
X113829162Y-83694320D01*
X114147921Y-83312988D01*
X114296486Y-82838700D01*
X114296486Y-85906482D01*
X114126592Y-85975019D01*
X113974643Y-86387477D01*
X113992100Y-86826686D01*
X114126592Y-87151381D01*
X114302523Y-87222353D01*
X114961676Y-86563200D01*
X114961676Y-86814648D01*
X114428247Y-87348077D01*
X114499219Y-87524008D01*
X114911677Y-87675957D01*
X115350886Y-87658500D01*
X115675581Y-87524008D01*
X115746553Y-87348077D01*
X115746553Y-89960951D01*
X115706008Y-89912079D01*
X115409037Y-89755367D01*
X115384586Y-89753248D01*
X115252500Y-89831087D01*
X115252500Y-90792300D01*
X116019580Y-90792300D01*
X116019580Y-90970100D01*
X115252500Y-90970100D01*
X115252500Y-91931313D01*
X115384586Y-92009152D01*
X115409037Y-92007033D01*
X115706008Y-91850321D01*
X115920402Y-91591892D01*
X116019580Y-91271090D01*
X116019580Y-119151400D01*
X115074700Y-119151400D01*
X115074700Y-91931313D01*
X115074700Y-90970100D01*
X115054700Y-90970100D01*
X115054700Y-90792300D01*
X115074700Y-90792300D01*
X115074700Y-89831087D01*
X114942614Y-89753248D01*
X114918163Y-89755367D01*
X114621192Y-89912079D01*
X114505003Y-90052131D01*
X114462948Y-89989191D01*
X114201729Y-89814650D01*
X113893600Y-89753359D01*
X113585471Y-89814650D01*
X113324252Y-89989191D01*
X113258600Y-90087446D01*
X113192948Y-89989191D01*
X113093500Y-89922741D01*
X113093500Y-87478094D01*
X113143720Y-87457344D01*
X113440501Y-87161079D01*
X113601317Y-86773793D01*
X113601683Y-86354446D01*
X113441544Y-85966880D01*
X113145279Y-85670099D01*
X112941100Y-85585316D01*
X112941100Y-83867413D01*
X112941100Y-82638900D01*
X112941100Y-82461100D01*
X112941100Y-81232587D01*
X112744010Y-81160219D01*
X112671262Y-81175359D01*
X112230838Y-81405680D01*
X111912079Y-81787012D01*
X111763514Y-82261300D01*
X111859385Y-82461100D01*
X112941100Y-82461100D01*
X112941100Y-82638900D01*
X111859385Y-82638900D01*
X111763514Y-82838700D01*
X111912079Y-83312988D01*
X112230838Y-83694320D01*
X112671262Y-83924641D01*
X112744010Y-83939781D01*
X112941100Y-83867413D01*
X112941100Y-85585316D01*
X112757993Y-85509283D01*
X112338646Y-85508917D01*
X111951080Y-85669056D01*
X111756486Y-85863311D01*
X111756486Y-82838700D01*
X111756486Y-82261300D01*
X111607921Y-81787012D01*
X111289162Y-81405680D01*
X110848738Y-81175359D01*
X110775990Y-81160219D01*
X110578900Y-81232587D01*
X110578900Y-82461100D01*
X111660615Y-82461100D01*
X111756486Y-82261300D01*
X111756486Y-82838700D01*
X111660615Y-82638900D01*
X110578900Y-82638900D01*
X110578900Y-83867413D01*
X110775990Y-83939781D01*
X110848738Y-83924641D01*
X111289162Y-83694320D01*
X111607921Y-83312988D01*
X111756486Y-82838700D01*
X111756486Y-85863311D01*
X111654299Y-85965321D01*
X111493483Y-86352607D01*
X111493117Y-86771954D01*
X111514527Y-86823770D01*
X110401100Y-87937197D01*
X110401100Y-83867413D01*
X110401100Y-82638900D01*
X110401100Y-82461100D01*
X110401100Y-81232587D01*
X110204010Y-81160219D01*
X110131262Y-81175359D01*
X109690838Y-81405680D01*
X109372079Y-81787012D01*
X109223514Y-82261300D01*
X109319385Y-82461100D01*
X110401100Y-82461100D01*
X110401100Y-82638900D01*
X109319385Y-82638900D01*
X109223514Y-82838700D01*
X109372079Y-83312988D01*
X109690838Y-83694320D01*
X110131262Y-83924641D01*
X110204010Y-83939781D01*
X110401100Y-83867413D01*
X110401100Y-87937197D01*
X109216486Y-89121811D01*
X109216486Y-82838700D01*
X109216486Y-82261300D01*
X109067921Y-81787012D01*
X108749162Y-81405680D01*
X108308738Y-81175359D01*
X108235990Y-81160219D01*
X108038900Y-81232587D01*
X108038900Y-82461100D01*
X109120615Y-82461100D01*
X109216486Y-82261300D01*
X109216486Y-82838700D01*
X109120615Y-82638900D01*
X108038900Y-82638900D01*
X108038900Y-83867413D01*
X108235990Y-83939781D01*
X108308738Y-83924641D01*
X108749162Y-83694320D01*
X109067921Y-83312988D01*
X109216486Y-82838700D01*
X109216486Y-89121811D01*
X107861100Y-90477197D01*
X107861100Y-83867413D01*
X107861100Y-82638900D01*
X107861100Y-82461100D01*
X107861100Y-81232587D01*
X107664010Y-81160219D01*
X107591262Y-81175359D01*
X107150838Y-81405680D01*
X106832079Y-81787012D01*
X106683514Y-82261300D01*
X106779385Y-82461100D01*
X107861100Y-82461100D01*
X107861100Y-82638900D01*
X106779385Y-82638900D01*
X106683514Y-82838700D01*
X106832079Y-83312988D01*
X107150838Y-83694320D01*
X107591262Y-83924641D01*
X107664010Y-83939781D01*
X107861100Y-83867413D01*
X107861100Y-90477197D01*
X107734283Y-90604014D01*
X107734283Y-88691246D01*
X107574144Y-88303680D01*
X107277879Y-88006899D01*
X106890593Y-87846083D01*
X106471246Y-87845717D01*
X106083680Y-88005856D01*
X105786899Y-88302121D01*
X105739030Y-88417400D01*
X105391642Y-88417400D01*
X105391642Y-84029067D01*
X105376373Y-83534170D01*
X105216360Y-83147865D01*
X105025929Y-83059794D01*
X104900206Y-83185517D01*
X104900206Y-82934071D01*
X104812135Y-82743640D01*
X104349067Y-82568358D01*
X103854170Y-82583627D01*
X103467865Y-82743640D01*
X103379794Y-82934071D01*
X104140000Y-83694276D01*
X104900206Y-82934071D01*
X104900206Y-83185517D01*
X104265724Y-83820000D01*
X105025929Y-84580206D01*
X105216360Y-84492135D01*
X105391642Y-84029067D01*
X105391642Y-88417400D01*
X105334007Y-88417400D01*
X105334007Y-86123580D01*
X105152645Y-85684650D01*
X104900206Y-85431770D01*
X104900206Y-84705929D01*
X104140000Y-83945724D01*
X104014276Y-84071447D01*
X104014276Y-83820000D01*
X103254071Y-83059794D01*
X103063640Y-83147865D01*
X102888358Y-83610933D01*
X102903627Y-84105830D01*
X103063640Y-84492135D01*
X103254071Y-84580206D01*
X104014276Y-83820000D01*
X104014276Y-84071447D01*
X103379794Y-84705929D01*
X103467865Y-84896360D01*
X103930933Y-85071642D01*
X104425830Y-85056373D01*
X104812135Y-84896360D01*
X104900206Y-84705929D01*
X104900206Y-85431770D01*
X104817116Y-85348536D01*
X104378503Y-85166408D01*
X103903580Y-85165993D01*
X103464650Y-85347355D01*
X103128536Y-85682884D01*
X102946408Y-86121497D01*
X102945993Y-86596420D01*
X103127355Y-87035350D01*
X103462884Y-87371464D01*
X103901497Y-87553592D01*
X104376420Y-87554007D01*
X104815350Y-87372645D01*
X105151464Y-87037116D01*
X105333592Y-86598503D01*
X105334007Y-86123580D01*
X105334007Y-88417400D01*
X104749600Y-88417400D01*
X104564917Y-88454136D01*
X104408350Y-88558750D01*
X104408347Y-88558753D01*
X103152700Y-89814400D01*
X102147296Y-89814400D01*
X102196320Y-89794144D01*
X102493101Y-89497879D01*
X102653917Y-89110593D01*
X102654283Y-88691246D01*
X102494144Y-88303680D01*
X102197879Y-88006899D01*
X101810593Y-87846083D01*
X101511100Y-87845821D01*
X101511100Y-81330800D01*
X101511100Y-80098900D01*
X101511100Y-79921100D01*
X101511100Y-78689200D01*
X101409500Y-78587600D01*
X100503162Y-78587600D01*
X100353793Y-78649471D01*
X100239471Y-78763793D01*
X100177600Y-78913162D01*
X100177600Y-79074838D01*
X100177600Y-79819500D01*
X100279200Y-79921100D01*
X101511100Y-79921100D01*
X101511100Y-80098900D01*
X100279200Y-80098900D01*
X100177600Y-80200500D01*
X100177600Y-80945162D01*
X100177600Y-81106838D01*
X100239471Y-81256207D01*
X100353793Y-81370529D01*
X100503162Y-81432400D01*
X101409500Y-81432400D01*
X101511100Y-81330800D01*
X101511100Y-87845821D01*
X101391246Y-87845717D01*
X101003680Y-88005856D01*
X100706899Y-88302121D01*
X100546083Y-88689407D01*
X100545717Y-89108754D01*
X100705856Y-89496320D01*
X101002121Y-89793101D01*
X101053414Y-89814400D01*
X99390412Y-89814400D01*
X99390412Y-81673550D01*
X99205191Y-81225281D01*
X98862523Y-80882015D01*
X98414578Y-80696012D01*
X97929550Y-80695588D01*
X97481281Y-80880809D01*
X97138015Y-81223477D01*
X96952012Y-81671422D01*
X96951588Y-82156450D01*
X97136809Y-82604719D01*
X97479477Y-82947985D01*
X97927422Y-83133988D01*
X98412450Y-83134412D01*
X98860719Y-82949191D01*
X99203985Y-82606523D01*
X99389988Y-82158578D01*
X99390412Y-81673550D01*
X99390412Y-89814400D01*
X96850412Y-89814400D01*
X96850412Y-81673550D01*
X96665191Y-81225281D01*
X96322523Y-80882015D01*
X95874578Y-80696012D01*
X95389550Y-80695588D01*
X94941281Y-80880809D01*
X94598015Y-81223477D01*
X94412012Y-81671422D01*
X94411588Y-82156450D01*
X94596809Y-82604719D01*
X94939477Y-82947985D01*
X95387422Y-83133988D01*
X95872450Y-83134412D01*
X96320719Y-82949191D01*
X96663985Y-82606523D01*
X96849988Y-82158578D01*
X96850412Y-81673550D01*
X96850412Y-89814400D01*
X92329005Y-89814400D01*
X92329000Y-89814399D01*
X92144317Y-89851136D01*
X91987750Y-89955750D01*
X91987747Y-89955753D01*
X89230412Y-92713088D01*
X89230412Y-81673550D01*
X89045191Y-81225281D01*
X88702523Y-80882015D01*
X88254578Y-80696012D01*
X87769550Y-80695588D01*
X87321281Y-80880809D01*
X86978015Y-81223477D01*
X86792012Y-81671422D01*
X86791588Y-82156450D01*
X86976809Y-82604719D01*
X87319477Y-82947985D01*
X87767422Y-83133988D01*
X88252450Y-83134412D01*
X88700719Y-82949191D01*
X89043985Y-82606523D01*
X89229988Y-82158578D01*
X89230412Y-81673550D01*
X89230412Y-92713088D01*
X86690412Y-95253088D01*
X86690412Y-81673550D01*
X86505191Y-81225281D01*
X86162523Y-80882015D01*
X85714578Y-80696012D01*
X85229550Y-80695588D01*
X85086486Y-80754700D01*
X85086486Y-79028700D01*
X85086486Y-78451300D01*
X84937921Y-77977012D01*
X84619162Y-77595680D01*
X84378834Y-77470000D01*
X84619162Y-77344320D01*
X84937921Y-76962988D01*
X85086486Y-76488700D01*
X84990615Y-76288900D01*
X83908900Y-76288900D01*
X83908900Y-77422587D01*
X83908900Y-77517413D01*
X83908900Y-78651100D01*
X84990615Y-78651100D01*
X85086486Y-78451300D01*
X85086486Y-79028700D01*
X84990615Y-78828900D01*
X83908900Y-78828900D01*
X83908900Y-80057413D01*
X84105990Y-80129781D01*
X84178738Y-80114641D01*
X84619162Y-79884320D01*
X84937921Y-79502988D01*
X85086486Y-79028700D01*
X85086486Y-80754700D01*
X84781281Y-80880809D01*
X84438015Y-81223477D01*
X84252012Y-81671422D01*
X84251588Y-82156450D01*
X84436809Y-82604719D01*
X84779477Y-82947985D01*
X85227422Y-83133988D01*
X85712450Y-83134412D01*
X86160719Y-82949191D01*
X86503985Y-82606523D01*
X86689988Y-82158578D01*
X86690412Y-81673550D01*
X86690412Y-95253088D01*
X80841547Y-101101953D01*
X80634578Y-101016012D01*
X80149550Y-101015588D01*
X79701281Y-101200809D01*
X79358015Y-101543477D01*
X79172012Y-101991422D01*
X79171588Y-102476450D01*
X79356809Y-102924719D01*
X79699477Y-103267985D01*
X80147422Y-103453988D01*
X80632450Y-103454412D01*
X81080719Y-103269191D01*
X81423985Y-102926523D01*
X81609988Y-102478578D01*
X81610412Y-101993550D01*
X81524024Y-101784475D01*
X82448400Y-100860099D01*
X82448400Y-101115229D01*
X82241281Y-101200809D01*
X81898015Y-101543477D01*
X81712012Y-101991422D01*
X81711588Y-102476450D01*
X81896809Y-102924719D01*
X82239477Y-103267985D01*
X82687422Y-103453988D01*
X83172450Y-103454412D01*
X83620719Y-103269191D01*
X83963985Y-102926523D01*
X84149988Y-102478578D01*
X84150412Y-101993550D01*
X83965191Y-101545281D01*
X83622523Y-101202015D01*
X83413600Y-101115262D01*
X83413600Y-100809300D01*
X92300300Y-91922600D01*
X100658867Y-91922600D01*
X100705856Y-92036320D01*
X101002121Y-92333101D01*
X101389407Y-92493917D01*
X101808754Y-92494283D01*
X102196320Y-92334144D01*
X102493101Y-92037879D01*
X102653917Y-91650593D01*
X102654283Y-91231246D01*
X102494144Y-90843680D01*
X102430175Y-90779600D01*
X103352600Y-90779600D01*
X103537283Y-90742864D01*
X103693850Y-90638250D01*
X104949499Y-89382600D01*
X105738867Y-89382600D01*
X105785856Y-89496320D01*
X106082121Y-89793101D01*
X106469407Y-89953917D01*
X106888754Y-89954283D01*
X107276320Y-89794144D01*
X107573101Y-89497879D01*
X107733917Y-89110593D01*
X107734283Y-88691246D01*
X107734283Y-90604014D01*
X107534415Y-90803882D01*
X107277879Y-90546899D01*
X106890593Y-90386083D01*
X106471246Y-90385717D01*
X106083680Y-90545856D01*
X105786899Y-90842121D01*
X105626083Y-91229407D01*
X105625717Y-91648754D01*
X105785856Y-92036320D01*
X106082121Y-92333101D01*
X106469407Y-92493917D01*
X106888754Y-92494283D01*
X107276320Y-92334144D01*
X107573101Y-92037879D01*
X107594601Y-91986100D01*
X107670600Y-91986100D01*
X107879583Y-91944531D01*
X107879584Y-91944531D01*
X108056751Y-91826151D01*
X112001300Y-87881602D01*
X112001300Y-90068439D01*
X111879711Y-90250410D01*
X111818420Y-90558539D01*
X111818420Y-91203861D01*
X111879711Y-91511990D01*
X112054252Y-91773209D01*
X112315471Y-91947750D01*
X112623600Y-92009041D01*
X112931729Y-91947750D01*
X113192948Y-91773209D01*
X113258600Y-91674953D01*
X113324252Y-91773209D01*
X113585471Y-91947750D01*
X113893600Y-92009041D01*
X114201729Y-91947750D01*
X114462948Y-91773209D01*
X114505003Y-91710268D01*
X114621192Y-91850321D01*
X114918163Y-92007033D01*
X114942614Y-92009152D01*
X115074700Y-91931313D01*
X115074700Y-119151400D01*
X105765600Y-119151400D01*
X105765600Y-117830600D01*
X105765600Y-99212400D01*
X105252757Y-99212400D01*
X105252757Y-95425723D01*
X105235300Y-94986514D01*
X105100808Y-94661819D01*
X104924877Y-94590847D01*
X104799153Y-94716571D01*
X104799153Y-94465123D01*
X104728181Y-94289192D01*
X104315723Y-94137243D01*
X103876514Y-94154700D01*
X103551819Y-94289192D01*
X103480847Y-94465123D01*
X104140000Y-95124276D01*
X104799153Y-94465123D01*
X104799153Y-94716571D01*
X104265724Y-95250000D01*
X104924877Y-95909153D01*
X105100808Y-95838181D01*
X105252757Y-95425723D01*
X105252757Y-99212400D01*
X105194100Y-99212400D01*
X105194100Y-98559233D01*
X105194100Y-98417767D01*
X105194100Y-97020767D01*
X105139963Y-96890069D01*
X105039931Y-96790037D01*
X104909233Y-96735900D01*
X104799153Y-96735900D01*
X104799153Y-96034877D01*
X104140000Y-95375724D01*
X104014276Y-95501448D01*
X104014276Y-95250000D01*
X103355123Y-94590847D01*
X103179192Y-94661819D01*
X103027243Y-95074277D01*
X103044700Y-95513486D01*
X103179192Y-95838181D01*
X103355123Y-95909153D01*
X104014276Y-95250000D01*
X104014276Y-95501448D01*
X103480847Y-96034877D01*
X103551819Y-96210808D01*
X103964277Y-96362757D01*
X104403486Y-96345300D01*
X104728181Y-96210808D01*
X104799153Y-96034877D01*
X104799153Y-96735900D01*
X104767767Y-96735900D01*
X103370767Y-96735900D01*
X103240069Y-96790037D01*
X103140037Y-96890069D01*
X103085900Y-97020767D01*
X103085900Y-97162233D01*
X103085900Y-98559233D01*
X103140037Y-98689931D01*
X103240069Y-98789963D01*
X103370767Y-98844100D01*
X103512233Y-98844100D01*
X104909233Y-98844100D01*
X105039931Y-98789963D01*
X105139963Y-98689931D01*
X105194100Y-98559233D01*
X105194100Y-99212400D01*
X102133400Y-99212400D01*
X102133400Y-117830600D01*
X105765600Y-117830600D01*
X105765600Y-119151400D01*
X105664000Y-119151400D01*
X99390412Y-119151400D01*
X99390412Y-101993550D01*
X99205191Y-101545281D01*
X98862523Y-101202015D01*
X98414578Y-101016012D01*
X97929550Y-101015588D01*
X97481281Y-101200809D01*
X97138015Y-101543477D01*
X96952012Y-101991422D01*
X96951588Y-102476450D01*
X97136809Y-102924719D01*
X97479477Y-103267985D01*
X97927422Y-103453988D01*
X98412450Y-103454412D01*
X98860719Y-103269191D01*
X99203985Y-102926523D01*
X99389988Y-102478578D01*
X99390412Y-101993550D01*
X99390412Y-119151400D01*
X96850412Y-119151400D01*
X96850412Y-101993550D01*
X96665191Y-101545281D01*
X96322523Y-101202015D01*
X95874578Y-101016012D01*
X95389550Y-101015588D01*
X94941281Y-101200809D01*
X94598015Y-101543477D01*
X94412012Y-101991422D01*
X94411588Y-102476450D01*
X94596809Y-102924719D01*
X94939477Y-103267985D01*
X95387422Y-103453988D01*
X95872450Y-103454412D01*
X96320719Y-103269191D01*
X96663985Y-102926523D01*
X96849988Y-102478578D01*
X96850412Y-101993550D01*
X96850412Y-119151400D01*
X94310412Y-119151400D01*
X94310412Y-101993550D01*
X94125191Y-101545281D01*
X93782523Y-101202015D01*
X93334578Y-101016012D01*
X92849550Y-101015588D01*
X92401281Y-101200809D01*
X92058015Y-101543477D01*
X91872012Y-101991422D01*
X91871588Y-102476450D01*
X92056809Y-102924719D01*
X92399477Y-103267985D01*
X92847422Y-103453988D01*
X93332450Y-103454412D01*
X93780719Y-103269191D01*
X94123985Y-102926523D01*
X94309988Y-102478578D01*
X94310412Y-101993550D01*
X94310412Y-119151400D01*
X91770412Y-119151400D01*
X91770412Y-101993550D01*
X91585191Y-101545281D01*
X91242523Y-101202015D01*
X90794578Y-101016012D01*
X90309550Y-101015588D01*
X89861281Y-101200809D01*
X89518015Y-101543477D01*
X89332012Y-101991422D01*
X89331588Y-102476450D01*
X89516809Y-102924719D01*
X89859477Y-103267985D01*
X90307422Y-103453988D01*
X90792450Y-103454412D01*
X91240719Y-103269191D01*
X91583985Y-102926523D01*
X91769988Y-102478578D01*
X91770412Y-101993550D01*
X91770412Y-119151400D01*
X89230412Y-119151400D01*
X89230412Y-101993550D01*
X89045191Y-101545281D01*
X88702523Y-101202015D01*
X88254578Y-101016012D01*
X87769550Y-101015588D01*
X87321281Y-101200809D01*
X86978015Y-101543477D01*
X86792012Y-101991422D01*
X86791588Y-102476450D01*
X86976809Y-102924719D01*
X87319477Y-103267985D01*
X87767422Y-103453988D01*
X88252450Y-103454412D01*
X88700719Y-103269191D01*
X89043985Y-102926523D01*
X89229988Y-102478578D01*
X89230412Y-101993550D01*
X89230412Y-119151400D01*
X86690412Y-119151400D01*
X86690412Y-101993550D01*
X86505191Y-101545281D01*
X86162523Y-101202015D01*
X85714578Y-101016012D01*
X85229550Y-101015588D01*
X84781281Y-101200809D01*
X84438015Y-101543477D01*
X84252012Y-101991422D01*
X84251588Y-102476450D01*
X84436809Y-102924719D01*
X84779477Y-103267985D01*
X85227422Y-103453988D01*
X85712450Y-103454412D01*
X86160719Y-103269191D01*
X86503985Y-102926523D01*
X86689988Y-102478578D01*
X86690412Y-101993550D01*
X86690412Y-119151400D01*
X79756000Y-119151400D01*
X79756000Y-107264200D01*
X79756000Y-103657400D01*
X79719264Y-103472717D01*
X79614650Y-103316150D01*
X79614646Y-103316147D01*
X78984046Y-102685547D01*
X79069988Y-102478578D01*
X79070412Y-101993550D01*
X78885191Y-101545281D01*
X78542523Y-101202015D01*
X78094578Y-101016012D01*
X77609550Y-101015588D01*
X77161281Y-101200809D01*
X76818015Y-101543477D01*
X76632012Y-101991422D01*
X76631588Y-102476450D01*
X76816809Y-102924719D01*
X77159477Y-103267985D01*
X77607422Y-103453988D01*
X78092450Y-103454412D01*
X78301524Y-103368024D01*
X78790800Y-103857299D01*
X78790800Y-107064300D01*
X78590900Y-107264200D01*
X78155800Y-107264200D01*
X78155800Y-105230686D01*
X78155800Y-105182914D01*
X78062994Y-104716346D01*
X77798705Y-104320809D01*
X77403168Y-104056520D01*
X76936600Y-103963714D01*
X76530412Y-104044509D01*
X76530412Y-101993550D01*
X76345191Y-101545281D01*
X76002523Y-101202015D01*
X75554578Y-101016012D01*
X75069550Y-101015588D01*
X74621281Y-101200809D01*
X74278015Y-101543477D01*
X74092012Y-101991422D01*
X74091588Y-102476450D01*
X74276809Y-102924719D01*
X74619477Y-103267985D01*
X75067422Y-103453988D01*
X75552450Y-103454412D01*
X76000719Y-103269191D01*
X76343985Y-102926523D01*
X76529988Y-102478578D01*
X76530412Y-101993550D01*
X76530412Y-104044509D01*
X76470032Y-104056520D01*
X76074495Y-104320809D01*
X75810206Y-104716346D01*
X75717400Y-105182914D01*
X75717400Y-105230686D01*
X75810206Y-105697254D01*
X76074495Y-106092791D01*
X76470032Y-106357080D01*
X76936600Y-106449886D01*
X77403168Y-106357080D01*
X77798705Y-106092791D01*
X78062994Y-105697254D01*
X78155800Y-105230686D01*
X78155800Y-107264200D01*
X78064556Y-107264200D01*
X78062994Y-107256346D01*
X77798705Y-106860809D01*
X77403168Y-106596520D01*
X76936600Y-106503714D01*
X76470032Y-106596520D01*
X76074495Y-106860809D01*
X75810206Y-107256346D01*
X75717400Y-107722914D01*
X75717400Y-107770686D01*
X75810206Y-108237254D01*
X76074495Y-108632791D01*
X76470032Y-108897080D01*
X76936600Y-108989886D01*
X77403168Y-108897080D01*
X77798705Y-108632791D01*
X78062994Y-108237254D01*
X78064556Y-108229400D01*
X78790800Y-108229400D01*
X78975483Y-108192664D01*
X79132050Y-108088050D01*
X79614646Y-107605452D01*
X79614649Y-107605450D01*
X79614650Y-107605450D01*
X79719264Y-107448883D01*
X79756000Y-107264200D01*
X79756000Y-119151400D01*
X78155800Y-119151400D01*
X78155800Y-112850686D01*
X78155800Y-112802914D01*
X78155800Y-110310686D01*
X78155800Y-110262914D01*
X78062994Y-109796346D01*
X77798705Y-109400809D01*
X77403168Y-109136520D01*
X76936600Y-109043714D01*
X76470032Y-109136520D01*
X76074495Y-109400809D01*
X75810206Y-109796346D01*
X75717400Y-110262914D01*
X75717400Y-110310686D01*
X75810206Y-110777254D01*
X76074495Y-111172791D01*
X76470032Y-111437080D01*
X76936600Y-111529886D01*
X77403168Y-111437080D01*
X77798705Y-111172791D01*
X78062994Y-110777254D01*
X78155800Y-110310686D01*
X78155800Y-112802914D01*
X78062994Y-112336346D01*
X77798705Y-111940809D01*
X77403168Y-111676520D01*
X76936600Y-111583714D01*
X76470032Y-111676520D01*
X76074495Y-111940809D01*
X75810206Y-112336346D01*
X75717400Y-112802914D01*
X75717400Y-112850686D01*
X75810206Y-113317254D01*
X76074495Y-113712791D01*
X76470032Y-113977080D01*
X76936600Y-114069886D01*
X77403168Y-113977080D01*
X77798705Y-113712791D01*
X78062994Y-113317254D01*
X78155800Y-112850686D01*
X78155800Y-119151400D01*
X75666600Y-119151400D01*
X75666600Y-106151238D01*
X75666600Y-105397300D01*
X75666600Y-105016300D01*
X75666600Y-104262362D01*
X75604729Y-104112993D01*
X75490407Y-103998671D01*
X75341038Y-103936800D01*
X75179362Y-103936800D01*
X74587100Y-103936800D01*
X74485500Y-104038400D01*
X74485500Y-105117900D01*
X75565000Y-105117900D01*
X75666600Y-105016300D01*
X75666600Y-105397300D01*
X75565000Y-105295700D01*
X74485500Y-105295700D01*
X74485500Y-106375200D01*
X74587100Y-106476800D01*
X75179362Y-106476800D01*
X75341038Y-106476800D01*
X75490407Y-106414929D01*
X75604729Y-106300607D01*
X75666600Y-106151238D01*
X75666600Y-119151400D01*
X75615800Y-119151400D01*
X75615800Y-112850686D01*
X75615800Y-112802914D01*
X75615800Y-110310686D01*
X75615800Y-110262914D01*
X75615800Y-107770686D01*
X75615800Y-107722914D01*
X75522994Y-107256346D01*
X75258705Y-106860809D01*
X74863168Y-106596520D01*
X74396600Y-106503714D01*
X74307700Y-106521397D01*
X74307700Y-106375200D01*
X74307700Y-105295700D01*
X74307700Y-105117900D01*
X74307700Y-104038400D01*
X74206100Y-103936800D01*
X73990412Y-103936800D01*
X73990412Y-101993550D01*
X73805191Y-101545281D01*
X73462523Y-101202015D01*
X73014578Y-101016012D01*
X72529550Y-101015588D01*
X72081281Y-101200809D01*
X71738015Y-101543477D01*
X71552012Y-101991422D01*
X71551588Y-102476450D01*
X71736809Y-102924719D01*
X72079477Y-103267985D01*
X72527422Y-103453988D01*
X73012450Y-103454412D01*
X73460719Y-103269191D01*
X73803985Y-102926523D01*
X73989988Y-102478578D01*
X73990412Y-101993550D01*
X73990412Y-103936800D01*
X73613838Y-103936800D01*
X73452162Y-103936800D01*
X73302793Y-103998671D01*
X73188471Y-104112993D01*
X73126600Y-104262362D01*
X73126600Y-105016300D01*
X73228200Y-105117900D01*
X74307700Y-105117900D01*
X74307700Y-105295700D01*
X73228200Y-105295700D01*
X73126600Y-105397300D01*
X73126600Y-106151238D01*
X73188471Y-106300607D01*
X73302793Y-106414929D01*
X73452162Y-106476800D01*
X73613838Y-106476800D01*
X74206100Y-106476800D01*
X74307700Y-106375200D01*
X74307700Y-106521397D01*
X73930032Y-106596520D01*
X73534495Y-106860809D01*
X73270206Y-107256346D01*
X73177400Y-107722914D01*
X73177400Y-107770686D01*
X73270206Y-108237254D01*
X73534495Y-108632791D01*
X73930032Y-108897080D01*
X74396600Y-108989886D01*
X74863168Y-108897080D01*
X75258705Y-108632791D01*
X75522994Y-108237254D01*
X75615800Y-107770686D01*
X75615800Y-110262914D01*
X75522994Y-109796346D01*
X75258705Y-109400809D01*
X74863168Y-109136520D01*
X74396600Y-109043714D01*
X73930032Y-109136520D01*
X73534495Y-109400809D01*
X73270206Y-109796346D01*
X73177400Y-110262914D01*
X73177400Y-110310686D01*
X73270206Y-110777254D01*
X73534495Y-111172791D01*
X73930032Y-111437080D01*
X74396600Y-111529886D01*
X74863168Y-111437080D01*
X75258705Y-111172791D01*
X75522994Y-110777254D01*
X75615800Y-110310686D01*
X75615800Y-112802914D01*
X75522994Y-112336346D01*
X75258705Y-111940809D01*
X74863168Y-111676520D01*
X74396600Y-111583714D01*
X73930032Y-111676520D01*
X73534495Y-111940809D01*
X73270206Y-112336346D01*
X73177400Y-112802914D01*
X73177400Y-112850686D01*
X73270206Y-113317254D01*
X73534495Y-113712791D01*
X73930032Y-113977080D01*
X74396600Y-114069886D01*
X74863168Y-113977080D01*
X75258705Y-113712791D01*
X75522994Y-113317254D01*
X75615800Y-112850686D01*
X75615800Y-119151400D01*
X71925180Y-119151400D01*
X71925180Y-115892661D01*
X71925180Y-115247339D01*
X71863889Y-114939210D01*
X71689348Y-114677991D01*
X71450412Y-114518339D01*
X71450412Y-101993550D01*
X71450412Y-81673550D01*
X71265191Y-81225281D01*
X71031100Y-80990781D01*
X71031100Y-80057413D01*
X71031100Y-78828900D01*
X71031100Y-78651100D01*
X71031100Y-77422587D01*
X70834010Y-77350219D01*
X70761262Y-77365359D01*
X70320838Y-77595680D01*
X70002079Y-77977012D01*
X69853514Y-78451300D01*
X69949385Y-78651100D01*
X71031100Y-78651100D01*
X71031100Y-78828900D01*
X69949385Y-78828900D01*
X69853514Y-79028700D01*
X70002079Y-79502988D01*
X70320838Y-79884320D01*
X70761262Y-80114641D01*
X70834010Y-80129781D01*
X71031100Y-80057413D01*
X71031100Y-80990781D01*
X70922523Y-80882015D01*
X70474578Y-80696012D01*
X69989550Y-80695588D01*
X69844021Y-80755719D01*
X66814700Y-77726398D01*
X66814700Y-76853167D01*
X66760563Y-76722469D01*
X66660531Y-76622437D01*
X66529833Y-76568300D01*
X66388367Y-76568300D01*
X64991367Y-76568300D01*
X64860669Y-76622437D01*
X64760637Y-76722469D01*
X64706500Y-76853167D01*
X64706500Y-76994633D01*
X64706500Y-78391633D01*
X64760637Y-78522331D01*
X64860669Y-78622363D01*
X64991367Y-78676500D01*
X65132833Y-78676500D01*
X66220198Y-78676500D01*
X68350873Y-80807175D01*
X67906127Y-80638114D01*
X67401108Y-80652986D01*
X67003606Y-80817637D01*
X66912429Y-81010706D01*
X67691000Y-81789276D01*
X67705142Y-81775134D01*
X67830865Y-81900857D01*
X67816724Y-81915000D01*
X68595294Y-82693571D01*
X68788363Y-82602394D01*
X68967886Y-82130127D01*
X68953014Y-81625108D01*
X68800425Y-81256727D01*
X69071604Y-81527906D01*
X69012012Y-81671422D01*
X69011588Y-82156450D01*
X69196809Y-82604719D01*
X69539477Y-82947985D01*
X69987422Y-83133988D01*
X70472450Y-83134412D01*
X70920719Y-82949191D01*
X71263985Y-82606523D01*
X71449988Y-82158578D01*
X71450412Y-81673550D01*
X71450412Y-101993550D01*
X71265191Y-101545281D01*
X70922523Y-101202015D01*
X70474578Y-101016012D01*
X69989550Y-101015588D01*
X69541281Y-101200809D01*
X69198015Y-101543477D01*
X69012012Y-101991422D01*
X69011588Y-102476450D01*
X69196809Y-102924719D01*
X69539477Y-103267985D01*
X69987422Y-103453988D01*
X70472450Y-103454412D01*
X70920719Y-103269191D01*
X71263985Y-102926523D01*
X71449988Y-102478578D01*
X71450412Y-101993550D01*
X71450412Y-114518339D01*
X71428129Y-114503450D01*
X71120000Y-114442159D01*
X70962757Y-114473436D01*
X70962757Y-109395723D01*
X70945300Y-108956514D01*
X70810808Y-108631819D01*
X70634877Y-108560847D01*
X70509153Y-108686571D01*
X70509153Y-108435123D01*
X70438181Y-108259192D01*
X70025723Y-108107243D01*
X69586514Y-108124700D01*
X69261819Y-108259192D01*
X69190847Y-108435123D01*
X69850000Y-109094276D01*
X70509153Y-108435123D01*
X70509153Y-108686571D01*
X69975724Y-109220000D01*
X70634877Y-109879153D01*
X70810808Y-109808181D01*
X70962757Y-109395723D01*
X70962757Y-114473436D01*
X70904283Y-114485068D01*
X70904283Y-111551246D01*
X70744144Y-111163680D01*
X70509153Y-110928279D01*
X70509153Y-110004877D01*
X69850000Y-109345724D01*
X69724276Y-109471448D01*
X69724276Y-109220000D01*
X69065123Y-108560847D01*
X68910412Y-108623258D01*
X68910412Y-101993550D01*
X68725191Y-101545281D01*
X68469571Y-101289214D01*
X68469571Y-82819294D01*
X67691000Y-82040724D01*
X67565276Y-82166447D01*
X67565276Y-81915000D01*
X66786706Y-81136429D01*
X66593637Y-81227606D01*
X66414114Y-81699873D01*
X66428986Y-82204892D01*
X66593637Y-82602394D01*
X66786706Y-82693571D01*
X67565276Y-81915000D01*
X67565276Y-82166447D01*
X66912429Y-82819294D01*
X67003606Y-83012363D01*
X67475873Y-83191886D01*
X67980892Y-83177014D01*
X68378394Y-83012363D01*
X68469571Y-82819294D01*
X68469571Y-101289214D01*
X68382523Y-101202015D01*
X67934578Y-101016012D01*
X67449550Y-101015588D01*
X67001281Y-101200809D01*
X66658015Y-101543477D01*
X66472012Y-101991422D01*
X66471588Y-102476450D01*
X66656809Y-102924719D01*
X66999477Y-103267985D01*
X67447422Y-103453988D01*
X67932450Y-103454412D01*
X68380719Y-103269191D01*
X68723985Y-102926523D01*
X68909988Y-102478578D01*
X68910412Y-101993550D01*
X68910412Y-108623258D01*
X68889192Y-108631819D01*
X68737243Y-109044277D01*
X68754700Y-109483486D01*
X68889192Y-109808181D01*
X69065123Y-109879153D01*
X69724276Y-109220000D01*
X69724276Y-109471448D01*
X69190847Y-110004877D01*
X69261819Y-110180808D01*
X69674277Y-110332757D01*
X70113486Y-110315300D01*
X70438181Y-110180808D01*
X70509153Y-110004877D01*
X70509153Y-110928279D01*
X70447879Y-110866899D01*
X70060593Y-110706083D01*
X69641246Y-110705717D01*
X69253680Y-110865856D01*
X68956899Y-111162121D01*
X68796083Y-111549407D01*
X68795717Y-111968754D01*
X68955856Y-112356320D01*
X69252121Y-112653101D01*
X69639407Y-112813917D01*
X70058754Y-112814283D01*
X70446320Y-112654144D01*
X70743101Y-112357879D01*
X70903917Y-111970593D01*
X70904283Y-111551246D01*
X70904283Y-114485068D01*
X70811871Y-114503450D01*
X70550652Y-114677991D01*
X70485000Y-114776246D01*
X70419348Y-114677991D01*
X70158129Y-114503450D01*
X69850000Y-114442159D01*
X69541871Y-114503450D01*
X69280652Y-114677991D01*
X69238596Y-114740931D01*
X69122408Y-114600879D01*
X68825437Y-114444167D01*
X68800986Y-114442048D01*
X68668900Y-114519887D01*
X68668900Y-115481100D01*
X68688900Y-115481100D01*
X68688900Y-115658900D01*
X68668900Y-115658900D01*
X68668900Y-116620113D01*
X68800986Y-116697952D01*
X68825437Y-116695833D01*
X69122408Y-116539121D01*
X69238596Y-116399068D01*
X69280652Y-116462009D01*
X69541871Y-116636550D01*
X69850000Y-116697841D01*
X70158129Y-116636550D01*
X70419348Y-116462009D01*
X70485000Y-116363753D01*
X70550652Y-116462009D01*
X70811871Y-116636550D01*
X71120000Y-116697841D01*
X71428129Y-116636550D01*
X71689348Y-116462009D01*
X71863889Y-116200790D01*
X71925180Y-115892661D01*
X71925180Y-119151400D01*
X68491100Y-119151400D01*
X68491100Y-116620113D01*
X68491100Y-115658900D01*
X68491100Y-115481100D01*
X68491100Y-114519887D01*
X68359014Y-114442048D01*
X68334563Y-114444167D01*
X68037592Y-114600879D01*
X67823198Y-114859308D01*
X67724020Y-115180110D01*
X67724020Y-115481100D01*
X68491100Y-115481100D01*
X68491100Y-115658900D01*
X67724020Y-115658900D01*
X67724020Y-115959890D01*
X67823198Y-116280692D01*
X68037592Y-116539121D01*
X68334563Y-116695833D01*
X68359014Y-116697952D01*
X68491100Y-116620113D01*
X68491100Y-119151400D01*
X67152757Y-119151400D01*
X67152757Y-111935723D01*
X67135300Y-111496514D01*
X67000808Y-111171819D01*
X66824877Y-111100847D01*
X66699153Y-111226571D01*
X66699153Y-110975123D01*
X66628181Y-110799192D01*
X66215723Y-110647243D01*
X65776514Y-110664700D01*
X65451819Y-110799192D01*
X65380847Y-110975123D01*
X66040000Y-111634276D01*
X66699153Y-110975123D01*
X66699153Y-111226571D01*
X66165724Y-111760000D01*
X66824877Y-112419153D01*
X67000808Y-112348181D01*
X67152757Y-111935723D01*
X67152757Y-119151400D01*
X66699153Y-119151400D01*
X66699153Y-112544877D01*
X66040000Y-111885724D01*
X65380847Y-112544877D01*
X65451819Y-112720808D01*
X65864277Y-112872757D01*
X66303486Y-112855300D01*
X66628181Y-112720808D01*
X66699153Y-112544877D01*
X66699153Y-119151400D01*
X64998600Y-119151400D01*
X64998600Y-118888454D01*
X65427807Y-118459996D01*
X65954999Y-117190377D01*
X65956198Y-115815654D01*
X65431223Y-114545117D01*
X64998600Y-114111738D01*
X64998600Y-112153613D01*
X65079192Y-112348181D01*
X65255123Y-112419153D01*
X65914276Y-111760000D01*
X65255123Y-111100847D01*
X65079192Y-111171819D01*
X64998600Y-111390581D01*
X64998600Y-109459933D01*
X65145856Y-109816320D01*
X65442121Y-110113101D01*
X65829407Y-110273917D01*
X66248754Y-110274283D01*
X66636320Y-110114144D01*
X66933101Y-109817879D01*
X67093917Y-109430593D01*
X67094283Y-109011246D01*
X66934144Y-108623680D01*
X66637879Y-108326899D01*
X66250593Y-108166083D01*
X65831246Y-108165717D01*
X65443680Y-108325856D01*
X65146899Y-108622121D01*
X64998600Y-108979262D01*
X64998600Y-91719400D01*
X64333357Y-91719400D01*
X64333357Y-77798123D01*
X64315900Y-77358914D01*
X64181408Y-77034219D01*
X64005477Y-76963247D01*
X63879753Y-77088971D01*
X63879753Y-76837523D01*
X63808781Y-76661592D01*
X63396323Y-76509643D01*
X62957114Y-76527100D01*
X62632419Y-76661592D01*
X62561447Y-76837523D01*
X63220600Y-77496676D01*
X63879753Y-76837523D01*
X63879753Y-77088971D01*
X63346324Y-77622400D01*
X64005477Y-78281553D01*
X64181408Y-78210581D01*
X64333357Y-77798123D01*
X64333357Y-91719400D01*
X63879753Y-91719400D01*
X63879753Y-78407277D01*
X63220600Y-77748124D01*
X63094876Y-77873848D01*
X63094876Y-77622400D01*
X62435723Y-76963247D01*
X62259792Y-77034219D01*
X62107843Y-77446677D01*
X62125300Y-77885886D01*
X62259792Y-78210581D01*
X62435723Y-78281553D01*
X63094876Y-77622400D01*
X63094876Y-77873848D01*
X62561447Y-78407277D01*
X62632419Y-78583208D01*
X63044877Y-78735157D01*
X63484086Y-78717700D01*
X63808781Y-78583208D01*
X63879753Y-78407277D01*
X63879753Y-91719400D01*
X59918600Y-91719400D01*
X59918600Y-69305317D01*
X60540004Y-69927807D01*
X61809623Y-70454999D01*
X63184346Y-70456198D01*
X64454883Y-69931223D01*
X65427807Y-68959996D01*
X65954999Y-67690377D01*
X65956198Y-66315654D01*
X65431223Y-65045117D01*
X64719257Y-64331907D01*
X64919904Y-64236600D01*
X78340900Y-64236600D01*
X77981618Y-64595881D01*
X77553886Y-64510800D01*
X77506114Y-64510800D01*
X77039546Y-64603606D01*
X76644009Y-64867895D01*
X76379720Y-65263432D01*
X76286914Y-65730000D01*
X76379720Y-66196568D01*
X76597567Y-66522600D01*
X76555600Y-66522600D01*
X76370917Y-66559336D01*
X76233086Y-66651431D01*
X76233086Y-65730000D01*
X76140280Y-65263432D01*
X75875991Y-64867895D01*
X75480454Y-64603606D01*
X75013886Y-64510800D01*
X74966114Y-64510800D01*
X74499546Y-64603606D01*
X74104009Y-64867895D01*
X73839720Y-65263432D01*
X73746914Y-65730000D01*
X73839720Y-66196568D01*
X74104009Y-66592105D01*
X74499546Y-66856394D01*
X74966114Y-66949200D01*
X75013886Y-66949200D01*
X75480454Y-66856394D01*
X75875991Y-66592105D01*
X76140280Y-66196568D01*
X76233086Y-65730000D01*
X76233086Y-66651431D01*
X76214350Y-66663950D01*
X75909550Y-66968750D01*
X75804936Y-67125317D01*
X75768200Y-67310000D01*
X75768200Y-67335871D01*
X75480454Y-67143606D01*
X75013886Y-67050800D01*
X74966114Y-67050800D01*
X74499546Y-67143606D01*
X74104009Y-67407895D01*
X73839720Y-67803432D01*
X73746914Y-68270000D01*
X73839720Y-68736568D01*
X74104009Y-69132105D01*
X74499546Y-69396394D01*
X74966114Y-69489200D01*
X75013886Y-69489200D01*
X75331971Y-69425928D01*
X74374500Y-70383400D01*
X73914000Y-70383400D01*
X73729317Y-70420136D01*
X73693086Y-70444344D01*
X73693086Y-68270000D01*
X73687381Y-68241318D01*
X73687381Y-66015990D01*
X73687381Y-65444010D01*
X73527191Y-65057261D01*
X73187749Y-64696247D01*
X72735991Y-64492612D01*
X72538900Y-64564707D01*
X72538900Y-65641100D01*
X73615013Y-65641100D01*
X73687381Y-65444010D01*
X73687381Y-66015990D01*
X73615013Y-65818900D01*
X72538900Y-65818900D01*
X72538900Y-66895293D01*
X72735991Y-66967388D01*
X73187749Y-66763753D01*
X73527191Y-66402739D01*
X73687381Y-66015990D01*
X73687381Y-68241318D01*
X73600280Y-67803432D01*
X73335991Y-67407895D01*
X72940454Y-67143606D01*
X72473886Y-67050800D01*
X72426114Y-67050800D01*
X72361100Y-67063732D01*
X72361100Y-66895293D01*
X72361100Y-65818900D01*
X72361100Y-65641100D01*
X72361100Y-64564707D01*
X72164009Y-64492612D01*
X71712251Y-64696247D01*
X71372809Y-65057261D01*
X71212619Y-65444010D01*
X71284987Y-65641100D01*
X72361100Y-65641100D01*
X72361100Y-65818900D01*
X71284987Y-65818900D01*
X71212619Y-66015990D01*
X71372809Y-66402739D01*
X71712251Y-66763753D01*
X72164009Y-66967388D01*
X72361100Y-66895293D01*
X72361100Y-67063732D01*
X71959546Y-67143606D01*
X71564009Y-67407895D01*
X71299720Y-67803432D01*
X71206914Y-68270000D01*
X71299720Y-68736568D01*
X71300205Y-68737294D01*
X70392600Y-69644900D01*
X70392600Y-69397956D01*
X70400454Y-69396394D01*
X70795991Y-69132105D01*
X71060280Y-68736568D01*
X71153086Y-68270000D01*
X71153086Y-65730000D01*
X71060280Y-65263432D01*
X70795991Y-64867895D01*
X70400454Y-64603606D01*
X69933886Y-64510800D01*
X69886114Y-64510800D01*
X69419546Y-64603606D01*
X69024009Y-64867895D01*
X68759720Y-65263432D01*
X68666914Y-65730000D01*
X68759720Y-66196568D01*
X69024009Y-66592105D01*
X69419546Y-66856394D01*
X69886114Y-66949200D01*
X69933886Y-66949200D01*
X70400454Y-66856394D01*
X70795991Y-66592105D01*
X71060280Y-66196568D01*
X71153086Y-65730000D01*
X71153086Y-68270000D01*
X71060280Y-67803432D01*
X70795991Y-67407895D01*
X70400454Y-67143606D01*
X69933886Y-67050800D01*
X69886114Y-67050800D01*
X69419546Y-67143606D01*
X69024009Y-67407895D01*
X68759720Y-67803432D01*
X68666914Y-68270000D01*
X68759720Y-68736568D01*
X69024009Y-69132105D01*
X69419546Y-69396394D01*
X69427400Y-69397956D01*
X69427400Y-69590100D01*
X68613086Y-70404413D01*
X68613086Y-65730000D01*
X68520280Y-65263432D01*
X68255991Y-64867895D01*
X67860454Y-64603606D01*
X67393886Y-64510800D01*
X67346114Y-64510800D01*
X66879546Y-64603606D01*
X66484009Y-64867895D01*
X66219720Y-65263432D01*
X66126914Y-65730000D01*
X66219720Y-66196568D01*
X66484009Y-66592105D01*
X66879546Y-66856394D01*
X67346114Y-66949200D01*
X67393886Y-66949200D01*
X67860454Y-66856394D01*
X68255991Y-66592105D01*
X68520280Y-66196568D01*
X68613086Y-65730000D01*
X68613086Y-70404413D01*
X68589200Y-70428299D01*
X68589200Y-69204333D01*
X68589200Y-69062867D01*
X68589200Y-67335667D01*
X68535063Y-67204969D01*
X68435031Y-67104937D01*
X68304333Y-67050800D01*
X68162867Y-67050800D01*
X66435667Y-67050800D01*
X66304969Y-67104937D01*
X66204937Y-67204969D01*
X66150800Y-67335667D01*
X66150800Y-67477133D01*
X66150800Y-69204333D01*
X66204937Y-69335031D01*
X66304969Y-69435063D01*
X66435667Y-69489200D01*
X66577133Y-69489200D01*
X68304333Y-69489200D01*
X68435031Y-69435063D01*
X68535063Y-69335031D01*
X68589200Y-69204333D01*
X68589200Y-70428299D01*
X67870441Y-71147058D01*
X67776568Y-71084335D01*
X67310000Y-70991529D01*
X66843432Y-71084335D01*
X66447895Y-71348624D01*
X66183606Y-71744161D01*
X66090800Y-72210729D01*
X66090800Y-72569271D01*
X66150101Y-72867398D01*
X65898598Y-73118901D01*
X66036486Y-72678700D01*
X66036486Y-72101300D01*
X65887921Y-71627012D01*
X65569162Y-71245680D01*
X65128738Y-71015359D01*
X65055990Y-71000219D01*
X64858900Y-71072587D01*
X64858900Y-72301100D01*
X65940615Y-72301100D01*
X66036486Y-72101300D01*
X66036486Y-72678700D01*
X65940615Y-72478900D01*
X64858900Y-72478900D01*
X64858900Y-73707413D01*
X65055990Y-73779781D01*
X65128738Y-73764641D01*
X65388924Y-73628575D01*
X65103500Y-73914000D01*
X64681100Y-73914000D01*
X64681100Y-73707413D01*
X64681100Y-72478900D01*
X64681100Y-72301100D01*
X64681100Y-71072587D01*
X64484010Y-71000219D01*
X64411262Y-71015359D01*
X63970838Y-71245680D01*
X63652079Y-71627012D01*
X63503514Y-72101300D01*
X63599385Y-72301100D01*
X64681100Y-72301100D01*
X64681100Y-72478900D01*
X63599385Y-72478900D01*
X63503514Y-72678700D01*
X63652079Y-73152988D01*
X63970838Y-73534320D01*
X64411262Y-73764641D01*
X64484010Y-73779781D01*
X64681100Y-73707413D01*
X64681100Y-73914000D01*
X62534800Y-73914000D01*
X62350117Y-73950736D01*
X62193550Y-74055350D01*
X61341680Y-74907219D01*
X61335734Y-74904750D01*
X60992173Y-74904450D01*
X60674649Y-75035649D01*
X60431502Y-75278371D01*
X60299750Y-75595666D01*
X60299450Y-75939227D01*
X60430649Y-76256751D01*
X60673371Y-76499898D01*
X60990666Y-76631650D01*
X61334227Y-76631950D01*
X61651751Y-76500751D01*
X61894898Y-76258029D01*
X62026650Y-75940734D01*
X62026950Y-75597173D01*
X62023960Y-75589939D01*
X62734700Y-74879200D01*
X65303400Y-74879200D01*
X65488083Y-74842464D01*
X65644650Y-74737850D01*
X66749558Y-73632941D01*
X66843432Y-73695665D01*
X67310000Y-73788471D01*
X67776568Y-73695665D01*
X68172105Y-73431376D01*
X68436394Y-73035839D01*
X68529200Y-72569271D01*
X68529200Y-72210729D01*
X68469898Y-71912601D01*
X68895304Y-71487195D01*
X68723606Y-71744161D01*
X68630800Y-72210729D01*
X68630800Y-72569271D01*
X68723606Y-73035839D01*
X68987895Y-73431376D01*
X69383432Y-73695665D01*
X69850000Y-73788471D01*
X70316568Y-73695665D01*
X70712105Y-73431376D01*
X70976394Y-73035839D01*
X71069200Y-72569271D01*
X71069200Y-72210729D01*
X70976394Y-71744161D01*
X70712105Y-71348624D01*
X70332600Y-71095047D01*
X70332600Y-71069900D01*
X71998381Y-69404118D01*
X72426114Y-69489200D01*
X72473886Y-69489200D01*
X72940454Y-69396394D01*
X73335991Y-69132105D01*
X73600280Y-68736568D01*
X73693086Y-68270000D01*
X73693086Y-70444344D01*
X73572750Y-70524750D01*
X73572747Y-70524753D01*
X72950441Y-71147059D01*
X72856568Y-71084335D01*
X72390000Y-70991529D01*
X71923432Y-71084335D01*
X71527895Y-71348624D01*
X71263606Y-71744161D01*
X71170800Y-72210729D01*
X71170800Y-72569271D01*
X71263606Y-73035839D01*
X71527895Y-73431376D01*
X71923432Y-73695665D01*
X72390000Y-73788471D01*
X72856568Y-73695665D01*
X73252105Y-73431376D01*
X73516394Y-73035839D01*
X73609200Y-72569271D01*
X73609200Y-72210729D01*
X73549898Y-71912600D01*
X73975306Y-71487192D01*
X73803606Y-71744161D01*
X73710800Y-72210729D01*
X73710800Y-72569271D01*
X73803606Y-73035839D01*
X74067895Y-73431376D01*
X74463432Y-73695665D01*
X74930000Y-73788471D01*
X75090817Y-73756482D01*
X72048750Y-76798550D01*
X71944136Y-76955117D01*
X71907400Y-77139800D01*
X71907400Y-77589529D01*
X71478738Y-77365359D01*
X71405990Y-77350219D01*
X71208900Y-77422587D01*
X71208900Y-78651100D01*
X71228900Y-78651100D01*
X71228900Y-78828900D01*
X71208900Y-78828900D01*
X71208900Y-80057413D01*
X71405990Y-80129781D01*
X71478738Y-80114641D01*
X71907400Y-79890470D01*
X71907400Y-80086200D01*
X71944136Y-80270883D01*
X72048750Y-80427450D01*
X72379066Y-80757766D01*
X72081281Y-80880809D01*
X71738015Y-81223477D01*
X71552012Y-81671422D01*
X71551588Y-82156450D01*
X71736809Y-82604719D01*
X72079477Y-82947985D01*
X72527422Y-83133988D01*
X73012450Y-83134412D01*
X73460719Y-82949191D01*
X73803985Y-82606523D01*
X73989988Y-82158578D01*
X73990412Y-81673550D01*
X73805191Y-81225281D01*
X73682324Y-81102200D01*
X73815700Y-81102200D01*
X74177953Y-81464453D01*
X74092012Y-81671422D01*
X74091588Y-82156450D01*
X74276809Y-82604719D01*
X74619477Y-82947985D01*
X75067422Y-83133988D01*
X75552450Y-83134412D01*
X76000719Y-82949191D01*
X76343985Y-82606523D01*
X76529988Y-82158578D01*
X76530336Y-81759436D01*
X76631846Y-81860945D01*
X76631588Y-82156450D01*
X76816809Y-82604719D01*
X77159477Y-82947985D01*
X77607422Y-83133988D01*
X78092450Y-83134412D01*
X78540719Y-82949191D01*
X78663800Y-82826324D01*
X78663800Y-84456590D01*
X78657849Y-84459049D01*
X78414702Y-84701771D01*
X78282950Y-85019066D01*
X78282650Y-85362627D01*
X78413849Y-85680151D01*
X78656571Y-85923298D01*
X78973866Y-86055050D01*
X79317427Y-86055350D01*
X79634951Y-85924151D01*
X79878098Y-85681429D01*
X79908400Y-85608453D01*
X79908400Y-86542124D01*
X79724649Y-86618049D01*
X79481502Y-86860771D01*
X79349750Y-87178066D01*
X79349450Y-87521627D01*
X79480649Y-87839151D01*
X79723371Y-88082298D01*
X80040666Y-88214050D01*
X80384227Y-88214350D01*
X80701751Y-88083151D01*
X80944898Y-87840429D01*
X81076650Y-87523134D01*
X81076950Y-87179573D01*
X80945751Y-86862049D01*
X80873600Y-86789771D01*
X80873600Y-83034770D01*
X81080719Y-82949191D01*
X81178400Y-82851680D01*
X81178400Y-85671997D01*
X81107102Y-85743171D01*
X80975350Y-86060466D01*
X80975050Y-86404027D01*
X81106249Y-86721551D01*
X81348971Y-86964698D01*
X81666266Y-87096450D01*
X82009827Y-87096750D01*
X82327351Y-86965551D01*
X82570498Y-86722829D01*
X82702250Y-86405534D01*
X82702550Y-86061973D01*
X82571351Y-85744449D01*
X82328629Y-85501302D01*
X82143600Y-85424471D01*
X82143600Y-82851940D01*
X82239477Y-82947985D01*
X82687422Y-83133988D01*
X83172450Y-83134412D01*
X83620719Y-82949191D01*
X83963985Y-82606523D01*
X84149988Y-82158578D01*
X84150412Y-81673550D01*
X83965191Y-81225281D01*
X83731100Y-80990781D01*
X83731100Y-80057413D01*
X83731100Y-78828900D01*
X83731100Y-78651100D01*
X83731100Y-77517413D01*
X83731100Y-77422587D01*
X83731100Y-76288900D01*
X82649385Y-76288900D01*
X82553514Y-76488700D01*
X82702079Y-76962988D01*
X83020838Y-77344320D01*
X83261165Y-77470000D01*
X83020838Y-77595680D01*
X82702079Y-77977012D01*
X82553514Y-78451300D01*
X82649385Y-78651100D01*
X83731100Y-78651100D01*
X83731100Y-78828900D01*
X82649385Y-78828900D01*
X82553514Y-79028700D01*
X82702079Y-79502988D01*
X83020838Y-79884320D01*
X83461262Y-80114641D01*
X83534010Y-80129781D01*
X83731100Y-80057413D01*
X83731100Y-80990781D01*
X83622523Y-80882015D01*
X83174578Y-80696012D01*
X82689550Y-80695588D01*
X82241281Y-80880809D01*
X82143600Y-80978319D01*
X82143600Y-80289400D01*
X82106864Y-80104717D01*
X82002250Y-79948150D01*
X82002246Y-79948147D01*
X80452850Y-78398750D01*
X80296283Y-78294136D01*
X80111600Y-78257400D01*
X79959200Y-78257400D01*
X79959200Y-77653267D01*
X79905063Y-77522569D01*
X79805031Y-77422537D01*
X79674333Y-77368400D01*
X79532867Y-77368400D01*
X77805667Y-77368400D01*
X77674969Y-77422537D01*
X77574937Y-77522569D01*
X77520800Y-77653267D01*
X77520800Y-77794733D01*
X77520800Y-79826733D01*
X77526999Y-79841699D01*
X77224153Y-79538853D01*
X77326394Y-79385839D01*
X77419200Y-78919271D01*
X77419200Y-78560729D01*
X77326394Y-78094161D01*
X77062105Y-77698624D01*
X76666568Y-77434335D01*
X76200000Y-77341529D01*
X75733432Y-77434335D01*
X75412600Y-77648707D01*
X75412600Y-76476100D01*
X77009500Y-74879200D01*
X83358306Y-74879200D01*
X83020838Y-75055680D01*
X82702079Y-75437012D01*
X82553514Y-75911300D01*
X82649385Y-76111100D01*
X83731100Y-76111100D01*
X83731100Y-76091100D01*
X83908900Y-76091100D01*
X83908900Y-76111100D01*
X84990615Y-76111100D01*
X85086486Y-75911300D01*
X84937921Y-75437012D01*
X84619162Y-75055680D01*
X84281693Y-74879200D01*
X85969520Y-74879200D01*
X85893432Y-74894335D01*
X85497895Y-75158624D01*
X85233606Y-75554161D01*
X85140800Y-76020729D01*
X85140800Y-76379271D01*
X85233606Y-76845839D01*
X85497895Y-77241376D01*
X85840055Y-77470000D01*
X85497895Y-77698624D01*
X85233606Y-78094161D01*
X85140800Y-78560729D01*
X85140800Y-78919271D01*
X85233606Y-79385839D01*
X85497895Y-79781376D01*
X85893432Y-80045665D01*
X86360000Y-80138471D01*
X86826568Y-80045665D01*
X87222105Y-79781376D01*
X87486394Y-79385839D01*
X87579200Y-78919271D01*
X87579200Y-78560729D01*
X87486394Y-78094161D01*
X87222105Y-77698624D01*
X86879944Y-77470000D01*
X87222105Y-77241376D01*
X87486394Y-76845839D01*
X87579200Y-76379271D01*
X87579200Y-76020729D01*
X87521983Y-75733083D01*
X87702174Y-75913274D01*
X87680800Y-76020729D01*
X87680800Y-76379271D01*
X87773606Y-76845839D01*
X88037895Y-77241376D01*
X88380055Y-77470000D01*
X88037895Y-77698624D01*
X87773606Y-78094161D01*
X87680800Y-78560729D01*
X87680800Y-78919271D01*
X87773606Y-79385839D01*
X88037895Y-79781376D01*
X88417400Y-80034952D01*
X88417400Y-80264000D01*
X88454136Y-80448683D01*
X88558750Y-80605250D01*
X89417953Y-81464452D01*
X89332012Y-81671422D01*
X89331588Y-82156450D01*
X89516809Y-82604719D01*
X89859477Y-82947985D01*
X90307422Y-83133988D01*
X90792450Y-83134412D01*
X91240719Y-82949191D01*
X91583985Y-82606523D01*
X91769988Y-82158578D01*
X91770412Y-81673550D01*
X91585191Y-81225281D01*
X91242523Y-80882015D01*
X90794578Y-80696012D01*
X90309550Y-80695588D01*
X90100475Y-80781975D01*
X89382600Y-80064100D01*
X89382600Y-80034952D01*
X89762105Y-79781376D01*
X90026394Y-79385839D01*
X90119200Y-78919271D01*
X90119200Y-78560729D01*
X90026394Y-78094161D01*
X89762105Y-77698624D01*
X89419944Y-77470000D01*
X89762105Y-77241376D01*
X90026394Y-76845839D01*
X90119200Y-76379271D01*
X90119200Y-76020729D01*
X90026394Y-75554161D01*
X89762105Y-75158624D01*
X89571999Y-75031600D01*
X89986733Y-75031600D01*
X90117431Y-74977463D01*
X90217463Y-74877431D01*
X90271600Y-74746733D01*
X90271600Y-74605267D01*
X90271600Y-74372958D01*
X90443261Y-74629868D01*
X90740385Y-74828400D01*
X90505667Y-74828400D01*
X90374969Y-74882537D01*
X90274937Y-74982569D01*
X90220800Y-75113267D01*
X90220800Y-75254733D01*
X90220800Y-77286733D01*
X90274937Y-77417431D01*
X90327506Y-77470000D01*
X90274937Y-77522569D01*
X90220800Y-77653267D01*
X90220800Y-77794733D01*
X90220800Y-79826733D01*
X90274937Y-79957431D01*
X90374969Y-80057463D01*
X90505667Y-80111600D01*
X90647133Y-80111600D01*
X90957400Y-80111600D01*
X90957400Y-80264000D01*
X90994136Y-80448683D01*
X91098750Y-80605250D01*
X91957953Y-81464452D01*
X91872012Y-81671422D01*
X91871588Y-82156450D01*
X92056809Y-82604719D01*
X92399477Y-82947985D01*
X92847422Y-83133988D01*
X93332450Y-83134412D01*
X93780719Y-82949191D01*
X94123985Y-82606523D01*
X94309988Y-82158578D01*
X94310412Y-81673550D01*
X94125191Y-81225281D01*
X93782523Y-80882015D01*
X93334578Y-80696012D01*
X92849550Y-80695588D01*
X92640475Y-80781975D01*
X91970099Y-80111600D01*
X92374333Y-80111600D01*
X92505031Y-80057463D01*
X92605063Y-79957431D01*
X92659200Y-79826733D01*
X92659200Y-79685267D01*
X92659200Y-77653267D01*
X92605063Y-77522569D01*
X92552494Y-77470000D01*
X92605063Y-77417431D01*
X92659200Y-77286733D01*
X92659200Y-77145267D01*
X92659200Y-75113267D01*
X92605063Y-74982569D01*
X92505031Y-74882537D01*
X92374333Y-74828400D01*
X92232867Y-74828400D01*
X92139614Y-74828400D01*
X92436739Y-74629868D01*
X92734064Y-74184889D01*
X92742475Y-74142600D01*
X93370400Y-74142600D01*
X93555083Y-74105864D01*
X93711650Y-74001250D01*
X96973900Y-70739000D01*
X97815400Y-70739000D01*
X98000083Y-70702264D01*
X98156650Y-70597650D01*
X99452050Y-69302250D01*
X99546683Y-69160619D01*
X99899546Y-69396394D01*
X100366114Y-69489200D01*
X100413886Y-69489200D01*
X100880454Y-69396394D01*
X101275991Y-69132105D01*
X101540280Y-68736568D01*
X101591045Y-68481349D01*
X101608864Y-68454683D01*
X101645600Y-68270000D01*
X101608864Y-68085317D01*
X101591045Y-68058650D01*
X101540280Y-67803432D01*
X101275991Y-67407895D01*
X100880454Y-67143606D01*
X100413886Y-67050800D01*
X100366114Y-67050800D01*
X99899546Y-67143606D01*
X99593400Y-67348165D01*
X99593400Y-66651834D01*
X99899546Y-66856394D01*
X100366114Y-66949200D01*
X100413886Y-66949200D01*
X100880454Y-66856394D01*
X101275991Y-66592105D01*
X101540280Y-66196568D01*
X101633086Y-65730000D01*
X101540280Y-65263432D01*
X101275991Y-64867895D01*
X100880454Y-64603606D01*
X100413886Y-64510800D01*
X100366114Y-64510800D01*
X99899546Y-64603606D01*
X99504009Y-64867895D01*
X99488969Y-64890403D01*
X99452050Y-64835150D01*
X98853499Y-64236600D01*
X118377000Y-64236600D01*
X117572193Y-65040004D01*
X117045001Y-66309623D01*
X117043802Y-67684346D01*
X117568777Y-68954883D01*
X118540004Y-69927807D01*
X119809623Y-70454999D01*
X121184346Y-70456198D01*
X122454883Y-69931223D01*
X123215400Y-69172032D01*
X123215400Y-114261095D01*
X123215400Y-114261095D01*
G37*
X123215400Y-114261095D02*
X123183348Y-114296809D01*
X122459996Y-113572193D01*
X121762757Y-113282674D01*
X121762757Y-76375723D01*
X121745300Y-75936514D01*
X121704100Y-75837047D01*
X121704100Y-74429233D01*
X121704100Y-74287767D01*
X121704100Y-72890767D01*
X121649963Y-72760069D01*
X121549931Y-72660037D01*
X121419233Y-72605900D01*
X121277767Y-72605900D01*
X120368202Y-72605900D01*
X118305651Y-70543349D01*
X118128484Y-70424969D01*
X117919500Y-70383400D01*
X116873086Y-70383400D01*
X116873086Y-65730000D01*
X116780280Y-65263432D01*
X116515991Y-64867895D01*
X116120454Y-64603606D01*
X115653886Y-64510800D01*
X115606114Y-64510800D01*
X115139546Y-64603606D01*
X114744009Y-64867895D01*
X114479720Y-65263432D01*
X114386914Y-65730000D01*
X114479720Y-66196568D01*
X114744009Y-66592105D01*
X115139546Y-66856394D01*
X115606114Y-66949200D01*
X115653886Y-66949200D01*
X116120454Y-66856394D01*
X116515991Y-66592105D01*
X116780280Y-66196568D01*
X116873086Y-65730000D01*
X116873086Y-70383400D01*
X116867381Y-70383400D01*
X116867381Y-68555990D01*
X116867381Y-67984010D01*
X116707191Y-67597261D01*
X116367749Y-67236247D01*
X115915991Y-67032612D01*
X115718900Y-67104707D01*
X115718900Y-68181100D01*
X116795013Y-68181100D01*
X116867381Y-67984010D01*
X116867381Y-68555990D01*
X116795013Y-68358900D01*
X115718900Y-68358900D01*
X115718900Y-69435293D01*
X115915991Y-69507388D01*
X116367749Y-69303753D01*
X116707191Y-68942739D01*
X116867381Y-68555990D01*
X116867381Y-70383400D01*
X115541100Y-70383400D01*
X115541100Y-69435293D01*
X115541100Y-68358900D01*
X115541100Y-68181100D01*
X115541100Y-67104707D01*
X115344009Y-67032612D01*
X114892251Y-67236247D01*
X114552809Y-67597261D01*
X114392619Y-67984010D01*
X114464987Y-68181100D01*
X115541100Y-68181100D01*
X115541100Y-68358900D01*
X114464987Y-68358900D01*
X114392619Y-68555990D01*
X114552809Y-68942739D01*
X114892251Y-69303753D01*
X115344009Y-69507388D01*
X115541100Y-69435293D01*
X115541100Y-70383400D01*
X114490500Y-70383400D01*
X114410963Y-70399220D01*
X114333086Y-70407144D01*
X114333086Y-68270000D01*
X114333086Y-65730000D01*
X114240280Y-65263432D01*
X113975991Y-64867895D01*
X113580454Y-64603606D01*
X113113886Y-64510800D01*
X113066114Y-64510800D01*
X112599546Y-64603606D01*
X112204009Y-64867895D01*
X111939720Y-65263432D01*
X111846914Y-65730000D01*
X111939720Y-66196568D01*
X112204009Y-66592105D01*
X112599546Y-66856394D01*
X113066114Y-66949200D01*
X113113886Y-66949200D01*
X113580454Y-66856394D01*
X113975991Y-66592105D01*
X114240280Y-66196568D01*
X114333086Y-65730000D01*
X114333086Y-68270000D01*
X114240280Y-67803432D01*
X113975991Y-67407895D01*
X113580454Y-67143606D01*
X113113886Y-67050800D01*
X113066114Y-67050800D01*
X112599546Y-67143606D01*
X112204009Y-67407895D01*
X111939720Y-67803432D01*
X111846914Y-68270000D01*
X111939720Y-68736568D01*
X112204009Y-69132105D01*
X112599546Y-69396394D01*
X113066114Y-69489200D01*
X113113886Y-69489200D01*
X113580454Y-69396394D01*
X113975991Y-69132105D01*
X114240280Y-68736568D01*
X114333086Y-68270000D01*
X114333086Y-70407144D01*
X114330291Y-70407429D01*
X114307220Y-70419856D01*
X114281517Y-70424969D01*
X114214090Y-70470021D01*
X114142699Y-70508478D01*
X113378842Y-71139489D01*
X113240593Y-71082083D01*
X112821246Y-71081717D01*
X112681246Y-71139563D01*
X111917301Y-70508478D01*
X111845909Y-70470021D01*
X111793086Y-70434726D01*
X111793086Y-68270000D01*
X111793086Y-65730000D01*
X111700280Y-65263432D01*
X111435991Y-64867895D01*
X111040454Y-64603606D01*
X110573886Y-64510800D01*
X110526114Y-64510800D01*
X110059546Y-64603606D01*
X109664009Y-64867895D01*
X109399720Y-65263432D01*
X109306914Y-65730000D01*
X109399720Y-66196568D01*
X109664009Y-66592105D01*
X110059546Y-66856394D01*
X110526114Y-66949200D01*
X110573886Y-66949200D01*
X111040454Y-66856394D01*
X111435991Y-66592105D01*
X111700280Y-66196568D01*
X111793086Y-65730000D01*
X111793086Y-68270000D01*
X111700280Y-67803432D01*
X111435991Y-67407895D01*
X111040454Y-67143606D01*
X110573886Y-67050800D01*
X110526114Y-67050800D01*
X110059546Y-67143606D01*
X109664009Y-67407895D01*
X109399720Y-67803432D01*
X109306914Y-68270000D01*
X109399720Y-68736568D01*
X109664009Y-69132105D01*
X110059546Y-69396394D01*
X110526114Y-69489200D01*
X110573886Y-69489200D01*
X111040454Y-69396394D01*
X111435991Y-69132105D01*
X111700280Y-68736568D01*
X111793086Y-68270000D01*
X111793086Y-70434726D01*
X111778483Y-70424969D01*
X111752779Y-70419856D01*
X111729709Y-70407429D01*
X111649036Y-70399220D01*
X111569500Y-70383400D01*
X109410500Y-70383400D01*
X109330963Y-70399220D01*
X109253086Y-70407144D01*
X109253086Y-68270000D01*
X109247381Y-68241318D01*
X109247381Y-66015990D01*
X109247381Y-65444010D01*
X109087191Y-65057261D01*
X108747749Y-64696247D01*
X108295991Y-64492612D01*
X108098900Y-64564707D01*
X108098900Y-65641100D01*
X109175013Y-65641100D01*
X109247381Y-65444010D01*
X109247381Y-66015990D01*
X109175013Y-65818900D01*
X108098900Y-65818900D01*
X108098900Y-66895293D01*
X108295991Y-66967388D01*
X108747749Y-66763753D01*
X109087191Y-66402739D01*
X109247381Y-66015990D01*
X109247381Y-68241318D01*
X109160280Y-67803432D01*
X108895991Y-67407895D01*
X108500454Y-67143606D01*
X108033886Y-67050800D01*
X107986114Y-67050800D01*
X107921100Y-67063732D01*
X107921100Y-66895293D01*
X107921100Y-65818900D01*
X107921100Y-65641100D01*
X107921100Y-64564707D01*
X107724009Y-64492612D01*
X107272251Y-64696247D01*
X106932809Y-65057261D01*
X106772619Y-65444010D01*
X106844987Y-65641100D01*
X107921100Y-65641100D01*
X107921100Y-65818900D01*
X106844987Y-65818900D01*
X106772619Y-66015990D01*
X106932809Y-66402739D01*
X107272251Y-66763753D01*
X107724009Y-66967388D01*
X107921100Y-66895293D01*
X107921100Y-67063732D01*
X107519546Y-67143606D01*
X107124009Y-67407895D01*
X106859720Y-67803432D01*
X106766914Y-68270000D01*
X106859720Y-68736568D01*
X107124009Y-69132105D01*
X107519546Y-69396394D01*
X107986114Y-69489200D01*
X108033886Y-69489200D01*
X108500454Y-69396394D01*
X108895991Y-69132105D01*
X109160280Y-68736568D01*
X109253086Y-68270000D01*
X109253086Y-70407144D01*
X109250291Y-70407429D01*
X109227220Y-70419856D01*
X109201517Y-70424969D01*
X109134090Y-70470021D01*
X109062699Y-70508478D01*
X108298842Y-71139489D01*
X108160593Y-71082083D01*
X107741246Y-71081717D01*
X107353680Y-71241856D01*
X107056899Y-71538121D01*
X106896083Y-71925407D01*
X106895717Y-72344754D01*
X107055856Y-72732320D01*
X107246603Y-72923400D01*
X106997505Y-72923400D01*
X106997500Y-72923399D01*
X106812817Y-72960136D01*
X106713086Y-73026773D01*
X106713086Y-68270000D01*
X106713086Y-65730000D01*
X106620280Y-65263432D01*
X106355991Y-64867895D01*
X105960454Y-64603606D01*
X105493886Y-64510800D01*
X105446114Y-64510800D01*
X104979546Y-64603606D01*
X104584009Y-64867895D01*
X104319720Y-65263432D01*
X104226914Y-65730000D01*
X104319720Y-66196568D01*
X104584009Y-66592105D01*
X104979546Y-66856394D01*
X105446114Y-66949200D01*
X105493886Y-66949200D01*
X105960454Y-66856394D01*
X106355991Y-66592105D01*
X106620280Y-66196568D01*
X106713086Y-65730000D01*
X106713086Y-68270000D01*
X106620280Y-67803432D01*
X106355991Y-67407895D01*
X105960454Y-67143606D01*
X105493886Y-67050800D01*
X105446114Y-67050800D01*
X104979546Y-67143606D01*
X104584009Y-67407895D01*
X104319720Y-67803432D01*
X104226914Y-68270000D01*
X104319720Y-68736568D01*
X104584009Y-69132105D01*
X104979546Y-69396394D01*
X105446114Y-69489200D01*
X105493886Y-69489200D01*
X105960454Y-69396394D01*
X106355991Y-69132105D01*
X106620280Y-68736568D01*
X106713086Y-68270000D01*
X106713086Y-73026773D01*
X106656250Y-73064750D01*
X105194283Y-74526716D01*
X105194283Y-72181246D01*
X105034144Y-71793680D01*
X104737879Y-71496899D01*
X104350593Y-71336083D01*
X104173086Y-71335928D01*
X104173086Y-68270000D01*
X104167381Y-68241318D01*
X104167381Y-66015990D01*
X104167381Y-65444010D01*
X104007191Y-65057261D01*
X103667749Y-64696247D01*
X103215991Y-64492612D01*
X103018900Y-64564707D01*
X103018900Y-65641100D01*
X104095013Y-65641100D01*
X104167381Y-65444010D01*
X104167381Y-66015990D01*
X104095013Y-65818900D01*
X103018900Y-65818900D01*
X103018900Y-66895293D01*
X103215991Y-66967388D01*
X103667749Y-66763753D01*
X104007191Y-66402739D01*
X104167381Y-66015990D01*
X104167381Y-68241318D01*
X104080280Y-67803432D01*
X103815991Y-67407895D01*
X103420454Y-67143606D01*
X102953886Y-67050800D01*
X102906114Y-67050800D01*
X102841100Y-67063732D01*
X102841100Y-66895293D01*
X102841100Y-65818900D01*
X102841100Y-65641100D01*
X102841100Y-64564707D01*
X102644009Y-64492612D01*
X102192251Y-64696247D01*
X101852809Y-65057261D01*
X101692619Y-65444010D01*
X101764987Y-65641100D01*
X102841100Y-65641100D01*
X102841100Y-65818900D01*
X101764987Y-65818900D01*
X101692619Y-66015990D01*
X101852809Y-66402739D01*
X102192251Y-66763753D01*
X102644009Y-66967388D01*
X102841100Y-66895293D01*
X102841100Y-67063732D01*
X102439546Y-67143606D01*
X102044009Y-67407895D01*
X101779720Y-67803432D01*
X101686914Y-68270000D01*
X101779720Y-68736568D01*
X102044009Y-69132105D01*
X102439546Y-69396394D01*
X102906114Y-69489200D01*
X102953886Y-69489200D01*
X103420454Y-69396394D01*
X103815991Y-69132105D01*
X104080280Y-68736568D01*
X104173086Y-68270000D01*
X104173086Y-71335928D01*
X103931246Y-71335717D01*
X103543680Y-71495856D01*
X103246899Y-71792121D01*
X103086083Y-72179407D01*
X103085717Y-72598754D01*
X103245856Y-72986320D01*
X103542121Y-73283101D01*
X103929407Y-73443917D01*
X104348754Y-73444283D01*
X104736320Y-73284144D01*
X105033101Y-72987879D01*
X105193917Y-72600593D01*
X105194283Y-72181246D01*
X105194283Y-74526716D01*
X104509099Y-75211900D01*
X104350593Y-75146083D01*
X103931246Y-75145717D01*
X103543680Y-75305856D01*
X103246899Y-75602121D01*
X103086083Y-75989407D01*
X103085717Y-76408754D01*
X103245856Y-76796320D01*
X103542121Y-77093101D01*
X103657400Y-77140969D01*
X103657400Y-78729050D01*
X103588240Y-78742807D01*
X103143261Y-79040132D01*
X103022400Y-79221013D01*
X103022400Y-79074838D01*
X103022400Y-78913162D01*
X102960529Y-78763793D01*
X102846207Y-78649471D01*
X102712757Y-78594193D01*
X102712757Y-72565723D01*
X102695300Y-72126514D01*
X102560808Y-71801819D01*
X102384877Y-71730847D01*
X102259153Y-71856571D01*
X102259153Y-71605123D01*
X102188181Y-71429192D01*
X101775723Y-71277243D01*
X101336514Y-71294700D01*
X101011819Y-71429192D01*
X100940847Y-71605123D01*
X101600000Y-72264276D01*
X102259153Y-71605123D01*
X102259153Y-71856571D01*
X101725724Y-72390000D01*
X102384877Y-73049153D01*
X102560808Y-72978181D01*
X102712757Y-72565723D01*
X102712757Y-78594193D01*
X102696838Y-78587600D01*
X102654283Y-78587600D01*
X102654283Y-75991246D01*
X102494144Y-75603680D01*
X102259153Y-75368279D01*
X102259153Y-73174877D01*
X101600000Y-72515724D01*
X101474276Y-72641448D01*
X101474276Y-72390000D01*
X100815123Y-71730847D01*
X100639192Y-71801819D01*
X100487243Y-72214277D01*
X100504700Y-72653486D01*
X100639192Y-72978181D01*
X100815123Y-73049153D01*
X101474276Y-72390000D01*
X101474276Y-72641448D01*
X100940847Y-73174877D01*
X101011819Y-73350808D01*
X101424277Y-73502757D01*
X101863486Y-73485300D01*
X102188181Y-73350808D01*
X102259153Y-73174877D01*
X102259153Y-75368279D01*
X102197879Y-75306899D01*
X101810593Y-75146083D01*
X101391246Y-75145717D01*
X101003680Y-75305856D01*
X100706899Y-75602121D01*
X100546083Y-75989407D01*
X100545717Y-76408754D01*
X100705856Y-76796320D01*
X101002121Y-77093101D01*
X101389407Y-77253917D01*
X101808754Y-77254283D01*
X102196320Y-77094144D01*
X102493101Y-76797879D01*
X102653917Y-76410593D01*
X102654283Y-75991246D01*
X102654283Y-78587600D01*
X101790500Y-78587600D01*
X101688900Y-78689200D01*
X101688900Y-79921100D01*
X101708900Y-79921100D01*
X101708900Y-80098900D01*
X101688900Y-80098900D01*
X101688900Y-81330800D01*
X101790500Y-81432400D01*
X102696838Y-81432400D01*
X102846207Y-81370529D01*
X102960529Y-81256207D01*
X103022400Y-81106838D01*
X103022400Y-80945162D01*
X103022400Y-80798986D01*
X103143261Y-80979868D01*
X103588240Y-81277193D01*
X104113129Y-81381600D01*
X104166871Y-81381600D01*
X104691760Y-81277193D01*
X105136739Y-80979868D01*
X105434064Y-80534889D01*
X105538471Y-80010000D01*
X105434064Y-79485111D01*
X105136739Y-79040132D01*
X104691760Y-78742807D01*
X104622600Y-78729050D01*
X104622600Y-77141132D01*
X104736320Y-77094144D01*
X105033101Y-76797879D01*
X105193917Y-76410593D01*
X105194283Y-75991246D01*
X105165182Y-75920817D01*
X106867437Y-74218562D01*
X106823606Y-74284161D01*
X106730800Y-74750729D01*
X106730800Y-75109271D01*
X106823606Y-75575839D01*
X107087895Y-75971376D01*
X107483432Y-76235665D01*
X107950000Y-76328471D01*
X108416568Y-76235665D01*
X108812105Y-75971376D01*
X109076394Y-75575839D01*
X109169200Y-75109271D01*
X109169200Y-74750729D01*
X109076394Y-74284161D01*
X108904694Y-74027194D01*
X109330101Y-74452600D01*
X109270800Y-74750729D01*
X109270800Y-75109271D01*
X109363606Y-75575839D01*
X109627895Y-75971376D01*
X110023432Y-76235665D01*
X110490000Y-76328471D01*
X110956568Y-76235665D01*
X111352105Y-75971376D01*
X111616394Y-75575839D01*
X111709200Y-75109271D01*
X111709200Y-74750729D01*
X111616394Y-74284161D01*
X111352105Y-73888624D01*
X110956568Y-73624335D01*
X110490000Y-73531529D01*
X110023432Y-73624335D01*
X109929558Y-73687059D01*
X109307250Y-73064750D01*
X109150683Y-72960136D01*
X108966000Y-72923400D01*
X108653249Y-72923400D01*
X108843101Y-72733879D01*
X109003917Y-72346593D01*
X109004242Y-71973439D01*
X109606890Y-71475600D01*
X109659528Y-71475600D01*
X109596899Y-71538121D01*
X109436083Y-71925407D01*
X109435717Y-72344754D01*
X109595856Y-72732320D01*
X109892121Y-73029101D01*
X110279407Y-73189917D01*
X110698754Y-73190283D01*
X111086320Y-73030144D01*
X111211591Y-72905090D01*
X111990247Y-73683746D01*
X111990250Y-73683750D01*
X111990251Y-73683750D01*
X112146817Y-73788364D01*
X112278686Y-73814595D01*
X112167895Y-73888624D01*
X111903606Y-74284161D01*
X111810800Y-74750729D01*
X111810800Y-75109271D01*
X111903606Y-75575839D01*
X112167895Y-75971376D01*
X112563432Y-76235665D01*
X113030000Y-76328471D01*
X113496568Y-76235665D01*
X113892105Y-75971376D01*
X114156394Y-75575839D01*
X114249200Y-75109271D01*
X114249200Y-74750729D01*
X114156394Y-74284161D01*
X113984695Y-74027195D01*
X114410101Y-74452601D01*
X114350800Y-74750729D01*
X114350800Y-75109271D01*
X114443606Y-75575839D01*
X114707895Y-75971376D01*
X115103432Y-76235665D01*
X115570000Y-76328471D01*
X116036568Y-76235665D01*
X116432105Y-75971376D01*
X116696394Y-75575839D01*
X116789200Y-75109271D01*
X116789200Y-74750729D01*
X116696394Y-74284161D01*
X116432105Y-73888624D01*
X116036568Y-73624335D01*
X115570000Y-73531529D01*
X115103432Y-73624335D01*
X115009558Y-73687058D01*
X114323750Y-73001250D01*
X114167183Y-72896636D01*
X113982500Y-72859900D01*
X113796860Y-72859900D01*
X113923101Y-72733879D01*
X114083917Y-72346593D01*
X114084242Y-71973439D01*
X114686890Y-71475600D01*
X114739528Y-71475600D01*
X114676899Y-71538121D01*
X114516083Y-71925407D01*
X114515717Y-72344754D01*
X114675856Y-72732320D01*
X114972121Y-73029101D01*
X115359407Y-73189917D01*
X115778754Y-73190283D01*
X116166320Y-73030144D01*
X116463101Y-72733879D01*
X116623917Y-72346593D01*
X116624283Y-71927246D01*
X116464144Y-71539680D01*
X116400175Y-71475600D01*
X117693297Y-71475600D01*
X119595900Y-73378202D01*
X119595900Y-74429233D01*
X119650037Y-74559931D01*
X119750069Y-74659963D01*
X119880767Y-74714100D01*
X120022233Y-74714100D01*
X121419233Y-74714100D01*
X121549931Y-74659963D01*
X121649963Y-74559931D01*
X121704100Y-74429233D01*
X121704100Y-75837047D01*
X121610808Y-75611819D01*
X121434877Y-75540847D01*
X121309153Y-75666571D01*
X121309153Y-75415123D01*
X121238181Y-75239192D01*
X120825723Y-75087243D01*
X120386514Y-75104700D01*
X120061819Y-75239192D01*
X119990847Y-75415123D01*
X120650000Y-76074276D01*
X121309153Y-75415123D01*
X121309153Y-75666571D01*
X120775724Y-76200000D01*
X121434877Y-76859153D01*
X121610808Y-76788181D01*
X121762757Y-76375723D01*
X121762757Y-113282674D01*
X121309153Y-113094321D01*
X121309153Y-76984877D01*
X120650000Y-76325724D01*
X120524276Y-76451448D01*
X120524276Y-76200000D01*
X119865123Y-75540847D01*
X119689192Y-75611819D01*
X119537243Y-76024277D01*
X119554700Y-76463486D01*
X119689192Y-76788181D01*
X119865123Y-76859153D01*
X120524276Y-76200000D01*
X120524276Y-76451448D01*
X119990847Y-76984877D01*
X120061819Y-77160808D01*
X120474277Y-77312757D01*
X120913486Y-77295300D01*
X121238181Y-77160808D01*
X121309153Y-76984877D01*
X121309153Y-113094321D01*
X121190377Y-113045001D01*
X119815654Y-113043802D01*
X118545117Y-113568777D01*
X117572193Y-114540004D01*
X117045001Y-115809623D01*
X117043802Y-117184346D01*
X117568777Y-118454883D01*
X118264079Y-119151400D01*
X116836486Y-119151400D01*
X116836486Y-82838700D01*
X116836486Y-82261300D01*
X116687921Y-81787012D01*
X116369162Y-81405680D01*
X115928738Y-81175359D01*
X115855990Y-81160219D01*
X115658900Y-81232587D01*
X115658900Y-82461100D01*
X116740615Y-82461100D01*
X116836486Y-82261300D01*
X116836486Y-82838700D01*
X116740615Y-82638900D01*
X115658900Y-82638900D01*
X115658900Y-83867413D01*
X115855990Y-83939781D01*
X115928738Y-83924641D01*
X116369162Y-83694320D01*
X116687921Y-83312988D01*
X116836486Y-82838700D01*
X116836486Y-119151400D01*
X116200157Y-119151400D01*
X116200157Y-86738923D01*
X116182700Y-86299714D01*
X116048208Y-85975019D01*
X115872277Y-85904047D01*
X115746553Y-86029771D01*
X115746553Y-85778323D01*
X115675581Y-85602392D01*
X115481100Y-85530745D01*
X115481100Y-83867413D01*
X115481100Y-82638900D01*
X115481100Y-82461100D01*
X115481100Y-81232587D01*
X115284010Y-81160219D01*
X115211262Y-81175359D01*
X114770838Y-81405680D01*
X114452079Y-81787012D01*
X114303514Y-82261300D01*
X114399385Y-82461100D01*
X115481100Y-82461100D01*
X115481100Y-82638900D01*
X114399385Y-82638900D01*
X114303514Y-82838700D01*
X114452079Y-83312988D01*
X114770838Y-83694320D01*
X115211262Y-83924641D01*
X115284010Y-83939781D01*
X115481100Y-83867413D01*
X115481100Y-85530745D01*
X115263123Y-85450443D01*
X114823914Y-85467900D01*
X114499219Y-85602392D01*
X114428247Y-85778323D01*
X115087400Y-86437476D01*
X115746553Y-85778323D01*
X115746553Y-86029771D01*
X115213124Y-86563200D01*
X115872277Y-87222353D01*
X116048208Y-87151381D01*
X116200157Y-86738923D01*
X116200157Y-119151400D01*
X116019580Y-119151400D01*
X116019580Y-91271090D01*
X116019580Y-90970100D01*
X116019580Y-90792300D01*
X116019580Y-90491310D01*
X115920402Y-90170508D01*
X115746553Y-89960951D01*
X115746553Y-87348077D01*
X115087400Y-86688924D01*
X114961676Y-86814648D01*
X114961676Y-86563200D01*
X114302523Y-85904047D01*
X114296486Y-85906482D01*
X114296486Y-82838700D01*
X114296486Y-82261300D01*
X114147921Y-81787012D01*
X113829162Y-81405680D01*
X113388738Y-81175359D01*
X113315990Y-81160219D01*
X113118900Y-81232587D01*
X113118900Y-82461100D01*
X114200615Y-82461100D01*
X114296486Y-82261300D01*
X114296486Y-82838700D01*
X114200615Y-82638900D01*
X113118900Y-82638900D01*
X113118900Y-83867413D01*
X113315990Y-83939781D01*
X113388738Y-83924641D01*
X113829162Y-83694320D01*
X114147921Y-83312988D01*
X114296486Y-82838700D01*
X114296486Y-85906482D01*
X114126592Y-85975019D01*
X113974643Y-86387477D01*
X113992100Y-86826686D01*
X114126592Y-87151381D01*
X114302523Y-87222353D01*
X114961676Y-86563200D01*
X114961676Y-86814648D01*
X114428247Y-87348077D01*
X114499219Y-87524008D01*
X114911677Y-87675957D01*
X115350886Y-87658500D01*
X115675581Y-87524008D01*
X115746553Y-87348077D01*
X115746553Y-89960951D01*
X115706008Y-89912079D01*
X115409037Y-89755367D01*
X115384586Y-89753248D01*
X115252500Y-89831087D01*
X115252500Y-90792300D01*
X116019580Y-90792300D01*
X116019580Y-90970100D01*
X115252500Y-90970100D01*
X115252500Y-91931313D01*
X115384586Y-92009152D01*
X115409037Y-92007033D01*
X115706008Y-91850321D01*
X115920402Y-91591892D01*
X116019580Y-91271090D01*
X116019580Y-119151400D01*
X115074700Y-119151400D01*
X115074700Y-91931313D01*
X115074700Y-90970100D01*
X115054700Y-90970100D01*
X115054700Y-90792300D01*
X115074700Y-90792300D01*
X115074700Y-89831087D01*
X114942614Y-89753248D01*
X114918163Y-89755367D01*
X114621192Y-89912079D01*
X114505003Y-90052131D01*
X114462948Y-89989191D01*
X114201729Y-89814650D01*
X113893600Y-89753359D01*
X113585471Y-89814650D01*
X113324252Y-89989191D01*
X113258600Y-90087446D01*
X113192948Y-89989191D01*
X113093500Y-89922741D01*
X113093500Y-87478094D01*
X113143720Y-87457344D01*
X113440501Y-87161079D01*
X113601317Y-86773793D01*
X113601683Y-86354446D01*
X113441544Y-85966880D01*
X113145279Y-85670099D01*
X112941100Y-85585316D01*
X112941100Y-83867413D01*
X112941100Y-82638900D01*
X112941100Y-82461100D01*
X112941100Y-81232587D01*
X112744010Y-81160219D01*
X112671262Y-81175359D01*
X112230838Y-81405680D01*
X111912079Y-81787012D01*
X111763514Y-82261300D01*
X111859385Y-82461100D01*
X112941100Y-82461100D01*
X112941100Y-82638900D01*
X111859385Y-82638900D01*
X111763514Y-82838700D01*
X111912079Y-83312988D01*
X112230838Y-83694320D01*
X112671262Y-83924641D01*
X112744010Y-83939781D01*
X112941100Y-83867413D01*
X112941100Y-85585316D01*
X112757993Y-85509283D01*
X112338646Y-85508917D01*
X111951080Y-85669056D01*
X111756486Y-85863311D01*
X111756486Y-82838700D01*
X111756486Y-82261300D01*
X111607921Y-81787012D01*
X111289162Y-81405680D01*
X110848738Y-81175359D01*
X110775990Y-81160219D01*
X110578900Y-81232587D01*
X110578900Y-82461100D01*
X111660615Y-82461100D01*
X111756486Y-82261300D01*
X111756486Y-82838700D01*
X111660615Y-82638900D01*
X110578900Y-82638900D01*
X110578900Y-83867413D01*
X110775990Y-83939781D01*
X110848738Y-83924641D01*
X111289162Y-83694320D01*
X111607921Y-83312988D01*
X111756486Y-82838700D01*
X111756486Y-85863311D01*
X111654299Y-85965321D01*
X111493483Y-86352607D01*
X111493117Y-86771954D01*
X111514527Y-86823770D01*
X110401100Y-87937197D01*
X110401100Y-83867413D01*
X110401100Y-82638900D01*
X110401100Y-82461100D01*
X110401100Y-81232587D01*
X110204010Y-81160219D01*
X110131262Y-81175359D01*
X109690838Y-81405680D01*
X109372079Y-81787012D01*
X109223514Y-82261300D01*
X109319385Y-82461100D01*
X110401100Y-82461100D01*
X110401100Y-82638900D01*
X109319385Y-82638900D01*
X109223514Y-82838700D01*
X109372079Y-83312988D01*
X109690838Y-83694320D01*
X110131262Y-83924641D01*
X110204010Y-83939781D01*
X110401100Y-83867413D01*
X110401100Y-87937197D01*
X109216486Y-89121811D01*
X109216486Y-82838700D01*
X109216486Y-82261300D01*
X109067921Y-81787012D01*
X108749162Y-81405680D01*
X108308738Y-81175359D01*
X108235990Y-81160219D01*
X108038900Y-81232587D01*
X108038900Y-82461100D01*
X109120615Y-82461100D01*
X109216486Y-82261300D01*
X109216486Y-82838700D01*
X109120615Y-82638900D01*
X108038900Y-82638900D01*
X108038900Y-83867413D01*
X108235990Y-83939781D01*
X108308738Y-83924641D01*
X108749162Y-83694320D01*
X109067921Y-83312988D01*
X109216486Y-82838700D01*
X109216486Y-89121811D01*
X107861100Y-90477197D01*
X107861100Y-83867413D01*
X107861100Y-82638900D01*
X107861100Y-82461100D01*
X107861100Y-81232587D01*
X107664010Y-81160219D01*
X107591262Y-81175359D01*
X107150838Y-81405680D01*
X106832079Y-81787012D01*
X106683514Y-82261300D01*
X106779385Y-82461100D01*
X107861100Y-82461100D01*
X107861100Y-82638900D01*
X106779385Y-82638900D01*
X106683514Y-82838700D01*
X106832079Y-83312988D01*
X107150838Y-83694320D01*
X107591262Y-83924641D01*
X107664010Y-83939781D01*
X107861100Y-83867413D01*
X107861100Y-90477197D01*
X107734283Y-90604014D01*
X107734283Y-88691246D01*
X107574144Y-88303680D01*
X107277879Y-88006899D01*
X106890593Y-87846083D01*
X106471246Y-87845717D01*
X106083680Y-88005856D01*
X105786899Y-88302121D01*
X105739030Y-88417400D01*
X105391642Y-88417400D01*
X105391642Y-84029067D01*
X105376373Y-83534170D01*
X105216360Y-83147865D01*
X105025929Y-83059794D01*
X104900206Y-83185517D01*
X104900206Y-82934071D01*
X104812135Y-82743640D01*
X104349067Y-82568358D01*
X103854170Y-82583627D01*
X103467865Y-82743640D01*
X103379794Y-82934071D01*
X104140000Y-83694276D01*
X104900206Y-82934071D01*
X104900206Y-83185517D01*
X104265724Y-83820000D01*
X105025929Y-84580206D01*
X105216360Y-84492135D01*
X105391642Y-84029067D01*
X105391642Y-88417400D01*
X105334007Y-88417400D01*
X105334007Y-86123580D01*
X105152645Y-85684650D01*
X104900206Y-85431770D01*
X104900206Y-84705929D01*
X104140000Y-83945724D01*
X104014276Y-84071447D01*
X104014276Y-83820000D01*
X103254071Y-83059794D01*
X103063640Y-83147865D01*
X102888358Y-83610933D01*
X102903627Y-84105830D01*
X103063640Y-84492135D01*
X103254071Y-84580206D01*
X104014276Y-83820000D01*
X104014276Y-84071447D01*
X103379794Y-84705929D01*
X103467865Y-84896360D01*
X103930933Y-85071642D01*
X104425830Y-85056373D01*
X104812135Y-84896360D01*
X104900206Y-84705929D01*
X104900206Y-85431770D01*
X104817116Y-85348536D01*
X104378503Y-85166408D01*
X103903580Y-85165993D01*
X103464650Y-85347355D01*
X103128536Y-85682884D01*
X102946408Y-86121497D01*
X102945993Y-86596420D01*
X103127355Y-87035350D01*
X103462884Y-87371464D01*
X103901497Y-87553592D01*
X104376420Y-87554007D01*
X104815350Y-87372645D01*
X105151464Y-87037116D01*
X105333592Y-86598503D01*
X105334007Y-86123580D01*
X105334007Y-88417400D01*
X104749600Y-88417400D01*
X104564917Y-88454136D01*
X104408350Y-88558750D01*
X104408347Y-88558753D01*
X103152700Y-89814400D01*
X102147296Y-89814400D01*
X102196320Y-89794144D01*
X102493101Y-89497879D01*
X102653917Y-89110593D01*
X102654283Y-88691246D01*
X102494144Y-88303680D01*
X102197879Y-88006899D01*
X101810593Y-87846083D01*
X101511100Y-87845821D01*
X101511100Y-81330800D01*
X101511100Y-80098900D01*
X101511100Y-79921100D01*
X101511100Y-78689200D01*
X101409500Y-78587600D01*
X100503162Y-78587600D01*
X100353793Y-78649471D01*
X100239471Y-78763793D01*
X100177600Y-78913162D01*
X100177600Y-79074838D01*
X100177600Y-79819500D01*
X100279200Y-79921100D01*
X101511100Y-79921100D01*
X101511100Y-80098900D01*
X100279200Y-80098900D01*
X100177600Y-80200500D01*
X100177600Y-80945162D01*
X100177600Y-81106838D01*
X100239471Y-81256207D01*
X100353793Y-81370529D01*
X100503162Y-81432400D01*
X101409500Y-81432400D01*
X101511100Y-81330800D01*
X101511100Y-87845821D01*
X101391246Y-87845717D01*
X101003680Y-88005856D01*
X100706899Y-88302121D01*
X100546083Y-88689407D01*
X100545717Y-89108754D01*
X100705856Y-89496320D01*
X101002121Y-89793101D01*
X101053414Y-89814400D01*
X99390412Y-89814400D01*
X99390412Y-81673550D01*
X99205191Y-81225281D01*
X98862523Y-80882015D01*
X98414578Y-80696012D01*
X97929550Y-80695588D01*
X97481281Y-80880809D01*
X97138015Y-81223477D01*
X96952012Y-81671422D01*
X96951588Y-82156450D01*
X97136809Y-82604719D01*
X97479477Y-82947985D01*
X97927422Y-83133988D01*
X98412450Y-83134412D01*
X98860719Y-82949191D01*
X99203985Y-82606523D01*
X99389988Y-82158578D01*
X99390412Y-81673550D01*
X99390412Y-89814400D01*
X96850412Y-89814400D01*
X96850412Y-81673550D01*
X96665191Y-81225281D01*
X96322523Y-80882015D01*
X95874578Y-80696012D01*
X95389550Y-80695588D01*
X94941281Y-80880809D01*
X94598015Y-81223477D01*
X94412012Y-81671422D01*
X94411588Y-82156450D01*
X94596809Y-82604719D01*
X94939477Y-82947985D01*
X95387422Y-83133988D01*
X95872450Y-83134412D01*
X96320719Y-82949191D01*
X96663985Y-82606523D01*
X96849988Y-82158578D01*
X96850412Y-81673550D01*
X96850412Y-89814400D01*
X92329005Y-89814400D01*
X92329000Y-89814399D01*
X92144317Y-89851136D01*
X91987750Y-89955750D01*
X91987747Y-89955753D01*
X89230412Y-92713088D01*
X89230412Y-81673550D01*
X89045191Y-81225281D01*
X88702523Y-80882015D01*
X88254578Y-80696012D01*
X87769550Y-80695588D01*
X87321281Y-80880809D01*
X86978015Y-81223477D01*
X86792012Y-81671422D01*
X86791588Y-82156450D01*
X86976809Y-82604719D01*
X87319477Y-82947985D01*
X87767422Y-83133988D01*
X88252450Y-83134412D01*
X88700719Y-82949191D01*
X89043985Y-82606523D01*
X89229988Y-82158578D01*
X89230412Y-81673550D01*
X89230412Y-92713088D01*
X86690412Y-95253088D01*
X86690412Y-81673550D01*
X86505191Y-81225281D01*
X86162523Y-80882015D01*
X85714578Y-80696012D01*
X85229550Y-80695588D01*
X85086486Y-80754700D01*
X85086486Y-79028700D01*
X85086486Y-78451300D01*
X84937921Y-77977012D01*
X84619162Y-77595680D01*
X84378834Y-77470000D01*
X84619162Y-77344320D01*
X84937921Y-76962988D01*
X85086486Y-76488700D01*
X84990615Y-76288900D01*
X83908900Y-76288900D01*
X83908900Y-77422587D01*
X83908900Y-77517413D01*
X83908900Y-78651100D01*
X84990615Y-78651100D01*
X85086486Y-78451300D01*
X85086486Y-79028700D01*
X84990615Y-78828900D01*
X83908900Y-78828900D01*
X83908900Y-80057413D01*
X84105990Y-80129781D01*
X84178738Y-80114641D01*
X84619162Y-79884320D01*
X84937921Y-79502988D01*
X85086486Y-79028700D01*
X85086486Y-80754700D01*
X84781281Y-80880809D01*
X84438015Y-81223477D01*
X84252012Y-81671422D01*
X84251588Y-82156450D01*
X84436809Y-82604719D01*
X84779477Y-82947985D01*
X85227422Y-83133988D01*
X85712450Y-83134412D01*
X86160719Y-82949191D01*
X86503985Y-82606523D01*
X86689988Y-82158578D01*
X86690412Y-81673550D01*
X86690412Y-95253088D01*
X80841547Y-101101953D01*
X80634578Y-101016012D01*
X80149550Y-101015588D01*
X79701281Y-101200809D01*
X79358015Y-101543477D01*
X79172012Y-101991422D01*
X79171588Y-102476450D01*
X79356809Y-102924719D01*
X79699477Y-103267985D01*
X80147422Y-103453988D01*
X80632450Y-103454412D01*
X81080719Y-103269191D01*
X81423985Y-102926523D01*
X81609988Y-102478578D01*
X81610412Y-101993550D01*
X81524024Y-101784475D01*
X82448400Y-100860099D01*
X82448400Y-101115229D01*
X82241281Y-101200809D01*
X81898015Y-101543477D01*
X81712012Y-101991422D01*
X81711588Y-102476450D01*
X81896809Y-102924719D01*
X82239477Y-103267985D01*
X82687422Y-103453988D01*
X83172450Y-103454412D01*
X83620719Y-103269191D01*
X83963985Y-102926523D01*
X84149988Y-102478578D01*
X84150412Y-101993550D01*
X83965191Y-101545281D01*
X83622523Y-101202015D01*
X83413600Y-101115262D01*
X83413600Y-100809300D01*
X92300300Y-91922600D01*
X100658867Y-91922600D01*
X100705856Y-92036320D01*
X101002121Y-92333101D01*
X101389407Y-92493917D01*
X101808754Y-92494283D01*
X102196320Y-92334144D01*
X102493101Y-92037879D01*
X102653917Y-91650593D01*
X102654283Y-91231246D01*
X102494144Y-90843680D01*
X102430175Y-90779600D01*
X103352600Y-90779600D01*
X103537283Y-90742864D01*
X103693850Y-90638250D01*
X104949499Y-89382600D01*
X105738867Y-89382600D01*
X105785856Y-89496320D01*
X106082121Y-89793101D01*
X106469407Y-89953917D01*
X106888754Y-89954283D01*
X107276320Y-89794144D01*
X107573101Y-89497879D01*
X107733917Y-89110593D01*
X107734283Y-88691246D01*
X107734283Y-90604014D01*
X107534415Y-90803882D01*
X107277879Y-90546899D01*
X106890593Y-90386083D01*
X106471246Y-90385717D01*
X106083680Y-90545856D01*
X105786899Y-90842121D01*
X105626083Y-91229407D01*
X105625717Y-91648754D01*
X105785856Y-92036320D01*
X106082121Y-92333101D01*
X106469407Y-92493917D01*
X106888754Y-92494283D01*
X107276320Y-92334144D01*
X107573101Y-92037879D01*
X107594601Y-91986100D01*
X107670600Y-91986100D01*
X107879583Y-91944531D01*
X107879584Y-91944531D01*
X108056751Y-91826151D01*
X112001300Y-87881602D01*
X112001300Y-90068439D01*
X111879711Y-90250410D01*
X111818420Y-90558539D01*
X111818420Y-91203861D01*
X111879711Y-91511990D01*
X112054252Y-91773209D01*
X112315471Y-91947750D01*
X112623600Y-92009041D01*
X112931729Y-91947750D01*
X113192948Y-91773209D01*
X113258600Y-91674953D01*
X113324252Y-91773209D01*
X113585471Y-91947750D01*
X113893600Y-92009041D01*
X114201729Y-91947750D01*
X114462948Y-91773209D01*
X114505003Y-91710268D01*
X114621192Y-91850321D01*
X114918163Y-92007033D01*
X114942614Y-92009152D01*
X115074700Y-91931313D01*
X115074700Y-119151400D01*
X105765600Y-119151400D01*
X105765600Y-117830600D01*
X105765600Y-99212400D01*
X105252757Y-99212400D01*
X105252757Y-95425723D01*
X105235300Y-94986514D01*
X105100808Y-94661819D01*
X104924877Y-94590847D01*
X104799153Y-94716571D01*
X104799153Y-94465123D01*
X104728181Y-94289192D01*
X104315723Y-94137243D01*
X103876514Y-94154700D01*
X103551819Y-94289192D01*
X103480847Y-94465123D01*
X104140000Y-95124276D01*
X104799153Y-94465123D01*
X104799153Y-94716571D01*
X104265724Y-95250000D01*
X104924877Y-95909153D01*
X105100808Y-95838181D01*
X105252757Y-95425723D01*
X105252757Y-99212400D01*
X105194100Y-99212400D01*
X105194100Y-98559233D01*
X105194100Y-98417767D01*
X105194100Y-97020767D01*
X105139963Y-96890069D01*
X105039931Y-96790037D01*
X104909233Y-96735900D01*
X104799153Y-96735900D01*
X104799153Y-96034877D01*
X104140000Y-95375724D01*
X104014276Y-95501448D01*
X104014276Y-95250000D01*
X103355123Y-94590847D01*
X103179192Y-94661819D01*
X103027243Y-95074277D01*
X103044700Y-95513486D01*
X103179192Y-95838181D01*
X103355123Y-95909153D01*
X104014276Y-95250000D01*
X104014276Y-95501448D01*
X103480847Y-96034877D01*
X103551819Y-96210808D01*
X103964277Y-96362757D01*
X104403486Y-96345300D01*
X104728181Y-96210808D01*
X104799153Y-96034877D01*
X104799153Y-96735900D01*
X104767767Y-96735900D01*
X103370767Y-96735900D01*
X103240069Y-96790037D01*
X103140037Y-96890069D01*
X103085900Y-97020767D01*
X103085900Y-97162233D01*
X103085900Y-98559233D01*
X103140037Y-98689931D01*
X103240069Y-98789963D01*
X103370767Y-98844100D01*
X103512233Y-98844100D01*
X104909233Y-98844100D01*
X105039931Y-98789963D01*
X105139963Y-98689931D01*
X105194100Y-98559233D01*
X105194100Y-99212400D01*
X102133400Y-99212400D01*
X102133400Y-117830600D01*
X105765600Y-117830600D01*
X105765600Y-119151400D01*
X105664000Y-119151400D01*
X99390412Y-119151400D01*
X99390412Y-101993550D01*
X99205191Y-101545281D01*
X98862523Y-101202015D01*
X98414578Y-101016012D01*
X97929550Y-101015588D01*
X97481281Y-101200809D01*
X97138015Y-101543477D01*
X96952012Y-101991422D01*
X96951588Y-102476450D01*
X97136809Y-102924719D01*
X97479477Y-103267985D01*
X97927422Y-103453988D01*
X98412450Y-103454412D01*
X98860719Y-103269191D01*
X99203985Y-102926523D01*
X99389988Y-102478578D01*
X99390412Y-101993550D01*
X99390412Y-119151400D01*
X96850412Y-119151400D01*
X96850412Y-101993550D01*
X96665191Y-101545281D01*
X96322523Y-101202015D01*
X95874578Y-101016012D01*
X95389550Y-101015588D01*
X94941281Y-101200809D01*
X94598015Y-101543477D01*
X94412012Y-101991422D01*
X94411588Y-102476450D01*
X94596809Y-102924719D01*
X94939477Y-103267985D01*
X95387422Y-103453988D01*
X95872450Y-103454412D01*
X96320719Y-103269191D01*
X96663985Y-102926523D01*
X96849988Y-102478578D01*
X96850412Y-101993550D01*
X96850412Y-119151400D01*
X94310412Y-119151400D01*
X94310412Y-101993550D01*
X94125191Y-101545281D01*
X93782523Y-101202015D01*
X93334578Y-101016012D01*
X92849550Y-101015588D01*
X92401281Y-101200809D01*
X92058015Y-101543477D01*
X91872012Y-101991422D01*
X91871588Y-102476450D01*
X92056809Y-102924719D01*
X92399477Y-103267985D01*
X92847422Y-103453988D01*
X93332450Y-103454412D01*
X93780719Y-103269191D01*
X94123985Y-102926523D01*
X94309988Y-102478578D01*
X94310412Y-101993550D01*
X94310412Y-119151400D01*
X91770412Y-119151400D01*
X91770412Y-101993550D01*
X91585191Y-101545281D01*
X91242523Y-101202015D01*
X90794578Y-101016012D01*
X90309550Y-101015588D01*
X89861281Y-101200809D01*
X89518015Y-101543477D01*
X89332012Y-101991422D01*
X89331588Y-102476450D01*
X89516809Y-102924719D01*
X89859477Y-103267985D01*
X90307422Y-103453988D01*
X90792450Y-103454412D01*
X91240719Y-103269191D01*
X91583985Y-102926523D01*
X91769988Y-102478578D01*
X91770412Y-101993550D01*
X91770412Y-119151400D01*
X89230412Y-119151400D01*
X89230412Y-101993550D01*
X89045191Y-101545281D01*
X88702523Y-101202015D01*
X88254578Y-101016012D01*
X87769550Y-101015588D01*
X87321281Y-101200809D01*
X86978015Y-101543477D01*
X86792012Y-101991422D01*
X86791588Y-102476450D01*
X86976809Y-102924719D01*
X87319477Y-103267985D01*
X87767422Y-103453988D01*
X88252450Y-103454412D01*
X88700719Y-103269191D01*
X89043985Y-102926523D01*
X89229988Y-102478578D01*
X89230412Y-101993550D01*
X89230412Y-119151400D01*
X86690412Y-119151400D01*
X86690412Y-101993550D01*
X86505191Y-101545281D01*
X86162523Y-101202015D01*
X85714578Y-101016012D01*
X85229550Y-101015588D01*
X84781281Y-101200809D01*
X84438015Y-101543477D01*
X84252012Y-101991422D01*
X84251588Y-102476450D01*
X84436809Y-102924719D01*
X84779477Y-103267985D01*
X85227422Y-103453988D01*
X85712450Y-103454412D01*
X86160719Y-103269191D01*
X86503985Y-102926523D01*
X86689988Y-102478578D01*
X86690412Y-101993550D01*
X86690412Y-119151400D01*
X79756000Y-119151400D01*
X79756000Y-107264200D01*
X79756000Y-103657400D01*
X79719264Y-103472717D01*
X79614650Y-103316150D01*
X79614646Y-103316147D01*
X78984046Y-102685547D01*
X79069988Y-102478578D01*
X79070412Y-101993550D01*
X78885191Y-101545281D01*
X78542523Y-101202015D01*
X78094578Y-101016012D01*
X77609550Y-101015588D01*
X77161281Y-101200809D01*
X76818015Y-101543477D01*
X76632012Y-101991422D01*
X76631588Y-102476450D01*
X76816809Y-102924719D01*
X77159477Y-103267985D01*
X77607422Y-103453988D01*
X78092450Y-103454412D01*
X78301524Y-103368024D01*
X78790800Y-103857299D01*
X78790800Y-107064300D01*
X78590900Y-107264200D01*
X78155800Y-107264200D01*
X78155800Y-105230686D01*
X78155800Y-105182914D01*
X78062994Y-104716346D01*
X77798705Y-104320809D01*
X77403168Y-104056520D01*
X76936600Y-103963714D01*
X76530412Y-104044509D01*
X76530412Y-101993550D01*
X76345191Y-101545281D01*
X76002523Y-101202015D01*
X75554578Y-101016012D01*
X75069550Y-101015588D01*
X74621281Y-101200809D01*
X74278015Y-101543477D01*
X74092012Y-101991422D01*
X74091588Y-102476450D01*
X74276809Y-102924719D01*
X74619477Y-103267985D01*
X75067422Y-103453988D01*
X75552450Y-103454412D01*
X76000719Y-103269191D01*
X76343985Y-102926523D01*
X76529988Y-102478578D01*
X76530412Y-101993550D01*
X76530412Y-104044509D01*
X76470032Y-104056520D01*
X76074495Y-104320809D01*
X75810206Y-104716346D01*
X75717400Y-105182914D01*
X75717400Y-105230686D01*
X75810206Y-105697254D01*
X76074495Y-106092791D01*
X76470032Y-106357080D01*
X76936600Y-106449886D01*
X77403168Y-106357080D01*
X77798705Y-106092791D01*
X78062994Y-105697254D01*
X78155800Y-105230686D01*
X78155800Y-107264200D01*
X78064556Y-107264200D01*
X78062994Y-107256346D01*
X77798705Y-106860809D01*
X77403168Y-106596520D01*
X76936600Y-106503714D01*
X76470032Y-106596520D01*
X76074495Y-106860809D01*
X75810206Y-107256346D01*
X75717400Y-107722914D01*
X75717400Y-107770686D01*
X75810206Y-108237254D01*
X76074495Y-108632791D01*
X76470032Y-108897080D01*
X76936600Y-108989886D01*
X77403168Y-108897080D01*
X77798705Y-108632791D01*
X78062994Y-108237254D01*
X78064556Y-108229400D01*
X78790800Y-108229400D01*
X78975483Y-108192664D01*
X79132050Y-108088050D01*
X79614646Y-107605452D01*
X79614649Y-107605450D01*
X79614650Y-107605450D01*
X79719264Y-107448883D01*
X79756000Y-107264200D01*
X79756000Y-119151400D01*
X78155800Y-119151400D01*
X78155800Y-112850686D01*
X78155800Y-112802914D01*
X78155800Y-110310686D01*
X78155800Y-110262914D01*
X78062994Y-109796346D01*
X77798705Y-109400809D01*
X77403168Y-109136520D01*
X76936600Y-109043714D01*
X76470032Y-109136520D01*
X76074495Y-109400809D01*
X75810206Y-109796346D01*
X75717400Y-110262914D01*
X75717400Y-110310686D01*
X75810206Y-110777254D01*
X76074495Y-111172791D01*
X76470032Y-111437080D01*
X76936600Y-111529886D01*
X77403168Y-111437080D01*
X77798705Y-111172791D01*
X78062994Y-110777254D01*
X78155800Y-110310686D01*
X78155800Y-112802914D01*
X78062994Y-112336346D01*
X77798705Y-111940809D01*
X77403168Y-111676520D01*
X76936600Y-111583714D01*
X76470032Y-111676520D01*
X76074495Y-111940809D01*
X75810206Y-112336346D01*
X75717400Y-112802914D01*
X75717400Y-112850686D01*
X75810206Y-113317254D01*
X76074495Y-113712791D01*
X76470032Y-113977080D01*
X76936600Y-114069886D01*
X77403168Y-113977080D01*
X77798705Y-113712791D01*
X78062994Y-113317254D01*
X78155800Y-112850686D01*
X78155800Y-119151400D01*
X75666600Y-119151400D01*
X75666600Y-106151238D01*
X75666600Y-105397300D01*
X75666600Y-105016300D01*
X75666600Y-104262362D01*
X75604729Y-104112993D01*
X75490407Y-103998671D01*
X75341038Y-103936800D01*
X75179362Y-103936800D01*
X74587100Y-103936800D01*
X74485500Y-104038400D01*
X74485500Y-105117900D01*
X75565000Y-105117900D01*
X75666600Y-105016300D01*
X75666600Y-105397300D01*
X75565000Y-105295700D01*
X74485500Y-105295700D01*
X74485500Y-106375200D01*
X74587100Y-106476800D01*
X75179362Y-106476800D01*
X75341038Y-106476800D01*
X75490407Y-106414929D01*
X75604729Y-106300607D01*
X75666600Y-106151238D01*
X75666600Y-119151400D01*
X75615800Y-119151400D01*
X75615800Y-112850686D01*
X75615800Y-112802914D01*
X75615800Y-110310686D01*
X75615800Y-110262914D01*
X75615800Y-107770686D01*
X75615800Y-107722914D01*
X75522994Y-107256346D01*
X75258705Y-106860809D01*
X74863168Y-106596520D01*
X74396600Y-106503714D01*
X74307700Y-106521397D01*
X74307700Y-106375200D01*
X74307700Y-105295700D01*
X74307700Y-105117900D01*
X74307700Y-104038400D01*
X74206100Y-103936800D01*
X73990412Y-103936800D01*
X73990412Y-101993550D01*
X73805191Y-101545281D01*
X73462523Y-101202015D01*
X73014578Y-101016012D01*
X72529550Y-101015588D01*
X72081281Y-101200809D01*
X71738015Y-101543477D01*
X71552012Y-101991422D01*
X71551588Y-102476450D01*
X71736809Y-102924719D01*
X72079477Y-103267985D01*
X72527422Y-103453988D01*
X73012450Y-103454412D01*
X73460719Y-103269191D01*
X73803985Y-102926523D01*
X73989988Y-102478578D01*
X73990412Y-101993550D01*
X73990412Y-103936800D01*
X73613838Y-103936800D01*
X73452162Y-103936800D01*
X73302793Y-103998671D01*
X73188471Y-104112993D01*
X73126600Y-104262362D01*
X73126600Y-105016300D01*
X73228200Y-105117900D01*
X74307700Y-105117900D01*
X74307700Y-105295700D01*
X73228200Y-105295700D01*
X73126600Y-105397300D01*
X73126600Y-106151238D01*
X73188471Y-106300607D01*
X73302793Y-106414929D01*
X73452162Y-106476800D01*
X73613838Y-106476800D01*
X74206100Y-106476800D01*
X74307700Y-106375200D01*
X74307700Y-106521397D01*
X73930032Y-106596520D01*
X73534495Y-106860809D01*
X73270206Y-107256346D01*
X73177400Y-107722914D01*
X73177400Y-107770686D01*
X73270206Y-108237254D01*
X73534495Y-108632791D01*
X73930032Y-108897080D01*
X74396600Y-108989886D01*
X74863168Y-108897080D01*
X75258705Y-108632791D01*
X75522994Y-108237254D01*
X75615800Y-107770686D01*
X75615800Y-110262914D01*
X75522994Y-109796346D01*
X75258705Y-109400809D01*
X74863168Y-109136520D01*
X74396600Y-109043714D01*
X73930032Y-109136520D01*
X73534495Y-109400809D01*
X73270206Y-109796346D01*
X73177400Y-110262914D01*
X73177400Y-110310686D01*
X73270206Y-110777254D01*
X73534495Y-111172791D01*
X73930032Y-111437080D01*
X74396600Y-111529886D01*
X74863168Y-111437080D01*
X75258705Y-111172791D01*
X75522994Y-110777254D01*
X75615800Y-110310686D01*
X75615800Y-112802914D01*
X75522994Y-112336346D01*
X75258705Y-111940809D01*
X74863168Y-111676520D01*
X74396600Y-111583714D01*
X73930032Y-111676520D01*
X73534495Y-111940809D01*
X73270206Y-112336346D01*
X73177400Y-112802914D01*
X73177400Y-112850686D01*
X73270206Y-113317254D01*
X73534495Y-113712791D01*
X73930032Y-113977080D01*
X74396600Y-114069886D01*
X74863168Y-113977080D01*
X75258705Y-113712791D01*
X75522994Y-113317254D01*
X75615800Y-112850686D01*
X75615800Y-119151400D01*
X71925180Y-119151400D01*
X71925180Y-115892661D01*
X71925180Y-115247339D01*
X71863889Y-114939210D01*
X71689348Y-114677991D01*
X71450412Y-114518339D01*
X71450412Y-101993550D01*
X71450412Y-81673550D01*
X71265191Y-81225281D01*
X71031100Y-80990781D01*
X71031100Y-80057413D01*
X71031100Y-78828900D01*
X71031100Y-78651100D01*
X71031100Y-77422587D01*
X70834010Y-77350219D01*
X70761262Y-77365359D01*
X70320838Y-77595680D01*
X70002079Y-77977012D01*
X69853514Y-78451300D01*
X69949385Y-78651100D01*
X71031100Y-78651100D01*
X71031100Y-78828900D01*
X69949385Y-78828900D01*
X69853514Y-79028700D01*
X70002079Y-79502988D01*
X70320838Y-79884320D01*
X70761262Y-80114641D01*
X70834010Y-80129781D01*
X71031100Y-80057413D01*
X71031100Y-80990781D01*
X70922523Y-80882015D01*
X70474578Y-80696012D01*
X69989550Y-80695588D01*
X69844021Y-80755719D01*
X66814700Y-77726398D01*
X66814700Y-76853167D01*
X66760563Y-76722469D01*
X66660531Y-76622437D01*
X66529833Y-76568300D01*
X66388367Y-76568300D01*
X64991367Y-76568300D01*
X64860669Y-76622437D01*
X64760637Y-76722469D01*
X64706500Y-76853167D01*
X64706500Y-76994633D01*
X64706500Y-78391633D01*
X64760637Y-78522331D01*
X64860669Y-78622363D01*
X64991367Y-78676500D01*
X65132833Y-78676500D01*
X66220198Y-78676500D01*
X68350873Y-80807175D01*
X67906127Y-80638114D01*
X67401108Y-80652986D01*
X67003606Y-80817637D01*
X66912429Y-81010706D01*
X67691000Y-81789276D01*
X67705142Y-81775134D01*
X67830865Y-81900857D01*
X67816724Y-81915000D01*
X68595294Y-82693571D01*
X68788363Y-82602394D01*
X68967886Y-82130127D01*
X68953014Y-81625108D01*
X68800425Y-81256727D01*
X69071604Y-81527906D01*
X69012012Y-81671422D01*
X69011588Y-82156450D01*
X69196809Y-82604719D01*
X69539477Y-82947985D01*
X69987422Y-83133988D01*
X70472450Y-83134412D01*
X70920719Y-82949191D01*
X71263985Y-82606523D01*
X71449988Y-82158578D01*
X71450412Y-81673550D01*
X71450412Y-101993550D01*
X71265191Y-101545281D01*
X70922523Y-101202015D01*
X70474578Y-101016012D01*
X69989550Y-101015588D01*
X69541281Y-101200809D01*
X69198015Y-101543477D01*
X69012012Y-101991422D01*
X69011588Y-102476450D01*
X69196809Y-102924719D01*
X69539477Y-103267985D01*
X69987422Y-103453988D01*
X70472450Y-103454412D01*
X70920719Y-103269191D01*
X71263985Y-102926523D01*
X71449988Y-102478578D01*
X71450412Y-101993550D01*
X71450412Y-114518339D01*
X71428129Y-114503450D01*
X71120000Y-114442159D01*
X70962757Y-114473436D01*
X70962757Y-109395723D01*
X70945300Y-108956514D01*
X70810808Y-108631819D01*
X70634877Y-108560847D01*
X70509153Y-108686571D01*
X70509153Y-108435123D01*
X70438181Y-108259192D01*
X70025723Y-108107243D01*
X69586514Y-108124700D01*
X69261819Y-108259192D01*
X69190847Y-108435123D01*
X69850000Y-109094276D01*
X70509153Y-108435123D01*
X70509153Y-108686571D01*
X69975724Y-109220000D01*
X70634877Y-109879153D01*
X70810808Y-109808181D01*
X70962757Y-109395723D01*
X70962757Y-114473436D01*
X70904283Y-114485068D01*
X70904283Y-111551246D01*
X70744144Y-111163680D01*
X70509153Y-110928279D01*
X70509153Y-110004877D01*
X69850000Y-109345724D01*
X69724276Y-109471448D01*
X69724276Y-109220000D01*
X69065123Y-108560847D01*
X68910412Y-108623258D01*
X68910412Y-101993550D01*
X68725191Y-101545281D01*
X68469571Y-101289214D01*
X68469571Y-82819294D01*
X67691000Y-82040724D01*
X67565276Y-82166447D01*
X67565276Y-81915000D01*
X66786706Y-81136429D01*
X66593637Y-81227606D01*
X66414114Y-81699873D01*
X66428986Y-82204892D01*
X66593637Y-82602394D01*
X66786706Y-82693571D01*
X67565276Y-81915000D01*
X67565276Y-82166447D01*
X66912429Y-82819294D01*
X67003606Y-83012363D01*
X67475873Y-83191886D01*
X67980892Y-83177014D01*
X68378394Y-83012363D01*
X68469571Y-82819294D01*
X68469571Y-101289214D01*
X68382523Y-101202015D01*
X67934578Y-101016012D01*
X67449550Y-101015588D01*
X67001281Y-101200809D01*
X66658015Y-101543477D01*
X66472012Y-101991422D01*
X66471588Y-102476450D01*
X66656809Y-102924719D01*
X66999477Y-103267985D01*
X67447422Y-103453988D01*
X67932450Y-103454412D01*
X68380719Y-103269191D01*
X68723985Y-102926523D01*
X68909988Y-102478578D01*
X68910412Y-101993550D01*
X68910412Y-108623258D01*
X68889192Y-108631819D01*
X68737243Y-109044277D01*
X68754700Y-109483486D01*
X68889192Y-109808181D01*
X69065123Y-109879153D01*
X69724276Y-109220000D01*
X69724276Y-109471448D01*
X69190847Y-110004877D01*
X69261819Y-110180808D01*
X69674277Y-110332757D01*
X70113486Y-110315300D01*
X70438181Y-110180808D01*
X70509153Y-110004877D01*
X70509153Y-110928279D01*
X70447879Y-110866899D01*
X70060593Y-110706083D01*
X69641246Y-110705717D01*
X69253680Y-110865856D01*
X68956899Y-111162121D01*
X68796083Y-111549407D01*
X68795717Y-111968754D01*
X68955856Y-112356320D01*
X69252121Y-112653101D01*
X69639407Y-112813917D01*
X70058754Y-112814283D01*
X70446320Y-112654144D01*
X70743101Y-112357879D01*
X70903917Y-111970593D01*
X70904283Y-111551246D01*
X70904283Y-114485068D01*
X70811871Y-114503450D01*
X70550652Y-114677991D01*
X70485000Y-114776246D01*
X70419348Y-114677991D01*
X70158129Y-114503450D01*
X69850000Y-114442159D01*
X69541871Y-114503450D01*
X69280652Y-114677991D01*
X69238596Y-114740931D01*
X69122408Y-114600879D01*
X68825437Y-114444167D01*
X68800986Y-114442048D01*
X68668900Y-114519887D01*
X68668900Y-115481100D01*
X68688900Y-115481100D01*
X68688900Y-115658900D01*
X68668900Y-115658900D01*
X68668900Y-116620113D01*
X68800986Y-116697952D01*
X68825437Y-116695833D01*
X69122408Y-116539121D01*
X69238596Y-116399068D01*
X69280652Y-116462009D01*
X69541871Y-116636550D01*
X69850000Y-116697841D01*
X70158129Y-116636550D01*
X70419348Y-116462009D01*
X70485000Y-116363753D01*
X70550652Y-116462009D01*
X70811871Y-116636550D01*
X71120000Y-116697841D01*
X71428129Y-116636550D01*
X71689348Y-116462009D01*
X71863889Y-116200790D01*
X71925180Y-115892661D01*
X71925180Y-119151400D01*
X68491100Y-119151400D01*
X68491100Y-116620113D01*
X68491100Y-115658900D01*
X68491100Y-115481100D01*
X68491100Y-114519887D01*
X68359014Y-114442048D01*
X68334563Y-114444167D01*
X68037592Y-114600879D01*
X67823198Y-114859308D01*
X67724020Y-115180110D01*
X67724020Y-115481100D01*
X68491100Y-115481100D01*
X68491100Y-115658900D01*
X67724020Y-115658900D01*
X67724020Y-115959890D01*
X67823198Y-116280692D01*
X68037592Y-116539121D01*
X68334563Y-116695833D01*
X68359014Y-116697952D01*
X68491100Y-116620113D01*
X68491100Y-119151400D01*
X67152757Y-119151400D01*
X67152757Y-111935723D01*
X67135300Y-111496514D01*
X67000808Y-111171819D01*
X66824877Y-111100847D01*
X66699153Y-111226571D01*
X66699153Y-110975123D01*
X66628181Y-110799192D01*
X66215723Y-110647243D01*
X65776514Y-110664700D01*
X65451819Y-110799192D01*
X65380847Y-110975123D01*
X66040000Y-111634276D01*
X66699153Y-110975123D01*
X66699153Y-111226571D01*
X66165724Y-111760000D01*
X66824877Y-112419153D01*
X67000808Y-112348181D01*
X67152757Y-111935723D01*
X67152757Y-119151400D01*
X66699153Y-119151400D01*
X66699153Y-112544877D01*
X66040000Y-111885724D01*
X65380847Y-112544877D01*
X65451819Y-112720808D01*
X65864277Y-112872757D01*
X66303486Y-112855300D01*
X66628181Y-112720808D01*
X66699153Y-112544877D01*
X66699153Y-119151400D01*
X64998600Y-119151400D01*
X64998600Y-118888454D01*
X65427807Y-118459996D01*
X65954999Y-117190377D01*
X65956198Y-115815654D01*
X65431223Y-114545117D01*
X64998600Y-114111738D01*
X64998600Y-112153613D01*
X65079192Y-112348181D01*
X65255123Y-112419153D01*
X65914276Y-111760000D01*
X65255123Y-111100847D01*
X65079192Y-111171819D01*
X64998600Y-111390581D01*
X64998600Y-109459933D01*
X65145856Y-109816320D01*
X65442121Y-110113101D01*
X65829407Y-110273917D01*
X66248754Y-110274283D01*
X66636320Y-110114144D01*
X66933101Y-109817879D01*
X67093917Y-109430593D01*
X67094283Y-109011246D01*
X66934144Y-108623680D01*
X66637879Y-108326899D01*
X66250593Y-108166083D01*
X65831246Y-108165717D01*
X65443680Y-108325856D01*
X65146899Y-108622121D01*
X64998600Y-108979262D01*
X64998600Y-91719400D01*
X64333357Y-91719400D01*
X64333357Y-77798123D01*
X64315900Y-77358914D01*
X64181408Y-77034219D01*
X64005477Y-76963247D01*
X63879753Y-77088971D01*
X63879753Y-76837523D01*
X63808781Y-76661592D01*
X63396323Y-76509643D01*
X62957114Y-76527100D01*
X62632419Y-76661592D01*
X62561447Y-76837523D01*
X63220600Y-77496676D01*
X63879753Y-76837523D01*
X63879753Y-77088971D01*
X63346324Y-77622400D01*
X64005477Y-78281553D01*
X64181408Y-78210581D01*
X64333357Y-77798123D01*
X64333357Y-91719400D01*
X63879753Y-91719400D01*
X63879753Y-78407277D01*
X63220600Y-77748124D01*
X63094876Y-77873848D01*
X63094876Y-77622400D01*
X62435723Y-76963247D01*
X62259792Y-77034219D01*
X62107843Y-77446677D01*
X62125300Y-77885886D01*
X62259792Y-78210581D01*
X62435723Y-78281553D01*
X63094876Y-77622400D01*
X63094876Y-77873848D01*
X62561447Y-78407277D01*
X62632419Y-78583208D01*
X63044877Y-78735157D01*
X63484086Y-78717700D01*
X63808781Y-78583208D01*
X63879753Y-78407277D01*
X63879753Y-91719400D01*
X59918600Y-91719400D01*
X59918600Y-69305317D01*
X60540004Y-69927807D01*
X61809623Y-70454999D01*
X63184346Y-70456198D01*
X64454883Y-69931223D01*
X65427807Y-68959996D01*
X65954999Y-67690377D01*
X65956198Y-66315654D01*
X65431223Y-65045117D01*
X64719257Y-64331907D01*
X64919904Y-64236600D01*
X78340900Y-64236600D01*
X77981618Y-64595881D01*
X77553886Y-64510800D01*
X77506114Y-64510800D01*
X77039546Y-64603606D01*
X76644009Y-64867895D01*
X76379720Y-65263432D01*
X76286914Y-65730000D01*
X76379720Y-66196568D01*
X76597567Y-66522600D01*
X76555600Y-66522600D01*
X76370917Y-66559336D01*
X76233086Y-66651431D01*
X76233086Y-65730000D01*
X76140280Y-65263432D01*
X75875991Y-64867895D01*
X75480454Y-64603606D01*
X75013886Y-64510800D01*
X74966114Y-64510800D01*
X74499546Y-64603606D01*
X74104009Y-64867895D01*
X73839720Y-65263432D01*
X73746914Y-65730000D01*
X73839720Y-66196568D01*
X74104009Y-66592105D01*
X74499546Y-66856394D01*
X74966114Y-66949200D01*
X75013886Y-66949200D01*
X75480454Y-66856394D01*
X75875991Y-66592105D01*
X76140280Y-66196568D01*
X76233086Y-65730000D01*
X76233086Y-66651431D01*
X76214350Y-66663950D01*
X75909550Y-66968750D01*
X75804936Y-67125317D01*
X75768200Y-67310000D01*
X75768200Y-67335871D01*
X75480454Y-67143606D01*
X75013886Y-67050800D01*
X74966114Y-67050800D01*
X74499546Y-67143606D01*
X74104009Y-67407895D01*
X73839720Y-67803432D01*
X73746914Y-68270000D01*
X73839720Y-68736568D01*
X74104009Y-69132105D01*
X74499546Y-69396394D01*
X74966114Y-69489200D01*
X75013886Y-69489200D01*
X75331971Y-69425928D01*
X74374500Y-70383400D01*
X73914000Y-70383400D01*
X73729317Y-70420136D01*
X73693086Y-70444344D01*
X73693086Y-68270000D01*
X73687381Y-68241318D01*
X73687381Y-66015990D01*
X73687381Y-65444010D01*
X73527191Y-65057261D01*
X73187749Y-64696247D01*
X72735991Y-64492612D01*
X72538900Y-64564707D01*
X72538900Y-65641100D01*
X73615013Y-65641100D01*
X73687381Y-65444010D01*
X73687381Y-66015990D01*
X73615013Y-65818900D01*
X72538900Y-65818900D01*
X72538900Y-66895293D01*
X72735991Y-66967388D01*
X73187749Y-66763753D01*
X73527191Y-66402739D01*
X73687381Y-66015990D01*
X73687381Y-68241318D01*
X73600280Y-67803432D01*
X73335991Y-67407895D01*
X72940454Y-67143606D01*
X72473886Y-67050800D01*
X72426114Y-67050800D01*
X72361100Y-67063732D01*
X72361100Y-66895293D01*
X72361100Y-65818900D01*
X72361100Y-65641100D01*
X72361100Y-64564707D01*
X72164009Y-64492612D01*
X71712251Y-64696247D01*
X71372809Y-65057261D01*
X71212619Y-65444010D01*
X71284987Y-65641100D01*
X72361100Y-65641100D01*
X72361100Y-65818900D01*
X71284987Y-65818900D01*
X71212619Y-66015990D01*
X71372809Y-66402739D01*
X71712251Y-66763753D01*
X72164009Y-66967388D01*
X72361100Y-66895293D01*
X72361100Y-67063732D01*
X71959546Y-67143606D01*
X71564009Y-67407895D01*
X71299720Y-67803432D01*
X71206914Y-68270000D01*
X71299720Y-68736568D01*
X71300205Y-68737294D01*
X70392600Y-69644900D01*
X70392600Y-69397956D01*
X70400454Y-69396394D01*
X70795991Y-69132105D01*
X71060280Y-68736568D01*
X71153086Y-68270000D01*
X71153086Y-65730000D01*
X71060280Y-65263432D01*
X70795991Y-64867895D01*
X70400454Y-64603606D01*
X69933886Y-64510800D01*
X69886114Y-64510800D01*
X69419546Y-64603606D01*
X69024009Y-64867895D01*
X68759720Y-65263432D01*
X68666914Y-65730000D01*
X68759720Y-66196568D01*
X69024009Y-66592105D01*
X69419546Y-66856394D01*
X69886114Y-66949200D01*
X69933886Y-66949200D01*
X70400454Y-66856394D01*
X70795991Y-66592105D01*
X71060280Y-66196568D01*
X71153086Y-65730000D01*
X71153086Y-68270000D01*
X71060280Y-67803432D01*
X70795991Y-67407895D01*
X70400454Y-67143606D01*
X69933886Y-67050800D01*
X69886114Y-67050800D01*
X69419546Y-67143606D01*
X69024009Y-67407895D01*
X68759720Y-67803432D01*
X68666914Y-68270000D01*
X68759720Y-68736568D01*
X69024009Y-69132105D01*
X69419546Y-69396394D01*
X69427400Y-69397956D01*
X69427400Y-69590100D01*
X68613086Y-70404413D01*
X68613086Y-65730000D01*
X68520280Y-65263432D01*
X68255991Y-64867895D01*
X67860454Y-64603606D01*
X67393886Y-64510800D01*
X67346114Y-64510800D01*
X66879546Y-64603606D01*
X66484009Y-64867895D01*
X66219720Y-65263432D01*
X66126914Y-65730000D01*
X66219720Y-66196568D01*
X66484009Y-66592105D01*
X66879546Y-66856394D01*
X67346114Y-66949200D01*
X67393886Y-66949200D01*
X67860454Y-66856394D01*
X68255991Y-66592105D01*
X68520280Y-66196568D01*
X68613086Y-65730000D01*
X68613086Y-70404413D01*
X68589200Y-70428299D01*
X68589200Y-69204333D01*
X68589200Y-69062867D01*
X68589200Y-67335667D01*
X68535063Y-67204969D01*
X68435031Y-67104937D01*
X68304333Y-67050800D01*
X68162867Y-67050800D01*
X66435667Y-67050800D01*
X66304969Y-67104937D01*
X66204937Y-67204969D01*
X66150800Y-67335667D01*
X66150800Y-67477133D01*
X66150800Y-69204333D01*
X66204937Y-69335031D01*
X66304969Y-69435063D01*
X66435667Y-69489200D01*
X66577133Y-69489200D01*
X68304333Y-69489200D01*
X68435031Y-69435063D01*
X68535063Y-69335031D01*
X68589200Y-69204333D01*
X68589200Y-70428299D01*
X67870441Y-71147058D01*
X67776568Y-71084335D01*
X67310000Y-70991529D01*
X66843432Y-71084335D01*
X66447895Y-71348624D01*
X66183606Y-71744161D01*
X66090800Y-72210729D01*
X66090800Y-72569271D01*
X66150101Y-72867398D01*
X65898598Y-73118901D01*
X66036486Y-72678700D01*
X66036486Y-72101300D01*
X65887921Y-71627012D01*
X65569162Y-71245680D01*
X65128738Y-71015359D01*
X65055990Y-71000219D01*
X64858900Y-71072587D01*
X64858900Y-72301100D01*
X65940615Y-72301100D01*
X66036486Y-72101300D01*
X66036486Y-72678700D01*
X65940615Y-72478900D01*
X64858900Y-72478900D01*
X64858900Y-73707413D01*
X65055990Y-73779781D01*
X65128738Y-73764641D01*
X65388924Y-73628575D01*
X65103500Y-73914000D01*
X64681100Y-73914000D01*
X64681100Y-73707413D01*
X64681100Y-72478900D01*
X64681100Y-72301100D01*
X64681100Y-71072587D01*
X64484010Y-71000219D01*
X64411262Y-71015359D01*
X63970838Y-71245680D01*
X63652079Y-71627012D01*
X63503514Y-72101300D01*
X63599385Y-72301100D01*
X64681100Y-72301100D01*
X64681100Y-72478900D01*
X63599385Y-72478900D01*
X63503514Y-72678700D01*
X63652079Y-73152988D01*
X63970838Y-73534320D01*
X64411262Y-73764641D01*
X64484010Y-73779781D01*
X64681100Y-73707413D01*
X64681100Y-73914000D01*
X62534800Y-73914000D01*
X62350117Y-73950736D01*
X62193550Y-74055350D01*
X61341680Y-74907219D01*
X61335734Y-74904750D01*
X60992173Y-74904450D01*
X60674649Y-75035649D01*
X60431502Y-75278371D01*
X60299750Y-75595666D01*
X60299450Y-75939227D01*
X60430649Y-76256751D01*
X60673371Y-76499898D01*
X60990666Y-76631650D01*
X61334227Y-76631950D01*
X61651751Y-76500751D01*
X61894898Y-76258029D01*
X62026650Y-75940734D01*
X62026950Y-75597173D01*
X62023960Y-75589939D01*
X62734700Y-74879200D01*
X65303400Y-74879200D01*
X65488083Y-74842464D01*
X65644650Y-74737850D01*
X66749558Y-73632941D01*
X66843432Y-73695665D01*
X67310000Y-73788471D01*
X67776568Y-73695665D01*
X68172105Y-73431376D01*
X68436394Y-73035839D01*
X68529200Y-72569271D01*
X68529200Y-72210729D01*
X68469898Y-71912601D01*
X68895304Y-71487195D01*
X68723606Y-71744161D01*
X68630800Y-72210729D01*
X68630800Y-72569271D01*
X68723606Y-73035839D01*
X68987895Y-73431376D01*
X69383432Y-73695665D01*
X69850000Y-73788471D01*
X70316568Y-73695665D01*
X70712105Y-73431376D01*
X70976394Y-73035839D01*
X71069200Y-72569271D01*
X71069200Y-72210729D01*
X70976394Y-71744161D01*
X70712105Y-71348624D01*
X70332600Y-71095047D01*
X70332600Y-71069900D01*
X71998381Y-69404118D01*
X72426114Y-69489200D01*
X72473886Y-69489200D01*
X72940454Y-69396394D01*
X73335991Y-69132105D01*
X73600280Y-68736568D01*
X73693086Y-68270000D01*
X73693086Y-70444344D01*
X73572750Y-70524750D01*
X73572747Y-70524753D01*
X72950441Y-71147059D01*
X72856568Y-71084335D01*
X72390000Y-70991529D01*
X71923432Y-71084335D01*
X71527895Y-71348624D01*
X71263606Y-71744161D01*
X71170800Y-72210729D01*
X71170800Y-72569271D01*
X71263606Y-73035839D01*
X71527895Y-73431376D01*
X71923432Y-73695665D01*
X72390000Y-73788471D01*
X72856568Y-73695665D01*
X73252105Y-73431376D01*
X73516394Y-73035839D01*
X73609200Y-72569271D01*
X73609200Y-72210729D01*
X73549898Y-71912600D01*
X73975306Y-71487192D01*
X73803606Y-71744161D01*
X73710800Y-72210729D01*
X73710800Y-72569271D01*
X73803606Y-73035839D01*
X74067895Y-73431376D01*
X74463432Y-73695665D01*
X74930000Y-73788471D01*
X75090817Y-73756482D01*
X72048750Y-76798550D01*
X71944136Y-76955117D01*
X71907400Y-77139800D01*
X71907400Y-77589529D01*
X71478738Y-77365359D01*
X71405990Y-77350219D01*
X71208900Y-77422587D01*
X71208900Y-78651100D01*
X71228900Y-78651100D01*
X71228900Y-78828900D01*
X71208900Y-78828900D01*
X71208900Y-80057413D01*
X71405990Y-80129781D01*
X71478738Y-80114641D01*
X71907400Y-79890470D01*
X71907400Y-80086200D01*
X71944136Y-80270883D01*
X72048750Y-80427450D01*
X72379066Y-80757766D01*
X72081281Y-80880809D01*
X71738015Y-81223477D01*
X71552012Y-81671422D01*
X71551588Y-82156450D01*
X71736809Y-82604719D01*
X72079477Y-82947985D01*
X72527422Y-83133988D01*
X73012450Y-83134412D01*
X73460719Y-82949191D01*
X73803985Y-82606523D01*
X73989988Y-82158578D01*
X73990412Y-81673550D01*
X73805191Y-81225281D01*
X73682324Y-81102200D01*
X73815700Y-81102200D01*
X74177953Y-81464453D01*
X74092012Y-81671422D01*
X74091588Y-82156450D01*
X74276809Y-82604719D01*
X74619477Y-82947985D01*
X75067422Y-83133988D01*
X75552450Y-83134412D01*
X76000719Y-82949191D01*
X76343985Y-82606523D01*
X76529988Y-82158578D01*
X76530336Y-81759436D01*
X76631846Y-81860945D01*
X76631588Y-82156450D01*
X76816809Y-82604719D01*
X77159477Y-82947985D01*
X77607422Y-83133988D01*
X78092450Y-83134412D01*
X78540719Y-82949191D01*
X78663800Y-82826324D01*
X78663800Y-84456590D01*
X78657849Y-84459049D01*
X78414702Y-84701771D01*
X78282950Y-85019066D01*
X78282650Y-85362627D01*
X78413849Y-85680151D01*
X78656571Y-85923298D01*
X78973866Y-86055050D01*
X79317427Y-86055350D01*
X79634951Y-85924151D01*
X79878098Y-85681429D01*
X79908400Y-85608453D01*
X79908400Y-86542124D01*
X79724649Y-86618049D01*
X79481502Y-86860771D01*
X79349750Y-87178066D01*
X79349450Y-87521627D01*
X79480649Y-87839151D01*
X79723371Y-88082298D01*
X80040666Y-88214050D01*
X80384227Y-88214350D01*
X80701751Y-88083151D01*
X80944898Y-87840429D01*
X81076650Y-87523134D01*
X81076950Y-87179573D01*
X80945751Y-86862049D01*
X80873600Y-86789771D01*
X80873600Y-83034770D01*
X81080719Y-82949191D01*
X81178400Y-82851680D01*
X81178400Y-85671997D01*
X81107102Y-85743171D01*
X80975350Y-86060466D01*
X80975050Y-86404027D01*
X81106249Y-86721551D01*
X81348971Y-86964698D01*
X81666266Y-87096450D01*
X82009827Y-87096750D01*
X82327351Y-86965551D01*
X82570498Y-86722829D01*
X82702250Y-86405534D01*
X82702550Y-86061973D01*
X82571351Y-85744449D01*
X82328629Y-85501302D01*
X82143600Y-85424471D01*
X82143600Y-82851940D01*
X82239477Y-82947985D01*
X82687422Y-83133988D01*
X83172450Y-83134412D01*
X83620719Y-82949191D01*
X83963985Y-82606523D01*
X84149988Y-82158578D01*
X84150412Y-81673550D01*
X83965191Y-81225281D01*
X83731100Y-80990781D01*
X83731100Y-80057413D01*
X83731100Y-78828900D01*
X83731100Y-78651100D01*
X83731100Y-77517413D01*
X83731100Y-77422587D01*
X83731100Y-76288900D01*
X82649385Y-76288900D01*
X82553514Y-76488700D01*
X82702079Y-76962988D01*
X83020838Y-77344320D01*
X83261165Y-77470000D01*
X83020838Y-77595680D01*
X82702079Y-77977012D01*
X82553514Y-78451300D01*
X82649385Y-78651100D01*
X83731100Y-78651100D01*
X83731100Y-78828900D01*
X82649385Y-78828900D01*
X82553514Y-79028700D01*
X82702079Y-79502988D01*
X83020838Y-79884320D01*
X83461262Y-80114641D01*
X83534010Y-80129781D01*
X83731100Y-80057413D01*
X83731100Y-80990781D01*
X83622523Y-80882015D01*
X83174578Y-80696012D01*
X82689550Y-80695588D01*
X82241281Y-80880809D01*
X82143600Y-80978319D01*
X82143600Y-80289400D01*
X82106864Y-80104717D01*
X82002250Y-79948150D01*
X82002246Y-79948147D01*
X80452850Y-78398750D01*
X80296283Y-78294136D01*
X80111600Y-78257400D01*
X79959200Y-78257400D01*
X79959200Y-77653267D01*
X79905063Y-77522569D01*
X79805031Y-77422537D01*
X79674333Y-77368400D01*
X79532867Y-77368400D01*
X77805667Y-77368400D01*
X77674969Y-77422537D01*
X77574937Y-77522569D01*
X77520800Y-77653267D01*
X77520800Y-77794733D01*
X77520800Y-79826733D01*
X77526999Y-79841699D01*
X77224153Y-79538853D01*
X77326394Y-79385839D01*
X77419200Y-78919271D01*
X77419200Y-78560729D01*
X77326394Y-78094161D01*
X77062105Y-77698624D01*
X76666568Y-77434335D01*
X76200000Y-77341529D01*
X75733432Y-77434335D01*
X75412600Y-77648707D01*
X75412600Y-76476100D01*
X77009500Y-74879200D01*
X83358306Y-74879200D01*
X83020838Y-75055680D01*
X82702079Y-75437012D01*
X82553514Y-75911300D01*
X82649385Y-76111100D01*
X83731100Y-76111100D01*
X83731100Y-76091100D01*
X83908900Y-76091100D01*
X83908900Y-76111100D01*
X84990615Y-76111100D01*
X85086486Y-75911300D01*
X84937921Y-75437012D01*
X84619162Y-75055680D01*
X84281693Y-74879200D01*
X85969520Y-74879200D01*
X85893432Y-74894335D01*
X85497895Y-75158624D01*
X85233606Y-75554161D01*
X85140800Y-76020729D01*
X85140800Y-76379271D01*
X85233606Y-76845839D01*
X85497895Y-77241376D01*
X85840055Y-77470000D01*
X85497895Y-77698624D01*
X85233606Y-78094161D01*
X85140800Y-78560729D01*
X85140800Y-78919271D01*
X85233606Y-79385839D01*
X85497895Y-79781376D01*
X85893432Y-80045665D01*
X86360000Y-80138471D01*
X86826568Y-80045665D01*
X87222105Y-79781376D01*
X87486394Y-79385839D01*
X87579200Y-78919271D01*
X87579200Y-78560729D01*
X87486394Y-78094161D01*
X87222105Y-77698624D01*
X86879944Y-77470000D01*
X87222105Y-77241376D01*
X87486394Y-76845839D01*
X87579200Y-76379271D01*
X87579200Y-76020729D01*
X87521983Y-75733083D01*
X87702174Y-75913274D01*
X87680800Y-76020729D01*
X87680800Y-76379271D01*
X87773606Y-76845839D01*
X88037895Y-77241376D01*
X88380055Y-77470000D01*
X88037895Y-77698624D01*
X87773606Y-78094161D01*
X87680800Y-78560729D01*
X87680800Y-78919271D01*
X87773606Y-79385839D01*
X88037895Y-79781376D01*
X88417400Y-80034952D01*
X88417400Y-80264000D01*
X88454136Y-80448683D01*
X88558750Y-80605250D01*
X89417953Y-81464452D01*
X89332012Y-81671422D01*
X89331588Y-82156450D01*
X89516809Y-82604719D01*
X89859477Y-82947985D01*
X90307422Y-83133988D01*
X90792450Y-83134412D01*
X91240719Y-82949191D01*
X91583985Y-82606523D01*
X91769988Y-82158578D01*
X91770412Y-81673550D01*
X91585191Y-81225281D01*
X91242523Y-80882015D01*
X90794578Y-80696012D01*
X90309550Y-80695588D01*
X90100475Y-80781975D01*
X89382600Y-80064100D01*
X89382600Y-80034952D01*
X89762105Y-79781376D01*
X90026394Y-79385839D01*
X90119200Y-78919271D01*
X90119200Y-78560729D01*
X90026394Y-78094161D01*
X89762105Y-77698624D01*
X89419944Y-77470000D01*
X89762105Y-77241376D01*
X90026394Y-76845839D01*
X90119200Y-76379271D01*
X90119200Y-76020729D01*
X90026394Y-75554161D01*
X89762105Y-75158624D01*
X89571999Y-75031600D01*
X89986733Y-75031600D01*
X90117431Y-74977463D01*
X90217463Y-74877431D01*
X90271600Y-74746733D01*
X90271600Y-74605267D01*
X90271600Y-74372958D01*
X90443261Y-74629868D01*
X90740385Y-74828400D01*
X90505667Y-74828400D01*
X90374969Y-74882537D01*
X90274937Y-74982569D01*
X90220800Y-75113267D01*
X90220800Y-75254733D01*
X90220800Y-77286733D01*
X90274937Y-77417431D01*
X90327506Y-77470000D01*
X90274937Y-77522569D01*
X90220800Y-77653267D01*
X90220800Y-77794733D01*
X90220800Y-79826733D01*
X90274937Y-79957431D01*
X90374969Y-80057463D01*
X90505667Y-80111600D01*
X90647133Y-80111600D01*
X90957400Y-80111600D01*
X90957400Y-80264000D01*
X90994136Y-80448683D01*
X91098750Y-80605250D01*
X91957953Y-81464452D01*
X91872012Y-81671422D01*
X91871588Y-82156450D01*
X92056809Y-82604719D01*
X92399477Y-82947985D01*
X92847422Y-83133988D01*
X93332450Y-83134412D01*
X93780719Y-82949191D01*
X94123985Y-82606523D01*
X94309988Y-82158578D01*
X94310412Y-81673550D01*
X94125191Y-81225281D01*
X93782523Y-80882015D01*
X93334578Y-80696012D01*
X92849550Y-80695588D01*
X92640475Y-80781975D01*
X91970099Y-80111600D01*
X92374333Y-80111600D01*
X92505031Y-80057463D01*
X92605063Y-79957431D01*
X92659200Y-79826733D01*
X92659200Y-79685267D01*
X92659200Y-77653267D01*
X92605063Y-77522569D01*
X92552494Y-77470000D01*
X92605063Y-77417431D01*
X92659200Y-77286733D01*
X92659200Y-77145267D01*
X92659200Y-75113267D01*
X92605063Y-74982569D01*
X92505031Y-74882537D01*
X92374333Y-74828400D01*
X92232867Y-74828400D01*
X92139614Y-74828400D01*
X92436739Y-74629868D01*
X92734064Y-74184889D01*
X92742475Y-74142600D01*
X93370400Y-74142600D01*
X93555083Y-74105864D01*
X93711650Y-74001250D01*
X96973900Y-70739000D01*
X97815400Y-70739000D01*
X98000083Y-70702264D01*
X98156650Y-70597650D01*
X99452050Y-69302250D01*
X99546683Y-69160619D01*
X99899546Y-69396394D01*
X100366114Y-69489200D01*
X100413886Y-69489200D01*
X100880454Y-69396394D01*
X101275991Y-69132105D01*
X101540280Y-68736568D01*
X101591045Y-68481349D01*
X101608864Y-68454683D01*
X101645600Y-68270000D01*
X101608864Y-68085317D01*
X101591045Y-68058650D01*
X101540280Y-67803432D01*
X101275991Y-67407895D01*
X100880454Y-67143606D01*
X100413886Y-67050800D01*
X100366114Y-67050800D01*
X99899546Y-67143606D01*
X99593400Y-67348165D01*
X99593400Y-66651834D01*
X99899546Y-66856394D01*
X100366114Y-66949200D01*
X100413886Y-66949200D01*
X100880454Y-66856394D01*
X101275991Y-66592105D01*
X101540280Y-66196568D01*
X101633086Y-65730000D01*
X101540280Y-65263432D01*
X101275991Y-64867895D01*
X100880454Y-64603606D01*
X100413886Y-64510800D01*
X100366114Y-64510800D01*
X99899546Y-64603606D01*
X99504009Y-64867895D01*
X99488969Y-64890403D01*
X99452050Y-64835150D01*
X98853499Y-64236600D01*
X118377000Y-64236600D01*
X117572193Y-65040004D01*
X117045001Y-66309623D01*
X117043802Y-67684346D01*
X117568777Y-68954883D01*
X118540004Y-69927807D01*
X119809623Y-70454999D01*
X121184346Y-70456198D01*
X122454883Y-69931223D01*
X123215400Y-69172032D01*
X123215400Y-114261095D01*
M02*
